<?xml version="1.0" standalone="no"?>
<!DOCTYPE svg PUBLIC "-//W3C//DTD SVG 1.1//EN" "http://www.w3.org/Graphics/SVG/1.1/DTD/svg11.dtd" >
<svg xmlns="http://www.w3.org/2000/svg" xmlns:xlink="http://www.w3.org/1999/xlink" version="1.1">
<metadata>
Created by FontForge 20170509 at Wed Jun  7 10:14:57 2017
 By fw_worker
Copyright (c) 2014 by M Fairuzulhaq aka VAST (Logotype &#38; Independent Type Foundry) - Indonesia. . All rights reserved.
</metadata>
<defs>
<font id="SVN-CandlescriptPro" horiz-adv-x="331" >
  <font-face 
    font-family="SVN-Candlescript Pro"
    font-weight="400"
    font-stretch="normal"
    units-per-em="1000"
    panose-1="2 0 0 0 0 0 0 0 0 0"
    ascent="800"
    descent="-200"
    x-height="302"
    cap-height="579"
    bbox="-1214 -652.92 5070.65 957.231"
    underline-thickness="50"
    underline-position="-100"
    unicode-range="U+0020-FB05"
  />
<missing-glyph horiz-adv-x="237" 
 />
    <glyph glyph-name=".notdef" horiz-adv-x="237" 
 />
    <glyph glyph-name=".null" horiz-adv-x="0" 
 />
    <glyph glyph-name="nonmarkingreturn" horiz-adv-x="333" 
 />
    <glyph glyph-name="space" unicode=" " horiz-adv-x="237" 
 />
    <glyph glyph-name="space" unicode="&#xa0;" horiz-adv-x="237" 
 />
    <glyph glyph-name="exclam" unicode="!" horiz-adv-x="305" 
d="M74 27q3 15 20 26.5t36 11.5t31.5 -11t9.5 -27q-3 -17 -19.5 -28t-35.5 -11q-20 0 -32 11t-10 28zM351 356l-182 -252q-3 -4 -7.5 -4.5t-5.5 2t2 8.5l120 282q42 90 87 66q42 -22 -14 -102z" />
    <glyph glyph-name="quotedbl" unicode="&#x22;" horiz-adv-x="303" 
d="M150 288l98 154q28 40 54 27q12 -9 10 -23.5t-14 -26.5l-135 -140q-7 -9 -14 -3q-4 5 1 12zM252 288l97 154q28 41 53 27q13 -9 10.5 -23.5t-14.5 -26.5l-134 -140q-7 -8 -12.5 -3.5t0.5 12.5z" />
    <glyph glyph-name="numbersign" unicode="#" horiz-adv-x="371" 
d="M174 4l88 158h-69l-91 -164q-9 -15 -18 -8q-8 5 -2 14l87 158h-55q-11 0 -11 8q3 11 17 13h60l45 80h-55q-11 0 -11 9q1 11 18 11h59l90 162q9 17 20 8q6 -6 1 -13l-87 -157h69l90 162q9 17 20 8q6 -6 1 -13l-87 -157h52q11 0 11 -9q0 -11 -17 -11h-58l-44 -80h52
q11 0 11 -8q-3 -11 -17 -13h-57l-91 -164q-9 -16 -20 -8q-6 6 -1 14zM248 263l-44 -80h70l43 80h-69z" />
    <glyph glyph-name="dollar" unicode="$" horiz-adv-x="306" 
d="M160 164l34 62q-61 14 -61 56q0 24 14 36t36 12q13 0 28 -5q-10 -9 -19 -27.5t-9 -34.5q0 -18 18 -25l56 102l-22 28q-19 25 -19 50q0 29 24.5 48t68.5 19q10 0 26 -2l22 42q5 8 13 8q5 0 6.5 -5t-1.5 -11l-22 -39q58 -14 58 -58q0 -21 -14 -31.5t-34 -10.5q-17 0 -29 6
q11 9 20 27t9 34q0 17 -16 23l-50 -93l27 -33q20 -23 20 -46q0 -31 -32.5 -52t-83.5 -21h-14l-36 -66q-4 -9 -12 -9q-12 0 -6 16zM290 276q0 20 -21 48l-49 -89h13q25 0 41 10.5t16 30.5zM267 437q0 -22 18 -46l45 82q-4 0 -9 0.5t-7 0.5q-21 0 -34 -10t-13 -27z" />
    <glyph glyph-name="percent" unicode="%" horiz-adv-x="612" 
d="M575 512h29l-426 -550h-30zM222 354q-30 -58 -30 -96q0 -22 14 -22q20 0 55 36t63 85q28 58 28 97q0 21 -13 21q-20 0 -55.5 -36.5t-61.5 -84.5zM203 225q-30 0 -46.5 16t-16.5 43q0 69 66 135.5t136 66.5q29 0 45.5 -16t16.5 -44q0 -69 -66 -135t-135 -66zM433 118
q-29 -52 -29 -96q0 -22 14 -22q21 0 55 35.5t62 85.5q29 52 29 97q0 20 -14 20q-19 0 -55.5 -36.5t-61.5 -83.5zM414 -12q-30 0 -46 16t-16 44q0 69 66 135.5t135 66.5q29 0 45.5 -16t16.5 -44q0 -69 -66 -135.5t-135 -66.5z" />
    <glyph glyph-name="ampersand" unicode="&#x26;" horiz-adv-x="429" 
d="M475 -153q-41 -7 -74 6t-57 45t-37 57t-28 61q-60 -28 -116 -28q-66 0 -103.5 28t-33.5 74q3 32 22 60.5t53 51t63 37.5t70 32q5 85 29 134q41 86 143 80q40 -4 60 -31.5t0 -65.5q-11 -23 -44 -45.5t-58.5 -33.5t-72.5 -30q6 -141 36 -222q78 55 74 128q-2 43 -30 74
q32 27 56.5 21.5t25.5 -42.5q0 -56 -33.5 -106.5t-88.5 -86.5q60 -175 140 -178q69 -3 155 121q5 8 8 4.5t-2 -9.5q-83 -123 -157 -136zM175 3q46 0 100 24q-36 93 -42 226q-95 -49 -127 -128q-21 -40 -1.5 -81t70.5 -41zM304 405q-13 -43 -13 -109q51 25 83.5 49.5
t50.5 62.5q14 28 5.5 46.5t-38.5 18.5q-66 0 -88 -68z" />
    <glyph glyph-name="quotesingle" unicode="'" horiz-adv-x="165" 
d="M150 288l98 154q28 40 54 27q12 -9 10 -23.5t-14 -26.5l-135 -140q-7 -9 -14 -3q-4 5 1 12z" />
    <glyph glyph-name="parenleft" unicode="(" 
d="M195 -301q-48 64 -67.5 152.5t-11.5 173t38 153.5q70 165 201 274.5t285 154.5q4 2 7.5 0.5t3 -5t-6.5 -6.5q-131 -52 -235 -158.5t-173 -251.5q-34 -71 -52.5 -152.5t-15.5 -170.5t35 -155q6 -10 1 -12q-4 -2 -9 3z" />
    <glyph glyph-name="parenright" unicode=")" 
d="M210 602q48 -64 67.5 -151.5t11.5 -172t-38 -153.5q-73 -167 -203 -276t-283 -154q-8 -3 -11 2t7 8q131 52 235 159t172 252q34 72 53 152.5t16 169t-35 156.5q-7 12 1 13q3 0 7 -5z" />
    <glyph glyph-name="asterisk" unicode="*" horiz-adv-x="332" 
d="M252 400q-1 1 -5.5 4.5t-6 4.5t-5.5 4t-5 4.5t-4 4.5t-4 5t-3 5t-2.5 6t-0.5 6q-1 14 12.5 21.5t26.5 1.5q11 -6 14.5 -17.5t6.5 -34.5q4 -18 10 -33q3 7 10 34q6 42 20 52q11 7 25 0t14 -21q0 -18 -33 -45q-13 -10 -24 -26q17 4 34 9q38 18 56 9q11 -7 11.5 -22.5
t-11.5 -23.5q-15 -7 -56 7q-18 8 -34 9q10 -13 25 -24q29 -22 33 -34q2 -5 2 -10q1 -14 -12 -21.5t-25 -1.5q-15 8 -23 52q-4 18 -10 33q-3 -5 -10 -34q-6 -44 -20 -52q-12 -8 -25.5 0t-13.5 22q0 5 1.5 9.5t3.5 7.5t6 7.5t6.5 6.5t8 6.5t7.5 6.5q13 9 25 26q-16 -1 -34 -9
q-40 -17 -55 -8q-12 6 -12 21.5t11 23.5q15 8 56 -8q5 -2 10.5 -3.5t12 -3t10.5 -2.5q-8 15 -24 25z" />
    <glyph glyph-name="plus" unicode="+" horiz-adv-x="323" 
d="M242 252h30l-51 -92h96l-13 -24h-96l-51 -91h-30l51 91h-95l12 24h97z" />
    <glyph glyph-name="comma" unicode="," 
d="M171 27q-6 -37 -49.5 -81t-88.5 -63q-7 -5 -10 2q-2 5 5 9q56 29 94 94q-25 -4 -37.5 8t-10.5 31q3 15 20 26.5t36 11.5t31 -11t10 -27z" />
    <glyph glyph-name="hyphen" unicode="-" horiz-adv-x="263" 
d="M102 168h161l-24 -41h-161z" />
    <glyph glyph-name="period" unicode="." 
d="M74 27q3 15 20 26.5t36 11.5t31.5 -11t9.5 -27q-3 -17 -19.5 -28t-35.5 -11q-20 0 -32 11t-10 28z" />
    <glyph glyph-name="slash" unicode="/" horiz-adv-x="229" 
d="M398 512h30l-426 -550h-30z" />
    <glyph glyph-name="zero" unicode="0" horiz-adv-x="429" 
d="M153 3q41 0 110.5 70t121.5 164q67 127 59 196q-4 37 -32 37q-43 0 -112.5 -69.5t-122.5 -165.5q-34 -61 -49 -115t-8.5 -85.5t33.5 -31.5zM147 -12q-78 0 -89.5 80t48.5 182q55 96 136 165.5t173 69.5q52 0 75 -37.5t13 -97.5t-48 -128q-54 -95 -135 -164.5t-173 -69.5z
" />
    <glyph glyph-name="one" unicode="1" horiz-adv-x="296" 
d="M235 175q-26 -45 -43.5 -82.5t-25 -60t-9 -39t1 -23.5t6.5 -9q5 -4 3 -8t-8 -1q-31 16 -38.5 57.5t12.5 99.5q18 59 63 135t90 125q-117 -86 -175 -118q-8 -5 -11 -1t5 10q148 102 246 186q25 19 45.5 25t61.5 6q-37 -26 -97 -104.5t-127 -197.5z" />
    <glyph glyph-name="two" unicode="2" horiz-adv-x="386" 
d="M365 485q60 -4 93 -31.5t32 -67t-35 -80.5q-37 -43 -194 -123t-196 -106q23 2 173 -15q49 -6 77.5 8t55.5 55q3 6 7.5 7.5t5.5 -2.5t-2 -11q-4 -6 -11 -18q-22 -37 -33.5 -53t-29.5 -34t-38 -21.5t-48 0.5q-29 5 -80.5 16t-76.5 15t-54 0t-46 -22q-6 -6 -11 -2t3 12
q34 41 121 96.5t175 111t122 92.5q33 35 44.5 72.5t-1.5 62t-47 24.5q-51 0 -86 -36.5t-42 -94.5q-50 0 -64 19.5t10 52.5q22 34 71.5 54.5t104.5 18.5z" />
    <glyph glyph-name="three" unicode="3" horiz-adv-x="386" 
d="M365 485q65 -4 98 -34.5t25 -72.5q-6 -36 -46 -69t-110 -52q39 -16 52.5 -59.5t-9.5 -90.5q-29 -56 -87.5 -87.5t-119.5 -31.5q-64 0 -102.5 44.5t-20.5 101.5q24 83 109 44q-30 -26 -46 -74q-12 -42 4 -73.5t61 -27.5q39 2 77 35t56 78q20 48 14 78.5t-22 44t-35 13.5
h-13q-13 0 -12 8q1 9 17 9q9 0 13 1q58 5 95.5 36t53.5 69q15 37 3 66.5t-49 29.5q-51 0 -86 -36.5t-42 -94.5q-50 0 -64 19.5t10 52.5q22 34 71.5 54.5t104.5 18.5z" />
    <glyph glyph-name="four" unicode="4" horiz-adv-x="428" 
d="M329 173q39 84 126 186t140 119q11 3 11 0q1 -1 -11 -13q-57 -57 -140 -195q-54 -89 -97 -190.5t-21 -118.5q5 -4 3 -7.5t-8 -1.5q-30 15 -38 58.5t11 106.5q-38 6 -90.5 9t-108 -0.5t-79.5 -16.5q-5 -3 -9 -1.5t-4 6.5t5 8q59 40 100 70.5t95.5 76.5t95.5 95.5t65 100.5
q13 27 33 21q17 -4 14 -22q0 -5 -4 -11q-49 -76 -118.5 -139.5t-170.5 -138.5q137 6 200 -2z" />
    <glyph glyph-name="five" unicode="5" horiz-adv-x="386" 
d="M559 504q-5 -8 -15.5 -25t-13.5 -22.5t-11.5 -18t-12 -15.5t-11 -11t-12.5 -9.5t-13 -5t-16.5 -3.5h-18.5t-23 2l-132 16q-3 0 -4.5 0.5t-4 -0.5t-3.5 -2t-2.5 -3t-2.5 -3.5t-3 -4t-3 -3.5l-81 -104q34 23 82.5 27.5t94.5 -14.5q17 -9 30 -25.5t20.5 -39.5t0.5 -56
t-29 -69q-38 -61 -98.5 -94t-118.5 -33q-60 0 -94.5 45.5t-18.5 100.5q24 83 109 44q-30 -26 -46 -74q-11 -40 1 -71t49 -29q43 2 93 48.5t78 112.5q29 80 1.5 112t-85 24t-100.5 -49q-3 -3 -7 -3t-5 3.5t2 9.5l127 176q8 13 20.5 16.5t39.5 3.5h91q59 0 87 9t52 45
q5 9 9.5 6t-2.5 -14z" />
    <glyph glyph-name="six" unicode="6" horiz-adv-x="386" 
d="M449 485q7 1 10 -1t0.5 -5.5t-7.5 -5.5q-84 -33 -160.5 -97t-118.5 -133q39 42 92.5 66.5t102.5 2.5q40 -15 47.5 -68t-36.5 -129q-38 -61 -102 -94t-125 -33q-71 2 -95 47.5t-4 110.5t72 135q55 74 143.5 131.5t180.5 72.5zM148 4q45 0 99.5 47.5t84.5 114.5
q25 58 17.5 97t-40.5 39q-45 0 -98.5 -49t-83.5 -118q-25 -58 -18 -94.5t39 -36.5z" />
    <glyph glyph-name="seven" unicode="7" horiz-adv-x="355" 
d="M522 484q8 9 11 2q1 -3 -3 -9q-58 -81 -220 -229q-28 -25 -53 -51.5t-50 -58.5t-39 -60t-14 -53.5t19 -41.5q4 -2 4 -5.5t-3 -4.5t-7 2q-79 58 -58.5 130t127.5 150q25 19 114 84.5t111 83.5q-8 -4 -15 -6.5t-16 -3.5t-14.5 -1.5t-17 0t-17.5 0.5h-91q-59 0 -86.5 -8.5
t-51.5 -45.5q-6 -9 -10.5 -6t2.5 13q45 73 58 86q26 27 79 24q5 0 10 -1l148 -14q54 -5 83 24z" />
    <glyph glyph-name="eight" unicode="8" horiz-adv-x="386" 
d="M496 404q-11 -50 -164 -121h1q58 -90 49 -145q-9 -49 -49.5 -84.5t-90.5 -50.5t-101 -15q-66 0 -101.5 40t-0.5 104q13 23 33.5 42t55.5 37.5t57.5 29t72.5 30.5h-1q-35 52 -39 82t11 59q22 39 74 57.5t100 15.5q49 -2 75.5 -24t17.5 -57zM313 125q11 45 -44 128
q-54 -27 -97.5 -63.5t-64.5 -74.5q-27 -45 -13.5 -77t60.5 -32q58 0 103.5 33.5t55.5 85.5zM433 409q15 59 -47 59q-28 0 -56.5 -11t-41.5 -35q-6 -11 -7.5 -23.5t0 -22t8 -23t10.5 -20t12.5 -19.5t10.5 -16q86 49 111 111z" />
    <glyph glyph-name="nine" unicode="9" horiz-adv-x="386" 
d="M81 -10q-7 -1 -10 1t-0.5 5.5t7.5 5.5q84 34 160 97.5t119 132.5q-38 -40 -92.5 -65t-102.5 -4q-40 15 -47 67.5t36 129.5q40 61 103 94t124 33q70 -2 94 -47.5t4.5 -111t-71.5 -134.5q-54 -73 -143.5 -131t-180.5 -73zM382 472q-46 0 -100 -47.5t-84 -115.5
q-25 -58 -17.5 -97t40.5 -39q45 0 98 49t85 119q25 58 17.5 94.5t-39.5 36.5z" />
    <glyph glyph-name="colon" unicode=":" 
d="M74 27q3 15 20 26.5t36 11.5t31.5 -11t9.5 -27q-3 -17 -19.5 -28t-35.5 -11q-20 0 -32 11t-10 28zM208 268q3 17 19 28t37 11q19 0 31.5 -11t9.5 -28t-19.5 -28t-35.5 -11q-21 0 -33 11t-9 28z" />
    <glyph glyph-name="semicolon" unicode=";" 
d="M208 268q3 17 19 28t37 11q19 0 31.5 -11t9.5 -28t-19.5 -28t-35.5 -11q-21 0 -33 11t-9 28zM171 27q-6 -37 -49.5 -81t-88.5 -63q-7 -5 -10 2q-2 5 5 9q56 29 94 94q-25 -4 -37.5 8t-10.5 31q3 15 20 26.5t36 11.5t31 -11t10 -27z" />
    <glyph glyph-name="less" unicode="&#x3c;" horiz-adv-x="322" 
d="M60 148l342 148q-7 -13 -11 -18.5t-18 -18t-38 -27.5l-159 -100l49 -80q15 -23 17 -30.5t-6 -22.5z" />
    <glyph glyph-name="equal" unicode="=" horiz-adv-x="295" 
d="M71 118h194l-15 -30h-195zM121 207h194l-15 -29h-195z" />
    <glyph glyph-name="greater" unicode="&#x3e;" horiz-adv-x="328" 
d="M324 148l-342 -149q1 1 3.5 6t3.5 6t4 6t5 6.5t5.5 6t8 7.5t10 7.5t12.5 9.5t15 10l158 101l-48 78q-15 26 -16.5 31.5t5.5 21.5z" />
    <glyph glyph-name="question" unicode="?" horiz-adv-x="459" 
d="M117 27q4 16 20.5 27t35.5 11t31.5 -11t9.5 -27q-3 -17 -19.5 -28t-35.5 -11q-20 0 -32 11t-10 28zM502 415q30 -88 -123 -172q-6 -3 -23.5 -13.5l-25 -15t-23.5 -14t-24 -15.5t-21 -15.5t-20.5 -16.5t-16 -16t-14.5 -18q-6 -6 -10 -3t1 11q17 32 50 64t77.5 67.5
t62.5 53.5q35 33 46.5 71t-2.5 63t-48 25q-51 0 -86.5 -36.5t-41.5 -94.5q-50 0 -64 19.5t10 52.5q24 35 72.5 55t104.5 18q47 -2 78.5 -21.5t40.5 -48.5z" />
    <glyph glyph-name="at" unicode="@" horiz-adv-x="551" 
d="M446 258q56 103 39 130q-4 6 -12 6q-22 0 -60 -38t-70 -98q-60 -106 -40 -134q5 -6 15 -6q20 0 57 40t71 100zM652 171q-26 -48 -71 -94.5t-93 -74.5q-61 -36 -127.5 -52t-132.5 -2.5t-104 64.5q-32 41 -36.5 96t14.5 109t48 103t65 89q72 81 167.5 125.5t175.5 36
t110 -68.5q26 -51 6.5 -120.5t-59.5 -132.5t-92 -107t-89 -44q-19 0 -29.5 17.5t-2.5 50.5q-61 -72 -113 -68q-34 1 -46.5 26t-5.5 60.5t28 73.5q36 64 92.5 116t110.5 43q40 -7 32 -61q20 34 44 45t64 11l-140 -254q-23 -40 -2 -37q19 3 53 32q74 63 121.5 168t14.5 173
q-15 32 -51 45t-84 5q-47 -9 -108.5 -43.5t-114.5 -87.5q-82 -85 -122 -187t-16 -171q16 -45 53 -68.5t83 -24t94 12.5t92 37q95 50 163 163q3 6 6.5 3.5t1.5 -7.5z" />
    <glyph glyph-name="A" unicode="A" horiz-adv-x="1002" 
d="M849 108l53 92h-204q-79 -104 -172 -173t-215 -113q-83 -28 -166 -29q26 -65 85.5 -103t125 -44t130 13.5t102.5 61.5q9 11 12 7.5t-6 -12.5q-39 -45 -109.5 -66.5t-144 -15t-143.5 48t-106 113.5q-132 12 -194 88q-14 13 -12 34.5t27 30.5q29 -112 171 -135
q-34 78 -24 166t51.5 169.5t116 154t167.5 118.5q253 124 532 46q64 41 109 27q50 -19 37 -103q37 54 96 54l-271 -489q-23 -42 7 -38q24 3 64 28q72 47 126 134q5 9 9 3q2 -2 -1 -6q-39 -66 -95 -117t-113 -62q-44 -11 -59 11q-26 34 14 106zM654 255l115 147
q89 107 139 145q-250 77 -472 -44q-104 -58 -184.5 -154.5t-115.5 -213.5t4 -234q92 -2 163 27q29 11 57 27t48.5 29t47.5 38.5t40 38t41.5 46.5t37 44.5t40.5 52.5t39 51zM854 410l-143 -193l-2 -2h201l91 157q35 59 47 107.5t4.5 72.5t-24.5 26q-48 3 -174 -168z" />
    <glyph glyph-name="B" unicode="B" horiz-adv-x="983" 
d="M717 289l-60 -111q-48 -86 -91 -127q-28 -28 -77 -49q51 -14 103 -19.5t107.5 -1t101.5 30.5t71 72q18 34 19.5 70t-14.5 66.5t-57.5 50t-102.5 18.5zM872 542q-43 -45 -96 -143l-48 -90q71 -8 125 10t80 46q44 50 28 97.5t-89 79.5zM87 -104q-45 117 -18 234t112 219
t207 165q236 122 475 54q19 12 42 21q51 22 100.5 12.5t76.5 -50.5q12 -14 8.5 -34t-30.5 -28q0 51 -36.5 84.5t-90.5 11.5q-20 -8 -43 -26q60 -25 96 -60t39.5 -76.5t-42.5 -82.5q-43 -37 -153 -48q72 -19 107.5 -65.5t29 -97.5t-45.5 -90q-33 -32 -85 -51
q-84 -29 -183.5 -26t-186.5 34q-33 -10 -70 -8q-51 4 -77 25t-26 69q119 -57 157 -65q9 2 18 8t19 18l17.5 21t19 28.5t16.5 27.5t18 30.5t15 26.5l94 163q90 154 175 214q-81 32 -202.5 17t-223.5 -77q-65 -39 -126 -101.5t-108 -145t-59 -172.5t20 -184q24 -67 83.5 -107
t126 -46.5t132 13t103.5 62.5q9 11 12 7.5t-6 -12.5q-39 -45 -111.5 -67t-148.5 -15.5t-146 50.5t-101 120z" />
    <glyph glyph-name="C" unicode="C" horiz-adv-x="690" 
d="M596 -36q-92 -59 -189 -84t-182 0q-63 18 -101 56t-48 85.5t-1 99.5t36 104q38 74 102 144t140 123.5t162.5 80t162.5 13.5q37 -7 61 -28t22 -55q0 -25 -22 -49t-51 -24q-21 0 -33 10.5t-9 27.5q2 16 19 27t37 11q10 0 18 -3q13 28 1 44.5t-40 23.5q-40 10 -98.5 -6
t-114.5 -49q-92 -55 -169 -139t-121 -173q-30 -61 -38 -118t12.5 -106t71.5 -75q69 -31 167.5 -11t194.5 79q103 65 193 199q4 7 9 3q3 -2 0 -7q-83 -132 -192 -204z" />
    <glyph glyph-name="D" unicode="D" horiz-adv-x="1024" 
d="M781 1q58 24 105 75t70.5 114.5t26.5 128.5t-28.5 123.5t-93.5 91.5q-32 -36 -88 -135l-120 -220q-37 -69 -72.5 -111t-90.5 -65q45 -13 93 -19.5t102.5 -3t95.5 20.5zM388 514q111 57 233.5 70t227.5 -23q21 15 53 28q51 22 100.5 12.5t76.5 -50.5q12 -14 8.5 -34
t-30.5 -28q0 52 -37 85.5t-90 10.5q-30 -13 -54 -36q71 -34 114.5 -94t50.5 -128.5t-10 -136t-67.5 -122t-122.5 -80.5q-85 -29 -186 -25t-187 34q-36 -10 -69 -9q-51 4 -76 24.5t-27 69.5q97 -47 155 -64q12 3 25 13.5t27.5 31t23.5 35t25.5 43t22.5 37.5l89 162
q86 146 167 208q-90 34 -203 19t-212 -73q-65 -39 -126 -101.5t-108 -145t-59 -172.5t20 -184q24 -67 83.5 -107t126 -46.5t132 13t103.5 62.5q9 11 12 7.5t-6 -12.5q-39 -45 -111.5 -67t-148.5 -15.5t-146 50.5t-101 120q-45 117 -18.5 234t112 219.5t207.5 164.5z" />
    <glyph glyph-name="E" unicode="E" horiz-adv-x="977" 
d="M470 -4q-33 -10 -70 -8q-51 4 -77 25t-26 69q119 -57 157 -65q12 3 25 14t27 30.5t23.5 35t25.5 43t22 37.5l95 164q82 141 150 194l-75 17q-96 19 -164.5 9.5t-138.5 -46.5q-105 -54 -189.5 -157.5t-118.5 -225t7 -241.5q32 -89 120.5 -128t181 -23t143.5 73
q9 11 12 7.5t-6 -12.5q-40 -46 -111 -67t-146 -14t-145.5 50.5t-104.5 118.5q-38 78 -29 168t49.5 173.5t116 157t170.5 119.5q270 130 469 70l150 -45q88 -26 137.5 -26t75.5 27q12 14 13.5 32.5t-7.5 29.5q-3 3 1 5.5t7 -2.5q22 -35 -7 -71q-37 -45 -145 -45
q-71 0 -167 24l-59 13q-24 -26 -72 -113l-61 -113q129 -10 207 13q-13 -32 -25.5 -45.5t-34.5 -17.5q-46 -6 -157 32l-59 -103q-51 -90 -90 -128q-27 -27 -73 -47q106 -17 201 -14t165 22q126 33 205 161q7 9 9 3q1 -2 -1 -6q-29 -50 -68 -95q-67 -76 -119 -94.5t-147 -18.5
q-134 0 -272 34z" />
    <glyph glyph-name="F" unicode="F" horiz-adv-x="890" 
d="M719 282l-17 -31q-73 -134 -163.5 -211.5t-227.5 -125.5q-83 -28 -166 -29q26 -65 85.5 -103t125 -44t130 13.5t102.5 61.5q9 11 12 7.5t-6 -12.5q-39 -45 -109.5 -66.5t-144 -15t-143.5 48t-106 113.5q-132 12 -194 88q-14 13 -12 34.5t27 30.5q29 -112 171 -135
q-66 156 27 334.5t284 273.5q270 130 469 70l150 -45q88 -26 137.5 -26t75.5 27q12 14 13.5 32.5t-7.5 29.5q-3 3 1 5.5t7 -2.5q22 -35 -7 -71q-37 -45 -145 -45q-71 0 -167 24l-59 13q-24 -26 -72 -113l-61 -113q129 -10 207 13q-13 -32 -25.5 -45.5t-34.5 -17.5
q-46 -6 -157 32zM444 515q-104 -54 -187.5 -155t-118.5 -221t2 -238q92 -2 163 27q42 17 76 35t63.5 44.5t49 46.5t47 61.5t42.5 66.5t48 83l43 76q79 139 150 194l-75 17q-96 19 -164.5 9.5t-138.5 -46.5z" />
    <glyph glyph-name="G" unicode="G" horiz-adv-x="722" 
d="M111 225q33 70 96.5 140t140 124t165.5 82t165 15q37 -7 61 -28t22 -55q0 -25 -22 -49t-51 -24q-21 0 -33 10.5t-9 27.5q2 16 19 27t37 11q10 0 18 -3q13 28 1 44.5t-40 23.5q-40 10 -98.5 -6t-114.5 -49q-94 -56 -171.5 -139.5t-118.5 -172.5q-23 -48 -32 -101t8.5 -107
t69.5 -76q82 -38 198 30.5t219 247.5l20 34q22 40 46.5 52t65.5 12l-134 -243q-90 -161 -213.5 -291t-258.5 -177q-72 -25 -139 -32t-131 12.5t-103 68.5q-15 14 -13 35.5t28 30.5q14 -56 53 -89t90 -40.5t104 -0.5t104 27q177 67 387 434q-55 -60 -133 -105
q-50 -28 -108.5 -38t-117.5 10t-91 74q-57 101 14 253z" />
    <glyph glyph-name="H" unicode="H" horiz-adv-x="994" 
d="M310 -86q-83 -28 -166 -29q26 -65 85.5 -103t125 -44t130 13.5t102.5 61.5q9 11 12 7.5t-6 -12.5q-39 -45 -109.5 -66.5t-144 -15t-143.5 48t-106 113.5q-130 11 -192 88q-14 13 -12 34.5t27 30.5q29 -112 169 -135q-34 78 -23.5 166t51.5 169.5t115.5 154t167.5 118.5
q232 115 484 57q55 23 85.5 8t15.5 -54q-51 18 -87 25q-40 -23 -102 -137l-61 -111h221l60 106q43 77 101 136.5t125 59.5q50 0 64 -37q3 -6 -3 -6q-3 0 -4 4q-21 36 -61 24q-25 -6 -56 -40t-53 -76l-235 -425q-24 -42 7 -37q24 3 64 28q68 44 125 133q7 11 10 4q1 -3 -1 -6
q-38 -66 -94 -116t-114 -64q-42 -9 -59 12q-26 34 14 106l102 179h-221l-19 -36q-73 -134 -163.5 -211.5t-227.5 -125.5zM435 503q-104 -58 -184.5 -154.5t-115.5 -213.5t4 -234q92 -2 163 27q42 17 76 35t63.5 44.5t49 46.5t47 61.5t42.5 66.5t48 83l43 76q48 84 90 135
t94 83q-217 54 -420 -56z" />
    <glyph glyph-name="I" unicode="I" horiz-adv-x="674" 
d="M311 -86q-83 -28 -166 -29q26 -65 85.5 -103t125 -44t130 13.5t102.5 61.5q9 11 12 7.5t-6 -12.5q-39 -45 -109.5 -66.5t-144 -15t-143.5 48t-106 113.5q-132 12 -194 88q-14 13 -12 34.5t27 30.5q29 -112 171 -135q-34 78 -24 166t51.5 169.5t116 154t167.5 118.5
q232 115 484 57q55 23 85.5 8t15.5 -54q-51 18 -87 25q-40 -23 -102 -137l-88 -162q-73 -134 -163.5 -211.5t-227.5 -125.5zM436 503q-104 -58 -184.5 -154.5t-115.5 -213.5t4 -234q92 -2 163 27q42 17 76 35t63.5 44.5t49 46.5t47 61.5t42.5 66.5t48 83l43 76q48 84 90 135
t94 83q-217 54 -420 -56z" />
    <glyph glyph-name="J" unicode="J" horiz-adv-x="645" 
d="M457 8l187 333q53 87 93 136.5t91 81.5q-120 26 -211.5 23t-149.5 -25.5t-85 -60.5q-39 -52 -15.5 -116.5t90.5 -78.5q-10 -21 -24 -35t-32 -17t-36 16q-33 31 -43.5 75t-0.5 84.5t33 72.5q18 25 53.5 46t93.5 38t149 15.5t200 -25.5q55 23 85.5 8t15.5 -54
q-51 18 -87 25q-40 -23 -102 -137l-243 -431l-9 -16q112 -20 156 -45q23 -15 21.5 -32.5t-21.5 -30.5q-35 59 -167 89q-92 -153 -209 -273t-244 -165q-94 -32 -183 -32q-106 0 -172 55t-58 137q12 129 154.5 210.5t354.5 100.5q151 13 297 -4zM39 -479q185 70 391 439
q-135 19 -283 6q-117 -11 -213 -47t-160.5 -101t-74.5 -148q-9 -63 27.5 -112.5t115.5 -63.5q86 -16 197 27z" />
    <glyph glyph-name="K" unicode="K" horiz-adv-x="997" 
d="M310 -86q-83 -28 -166 -29q26 -65 85.5 -103t125 -44t130 13.5t102.5 61.5q9 11 12 7.5t-6 -12.5q-39 -45 -109.5 -66.5t-144 -15t-143.5 48t-106 113.5q-132 12 -194 88q-14 13 -12 34.5t27 30.5q29 -112 171 -135q-34 78 -24 166t51.5 169.5t116 154t167.5 118.5
q232 115 484 57q55 23 85.5 8t15.5 -54q-51 18 -87 25q-40 -23 -102 -137l-56 -103h11q46 0 83.5 15.5t100.5 73.5l99 89q63 57 112.5 86.5t100.5 29.5q50 0 65 -36q1 -3 -0.5 -5t-4.5 -1t-4 3q-6 15 -23 23t-37 2q-24 -6 -44 -21.5t-56 -50.5l-88 -89q-121 -121 -249 -133
q72 -21 91 -128l18 -109q4 -22 11 -31.5t19.5 -5.5t21 9.5t23.5 18.5q54 44 106 123q4 9 8 5q2 -3 -1 -7q-53 -91 -131 -150q-108 -81 -130 42l-16 105q-12 68 -28.5 97.5t-54.5 29.5h-11l-24 -44q-73 -134 -163.5 -211.5t-227.5 -125.5zM435 503q-104 -58 -184.5 -154.5
t-115.5 -213.5t4 -234q92 -2 163 27q42 17 76 35t63.5 44.5t49 46.5t47 61.5t42.5 66.5t48 83l43 76q48 84 90 135t94 83q-217 54 -420 -56z" />
    <glyph glyph-name="L" unicode="L" horiz-adv-x="774" 
d="M487 -15q187 6 285 81q51 39 94 107q7 9 9 3q1 -2 -1 -6q-29 -50 -68 -95q-68 -77 -126.5 -99.5t-150.5 -22.5q-70 0 -174.5 14.5t-160.5 28.5q-33 -10 -70 -8q-51 4 -77 25t-26 69q119 -57 157 -65q12 3 24.5 13t28 31.5t24.5 34.5t28 44t23 38l89 162q74 137 167 208
q38 27 71 41q51 22 100.5 12.5t76.5 -50.5q12 -14 8.5 -34t-30.5 -28q0 52 -37 85.5t-90 10.5q-34 -15 -65 -48t-49 -62t-43 -76l-120 -220q-51 -90 -90 -128q-28 -27 -73 -47q160 -24 266 -19z" />
    <glyph glyph-name="M" unicode="M" horiz-adv-x="1110" 
d="M689 248q-50 -63 -85 -103.5t-92 -94t-107.5 -85.5t-119 -55.5t-139.5 -24.5q36 -85 123.5 -123t178 -22t141.5 73q9 11 12 7.5t-6 -12.5q-39 -45 -109 -66.5t-144 -15.5t-144 47.5t-106 113.5q-133 13 -194 89q-14 13 -12 34.5t27 30.5q32 -112 171 -135
q-35 77 -24.5 165.5t51.5 170.5t115.5 154.5t168.5 117.5q245 116 546 57q55 23 85.5 8t15.5 -54l-67 18q-71 -63 -178 -295q-81 -177 -68 -235q3 -16 14 -13q44 10 130 118q72 87 167.5 216t107.5 144q105 126 204 126q46 0 65 -37q0 -3 -1.5 -5t-4 -1t-3.5 4
q-7 15 -23.5 22.5t-36.5 1.5q-25 -6 -56 -40.5t-53 -75.5l-235 -424q-22 -42 8 -38q23 3 63 28q71 45 126 134q7 9 9 3q1 -2 -1 -6q-39 -66 -95 -117t-113 -62q-42 -11 -59 11q-25 35 15 106l196 350l-130 -175q-41 -56 -86.5 -114t-109 -121.5t-89.5 -59.5q-57 9 -53 97
q7 98 63 208q35 68 66 116q-94 -119 -125 -161zM437 503q-104 -57 -185 -155t-115.5 -214t3.5 -233q82 -2 160.5 27.5t146.5 85t120.5 113t109.5 133.5l110 146q1 2 11.5 15.5l14 18t13.5 17.5t15.5 19t15 17.5t16.5 18.5t16 15.5t17.5 15t16.5 11.5q-281 60 -486 -51z" />
    <glyph glyph-name="N" unicode="N" horiz-adv-x="988" 
d="M394 514q87 43 176 59.5t171.5 5.5t145.5 -68t87 -156l30 53q42 76 101 136t126 60q50 0 64 -37q3 -6 -3 -6q-3 0 -4 4q-21 36 -61 24q-25 -6 -56 -40t-53 -76l-235 -424q-23 -42 7 -38q24 3 64 28q69 44 125 134q7 9 10 3q0 -3 -1 -6q-39 -66 -95 -117t-113 -62
q-44 -11 -59 11q-26 34 14 106l100 177q10 145 -88 229l-144 -263q-72 -134 -163 -211t-229 -126q-83 -28 -166 -29q26 -65 85.5 -103t125 -44t130 13.5t102.5 61.5q9 11 12 7.5t-6 -12.5q-39 -45 -109.5 -66.5t-144 -15t-143.5 48t-106 113.5q-132 12 -194 88
q-14 13 -12 34.5t27 30.5q29 -112 171 -135q-66 156 27 334.5t284 273.5zM436 503q-104 -57 -185 -154.5t-115 -214t4 -233.5q92 -2 163 27q42 17 76 35t63.5 44t50 47.5t46.5 61t42.5 67t48.5 82.5l92 163q51 89 92 110q-52 31 -120.5 33.5t-132.5 -16t-125 -52.5z" />
    <glyph glyph-name="O" unicode="O" horiz-adv-x="793" 
d="M675 571q76 0 126.5 -47.5t50.5 -135.5q2 -103 -81.5 -228t-207.5 -203q-115 -70 -231 -70q-94 0 -163.5 51.5t-77.5 142.5q-10 126 74.5 260.5t212.5 205.5q42 23 89.5 37t99.5 12t88 -26q3 0 10 0.5t10 0.5zM724 431q0 -8 -3 -11t-7 0.5t-4 10.5q-7 85 -59 124
q-106 -15 -190.5 -100t-127.5 -192q-6 -16 -19 -19t-20.5 7.5t-0.5 26.5q42 95 137.5 182.5t199.5 105.5q-45 16 -101 -0.5t-105 -47.5q-120 -81 -194 -199t-76 -239q-2 -85 47 -131.5t132 -46.5q82 0 164.5 49.5t142 123t99.5 157t46 153.5q6 83 -24.5 127.5t-89.5 43.5
q47 -44 53 -125z" />
    <glyph glyph-name="P" unicode="P" horiz-adv-x="924" 
d="M396 514q122 57 246.5 72.5t227.5 -17.5q12 7 41 20q51 22 100.5 12.5t76.5 -50.5q12 -14 8.5 -34t-30.5 -28q0 51 -36.5 84.5t-90.5 11.5q-18 -7 -42 -26q140 -62 146 -158q6 -81 -90.5 -138.5t-274.5 -55.5q-69 -113 -154 -180.5t-211 -112.5q-74 -27 -168 -29
q26 -65 85.5 -103t125 -44t130 13.5t102.5 61.5q9 11 12 7.5t-6 -12.5q-39 -45 -109.5 -66.5t-144 -15t-143.5 48t-106 113.5q-133 13 -194 88q-14 13 -12 34.5t27 30.5q15 -57 60.5 -91t109.5 -44q-34 78 -23 167t52 171t115.5 154t169.5 116zM438 503
q-104 -54 -186 -152.5t-116 -215.5t4 -234q87 -4 165 27q42 17 76 35t63.5 44.5t49 46.5t47 61.5t42.5 66.5t48 83l43 76q83 148 176 214q-94 31 -199.5 17.5t-212.5 -69.5zM792 413l-88 -162q-12 -23 -16 -27q186 -1 258 108q44 70 25.5 125t-92.5 86q-33 -33 -87 -130z
" />
    <glyph glyph-name="Q" unicode="Q" horiz-adv-x="793" 
d="M378 547q42 23 89.5 37t99.5 12t88 -26q3 0 10 0.5t10 0.5q76 0 126.5 -47.5t50.5 -135.5q2 -103 -80.5 -227t-205.5 -202l2 -1q251 -154 298 -181q70 -39 129 -67.5t127 -52t120 -28.5t98.5 12.5t72.5 60.5q38 67 9 144q26 8 39.5 -7.5t10.5 -36.5q-3 -67 -44 -117
q-53 -63 -162.5 -74t-228 23t-215.5 97q-125 81 -278 213q-1 1 -2 1q-107 -58 -210 -58q-94 0 -163.5 51.5t-77.5 142.5q-10 126 74.5 260.5t212.5 205.5zM475 3q-76 -27 -120 -18q11 38 49 44.5t72 -12.5q57 38 116 109.5t91 149.5q34 75 26 159.5t-58 119.5
q-106 -15 -190.5 -100t-127.5 -192q-6 -16 -19 -19t-20.5 7.5t-0.5 26.5q42 95 137.5 182.5t199.5 105.5q-45 16 -101 -0.5t-105 -47.5q-120 -81 -194 -199t-76 -239q-2 -85 47 -131.5t132 -46.5q89 0 186 64q-39 35 -44 37zM696 273q-33 -78 -90.5 -149t-117.5 -113l49 -33
q99 74 169 192t79 215q6 83 -24.5 127.5t-89.5 43.5q33 -30 45.5 -78.5t6.5 -101t-27 -103.5z" />
    <glyph glyph-name="R" unicode="R" horiz-adv-x="985" 
d="M394 514q121 57 246.5 72t227.5 -18q20 12 42 21q51 22 100.5 12.5t76.5 -50.5q12 -14 8.5 -34t-30.5 -28q0 51 -36.5 84.5t-90.5 11.5q-20 -8 -43 -26q60 -25 96 -60t39.5 -76.5t-42.5 -82.5q-23 -21 -75.5 -35t-113.5 -14q62 -27 79 -123l17 -109q4 -22 11.5 -31.5
t20 -5t20.5 9.5t24 18q64 56 104 123q7 11 10 4q1 -3 -1 -6q-55 -92 -132 -150q-108 -81 -130 42l-16 105q-10 62 -29 90.5t-54 32.5l-21 -40q-73 -134 -163.5 -211.5t-227.5 -125.5q-83 -28 -166 -29q26 -65 85.5 -103t125 -44t130 13.5t102.5 61.5q9 11 12 7.5t-6 -12.5
q-39 -45 -109.5 -66.5t-144 -15t-143.5 48t-106 113.5q-132 12 -194 88q-14 13 -12 34.5t27 30.5q29 -112 171 -135q-35 77 -24.5 165.5t51.5 170.5t115.5 154.5t168.5 117.5zM436 503q-104 -56 -185 -154t-115 -214.5t4 -233.5q92 -2 163 27q42 17 76 35t63.5 44.5t49 46.5
t47 61.5t42.5 66.5t48 83l43 76q50 84 90 133.5t86 80.5q-93 32 -199.5 18.5t-212.5 -70.5zM781 399l-48 -90q71 -8 125 10t80 46q44 50 28 97.5t-89 79.5q-43 -45 -96 -143z" />
    <glyph glyph-name="S" unicode="S" horiz-adv-x="737" 
d="M424 -134q76 27 131 81.5t74 115.5q29 92 -14 251q-15 54 -18.5 97.5t3 72t20 50.5t32 32t38.5 17t41 5.5t38 -2.5q39 -7 65.5 -28t26.5 -55q0 -26 -22 -49.5t-53 -23.5q-21 0 -34 10.5t-11 27.5q2 16 19.5 27t38.5 11q11 0 19 -3q15 26 1 44.5t-44 23.5q-35 5 -66.5 -5
t-43.5 -30q-16 -26 -17 -55t6 -54t28 -89q29 -88 32 -148t-23 -122q-32 -67 -98.5 -129.5t-155.5 -88.5q-74 -19 -143 -17t-129 35t-92 91q-27 53 -27.5 113.5t31.5 124.5t90 111q51 41 117 61t132 0.5t96 -87.5q30 -66 -6 -149.5t-108 -122.5q-20 -14 -41.5 -7t-25.5 36
q101 18 151 90.5t16 151.5q-24 56 -77.5 67.5t-110.5 -13.5t-102 -70q-60 -58 -85 -139.5t4 -159.5q33 -81 120 -108t177 8z" />
    <glyph glyph-name="T" unicode="T" horiz-adv-x="711" 
d="M720 282l-17 -31q-73 -134 -163.5 -211.5t-227.5 -125.5q-83 -28 -166 -29q36 -85 123.5 -123t178 -22t141.5 73q9 11 12 7.5t-6 -12.5q-39 -45 -109.5 -66.5t-144 -15t-143.5 48t-106 113.5q-132 12 -194 88q-14 13 -12 34.5t27 30.5q29 -112 171 -135q-66 156 27 334.5
t284 273.5q270 130 469 70l150 -45q88 -26 137.5 -26t75.5 27q12 14 13.5 32.5t-7.5 29.5q-3 3 1 5.5t7 -2.5q22 -35 -7 -71q-37 -45 -145 -45q-71 0 -167 24l-59 13q-24 -26 -72 -113zM445 515q-104 -54 -187.5 -155t-118.5 -221t2 -238q92 -2 163 27q42 17 76 35
t63.5 44.5t49 46.5t47 61.5t42.5 66.5t48 83l43 76q79 139 150 194l-75 17q-96 19 -164.5 9.5t-138.5 -46.5z" />
    <glyph glyph-name="U" unicode="U" horiz-adv-x="899" 
d="M418 489q-94 -52 -172.5 -150t-113.5 -215.5t5 -232.5q32 -89 120.5 -128t181 -23t143.5 73q9 11 12 7.5t-6 -12.5q-39 -46 -110.5 -67t-146.5 -14t-145.5 51t-104.5 118q-51 121 -14.5 242t125.5 220.5t202 155.5q175 87 392 57q55 23 85.5 8t15.5 -54q-37 15 -88 25
q-27 -19 -89 -103.5t-121 -202.5q-44 -86 -63 -149t-16.5 -91t18.5 -34q33 -13 127.5 67t156.5 187l105 184q18 33 39.5 63.5t51 62.5t65 51t70.5 19q50 0 64 -37q2 -5 -2 -6t-6 4q-7 15 -24 22.5t-36 1.5q-25 -6 -55.5 -39.5t-54.5 -76.5l-236 -425q-23 -41 6 -37
q23 3 64 28q70 45 126 133q7 10 9 5q1 -3 -1 -7q-38 -66 -93.5 -116t-113.5 -64q-44 -9 -59 12q-22 29 5 87q-50 -52 -116.5 -97t-105.5 -40q-70 10 -64.5 104t83.5 232q95 171 227 269q-181 23 -342 -68z" />
    <glyph glyph-name="V" unicode="V" horiz-adv-x="875" 
d="M760 557q-181 23 -342 -68q-94 -52 -172.5 -150t-113.5 -215.5t5 -232.5q32 -89 120.5 -128t181 -23t143.5 73q9 11 12 7.5t-6 -12.5q-39 -46 -110.5 -67t-146.5 -14t-145.5 51t-104.5 118q-51 121 -14.5 242t125.5 220.5t202 155.5q175 87 392 57q55 23 85.5 8t15.5 -54
q-37 15 -88 25q-27 -19 -89 -103.5t-121 -202.5q-44 -87 -63.5 -150t-17 -91.5t19.5 -32.5q38 -10 96 24.5t115 93t105 118.5t81 111q75 120 113 264q7 26 29 26q18 0 20 -18q1 -7 -1 -14q-30 -96 -139 -261q-37 -56 -86.5 -116t-110.5 -121t-124.5 -96.5t-111.5 -28.5
q-70 12 -64.5 105t83.5 231q95 171 227 269z" />
    <glyph glyph-name="W" unicode="W" horiz-adv-x="1074" 
d="M786 571q55 23 85.5 8t15.5 -54q-37 15 -88 25q-27 -19 -89 -103.5t-121 -202.5q-44 -87 -63.5 -149.5t-17 -91t19.5 -33.5q4 -1 9.5 0.5t12 6.5t13 10.5t14.5 14.5t14 16t14 17.5t13 16.5t12.5 16t9.5 13q50 69 149.5 213.5t138.5 196.5q57 78 89 30q10 -15 12.5 -34.5
t-4 -46.5t-12.5 -46t-23 -54.5t-25 -50.5t-29 -55q-74 -134 -97.5 -188.5t-3.5 -56.5q33 -4 94.5 62.5t112.5 141t84 133.5q80 140 111 255q7 26 29 26q18 0 20 -18q1 -7 -1 -14q-21 -66 -134 -250q-28 -46 -64.5 -99t-83.5 -113.5t-93 -100t-76 -39.5q-25 0 -37.5 14.5
t-10.5 39.5t8.5 53t21 62t26.5 58t25 48q39 71 51.5 94.5t34 66.5t29 63.5t8.5 34.5q1 25 -21 7q-12 -9 -26 -29q-26 -35 -127.5 -184.5t-159.5 -224.5q-56 -74 -85 -101.5t-57 -22.5q-70 12 -64.5 105t83.5 231q95 171 227 269q-181 23 -342 -68q-94 -52 -172.5 -150
t-113.5 -215.5t5 -232.5q32 -89 120.5 -128t181 -23t143.5 73q9 11 12 7.5t-6 -12.5q-39 -46 -110.5 -67t-146.5 -14t-145.5 51t-104.5 118q-51 121 -14.5 242t125.5 220.5t202 155.5q175 87 392 57z" />
    <glyph glyph-name="X" unicode="X" horiz-adv-x="809" 
d="M716 571q55 23 85.5 8t15.5 -54q-22 8 -97 25q-58 -47 -90.5 -168.5t-14.5 -227.5q250 241 352 430q13 24 33 17q18 -6 10 -25q-2 -5 -5 -9q-159 -227 -386 -432q38 -154 127 -116q46 23 85 64q42 44 70 89q6 9 9 5q1 -2 -2 -7q-53 -92 -136 -151q-40 -27 -74.5 -33
t-60.5 7t-44.5 36t-31.5 55q-71 -62 -157 -117q-123 -78 -259 -82q26 -65 85.5 -103t125 -44t130 13.5t102.5 61.5q9 11 12 7.5t-6 -12.5q-39 -45 -109 -66.5t-144 -15.5t-144 47.5t-106 113.5q-133 13 -194 89q-14 13 -12 34.5t27 30.5q32 -112 171 -135q-34 78 -24 166
t51.5 169.5t116 154t167.5 118.5q73 35 160.5 50t161.5 7zM436 503q-103 -58 -184 -155t-116.5 -213.5t3.5 -233.5q130 -4 257 77q64 41 160 122q-32 119 9 248.5t135 205.5q-56 9 -128.5 -4.5t-135.5 -46.5z" />
    <glyph glyph-name="Y" unicode="Y" horiz-adv-x="879" 
d="M152 -134q-47 31 -71 79.5t-22.5 102t17.5 112.5q33 107 117 202.5t200 151.5q75 37 180 53t212 4q55 23 85.5 8t15.5 -54q-37 15 -88 25q-27 -19 -89 -103.5t-121 -202.5q-44 -86 -63 -149t-16.5 -91t18.5 -34q33 -13 129 67t155 187l88 158q120 216 254 222
q78 5 135 -44q56 -48 61 -112q0 -8 -4 -4q-2 1 -3 4q-12 65 -65.5 107t-115.5 28q-23 -5 -47 -22t-40.5 -34.5t-38 -49.5t-29.5 -46.5t-26 -45.5l-185 -333q-90 -161 -213.5 -291t-258.5 -177q-72 -25 -139 -32t-131 12.5t-103 68.5q-15 14 -13 35.5t28 30.5q14 -56 53 -89
t90 -40.5t104 -0.5t104 27q80 31 163.5 116.5t144.5 179t111 197.5q-50 -52 -116.5 -97t-105.5 -40q-70 10 -64.5 104t83.5 232q95 171 227 269q-133 16 -261.5 -31.5t-220.5 -146.5q-95 -101 -135 -222q-64 -194 33 -274q37 -31 90.5 -31.5t104.5 28.5q9 6 9 0q1 -4 -4 -7
q-50 -31 -110.5 -34.5t-112.5 27.5z" />
    <glyph glyph-name="Z" unicode="Z" horiz-adv-x="696" 
d="M419 302h60q129 140 234 179q-9 2 -44 11l-168 52q-95 26 -135 23q-41 -2 -63.5 -27t-21.5 -56.5t14 -63.5q31 -63 85 -74q-12 -20 -26 -32.5t-32.5 -15t-36.5 16.5q-51 56 -43 127q9 69 61 115q88 82 255 28l172 -59q116 -42 154 0q12 14 13.5 32.5t-7.5 29.5q-3 4 2 6
q3 1 5 -3q10 -14 9 -34t-15 -37q-42 -51 -121 -46q-45 -9 -123 -92l-77 -80h55q10 0 6 -8q-3 -7 -13 -7h-62l-137 -143q-47 -49 -109.5 -87.5t-108.5 -51.5q105 -17 209 -14t173 22q126 33 205 161q7 9 9 3q1 -2 -1 -6q-29 -50 -68 -95q-67 -76 -119 -94.5t-147 -18.5
q-155 0 -287 33q-39 -9 -73 -8q-50 4 -76 25t-26 69q101 -49 156 -65q28 6 73 37t91 79l145 154h-51q-10 0 -7 8q2 7 12 7z" />
    <glyph glyph-name="bracketleft" unicode="[" 
d="M458 571l-471 -846h71q11 0 11 -8q-3 -11 -17 -13h-150l495 888h148q11 0 11 -8q-3 -11 -17 -13h-81z" />
    <glyph glyph-name="backslash" unicode="\" horiz-adv-x="229" 
d="M278 512h29l-185 -550h-29z" />
    <glyph glyph-name="bracketright" unicode="]" 
d="M-55 -275l472 846h-71q-11 0 -11 8q4 11 18 13h149l-496 -888h-148q-10 0 -11 8q4 11 18 13h80z" />
    <glyph glyph-name="asciicircum" unicode="^" horiz-adv-x="332" 
d="M104 267l177 218q4 0 16 0.5t15 0t11 -2t10 -4.5t7 -8t7.5 -13.5t4.5 -20.5l33 -170q-12 0 -17.5 1.5t-14 11t-16.5 28.5l-41 106l-124 -115q-37 -32 -68 -32z" />
    <glyph glyph-name="underscore" unicode="_" horiz-adv-x="425" 
d="M-20 0h416l-13 -24h-415z" />
    <glyph glyph-name="grave" unicode="`" horiz-adv-x="193" 
d="M303 358l-76 33q-34 18 -33.5 37t26.5 30l89 -96q4 -5 -1 -5q-2 0 -5 1z" />
    <glyph glyph-name="a" unicode="a" horiz-adv-x="337" 
d="M262 308q38 -7 32 -61q20 34 43.5 44.5t63.5 10.5l-140 -253q-23 -40 -1 -37q17 3 56 31q64 48 113 132q2 4 5 4t4 -2.5t-1 -5.5q-47 -80 -107 -131.5t-103 -51.5q-19 0 -29.5 18t-2.5 51q-58 -69 -113 -69q-34 1 -46.5 26t-5.5 60.5t28 73.5t51 74.5t73 64t80 21.5z
M266 285q-20 0 -59 -39t-71 -97q-63 -114 -37 -136q5 -4 13 -4q20 0 56.5 39.5t70.5 100.5q57 102 39 130q-4 6 -12 6z" />
    <glyph glyph-name="b" unicode="b" horiz-adv-x="318" 
d="M109 0q21 0 63 44t75 104q22 39 31 71t5.5 48.5t-17.5 16.5q-20 0 -51 -34t-63 -91l-7 -11q-60 -111 -47 -141q3 -7 11 -7zM79 168l73 133q218 383 452 468q235 84 341 -49q14 -13 12.5 -36t-27.5 -30q-14 56 -48 89t-79 40.5t-93 0.5t-99 -27q-57 -22 -109.5 -67
t-107.5 -124t-80.5 -121t-80.5 -140q-14 -24 -20 -35l-7 -12q50 51 96 50q50 -2 53.5 -53.5t-30.5 -106.5q-35 -65 -104 -112.5t-123 -47.5q-22 0 -36.5 11t-20 32t3.5 56.5t34 80.5z" />
    <glyph glyph-name="c" unicode="c" horiz-adv-x="294" 
d="M270 308q46 -1 63.5 -30t0 -57.5t-55.5 -28.5q-16 1 -25.5 10t-7.5 23q3 18 21.5 28t38.5 5q8 19 1 27.5t-25 9.5q-36 2 -73.5 -34.5t-65.5 -83.5q-21 -31 -31 -59q-33 -75 7 -100q36 -18 77 -7t83 41q62 50 108 123q2 4 5 4t4 -2.5t-1 -5.5q-49 -83 -109 -129
q-93 -73 -186 -47q-41 11 -57.5 51.5t9.5 106.5q29 65 89.5 110t129.5 45z" />
    <glyph glyph-name="d" unicode="d" horiz-adv-x="346" 
d="M266 285q-20 0 -59 -39t-71 -97q-63 -114 -37 -136q5 -4 13 -4q20 0 56.5 39.5t70.5 100.5q57 102 39 130q-4 6 -12 6zM294 248l29 53q218 383 452 468q235 84 341 -49q14 -13 12.5 -36t-27.5 -30q-14 56 -48 89t-79 40.5t-93 0.5t-99 -27q-57 -22 -109.5 -67
t-107.5 -124t-80.5 -121t-80.5 -140q-14 -24 -20 -35l-123 -221q-23 -40 3 -38q25 2 61 32q69 58 113 132q2 4 5 4t4 -2.5t-1 -5.5q-44 -76 -121 -143q-14 -10 -29.5 -19t-36 -17t-38 -4.5t-25.5 20.5q-10 22 -1 48q-59 -68 -113 -68q-34 1 -46.5 26t-5.5 60.5t28 73.5
t51 74.5t73 64t80 21.5q39 -6 32 -60z" />
    <glyph glyph-name="e" unicode="e" horiz-adv-x="293" 
d="M261 296q-20 0 -53.5 -33.5t-66.5 -85.5q-9 -13 -27 -47q97 21 144 99q11 19 15.5 34.5t1 24t-13.5 8.5zM50 153q29 65 89.5 110t129.5 45q44 0 62 -23.5t-6 -67.5q-24 -37 -85 -62.5t-131 -36.5q-33 -74 8 -100q59 -37 161 34q63 51 107 123q2 4 5 4t4 -2.5t-1 -5.5
q-48 -82 -110 -129q-93 -73 -185 -47q-41 11 -57.5 51.5t9.5 106.5z" />
    <glyph glyph-name="f" unicode="f" horiz-adv-x="215" 
d="M8 26l144 261h-48q-10 0 -7 8q2 7 12 7h51q218 382 451 467q235 84 341 -49q14 -13 12.5 -36t-27.5 -30q-14 56 -48 89t-79 40.5t-93 0.5t-99 -27q-46 -18 -93 -56.5t-82 -78.5t-77.5 -104.5t-66.5 -105.5t-62 -110h75q9 0 9 -7q-1 -8 -13 -8h-79l-162 -292
q-215 -387 -450 -468q-235 -84 -341 49q-15 14 -13 35.5t28 30.5q14 -56 48 -89t79 -40.5t93 -0.5t99 27q57 22 109.5 67t107.5 124t80.5 121t80.5 140q14 24 20 35z" />
    <glyph glyph-name="g" unicode="g" horiz-adv-x="325" 
d="M402 302l-169 -307q-46 -80 -91 -146t-101.5 -133t-122.5 -116t-135 -73q-235 -84 -341 49q-15 14 -13 35.5t28 30.5q14 -56 48 -89t79 -40.5t93 -0.5t99 27q31 12 62.5 34t57 45t55 59.5t49.5 63.5t49 73t43.5 71t42.5 74t39 67l11 19q-56 -61 -101 -57
q-50 4 -53.5 54.5t29.5 105.5q36 64 93 116.5t111 43.5q37 -7 31 -61q20 34 43.5 44.5t63.5 10.5zM268 285q-20 0 -59 -39t-71 -97q-66 -118 -36 -137q4 -3 11 -3q20 0 57 40t71 100q54 98 40 128q-4 8 -13 8z" />
    <glyph glyph-name="h" unicode="h" 
d="M213 270l-20 -35q75 73 127 73q16 0 26.5 -12t8.5 -40.5t-23 -67.5l-77 -139q-23 -40 -1 -37q17 3 56 31q65 50 113 132q2 4 5 4t4 -2.5t-1 -5.5q-47 -80 -107 -131.5t-103 -51.5q-16 0 -26.5 11.5t-8 40t23.5 68.5l77 138q24 41 0 38q-21 -2 -58 -33q-44 -35 -71 -79
l-100 -178q-17 0 -29 7t-16.5 24.5t12.5 46.5l127 229q218 383 452 468q235 84 341 -49q14 -13 12.5 -36t-27.5 -30q-14 56 -48 89t-79 40.5t-93 0.5t-99 -27q-57 -22 -109.5 -67t-107.5 -124t-80.5 -121t-80.5 -140q-14 -24 -20 -35z" />
    <glyph glyph-name="i" unicode="i" horiz-adv-x="165" 
d="M189 392q2 15 17.5 26t32.5 11t27.5 -11t8.5 -26q-3 -16 -17.5 -26.5t-31.5 -10.5t-28 10.5t-9 26.5zM45 108l107 194q17 0 29 -7t17 -24.5t-12 -46.5l-97 -175q-24 -41 0 -37q18 4 56 31q65 50 113 132q2 4 4.5 4t3.5 -2.5t-1 -5.5q-47 -80 -107 -131.5t-103 -51.5
q-16 0 -26.5 12t-8 40.5t24.5 67.5z" />
    <glyph glyph-name="j" unicode="j" horiz-adv-x="153" 
d="M188 392q3 15 18 26t32 11t28 -11t9 -26q-4 -16 -18.5 -26.5t-31.5 -10.5t-28 10.5t-9 26.5zM186 224l-127 -229q-215 -387 -450 -468q-235 -84 -341 49q-15 14 -13 35.5t28 30.5q14 -56 48 -89t79 -40.5t93 -0.5t99 27q46 18 91.5 55t81.5 79.5t75.5 101.5t66.5 105.5
t61 107.5q14 26 21 38l153 276q17 0 29 -7t17 -24.5t-12 -46.5z" />
    <glyph glyph-name="k" unicode="k" horiz-adv-x="340" 
d="M25 72l127 229q218 383 452 468q235 84 341 -49q14 -13 12.5 -36t-27.5 -30q-14 56 -48 89t-79 40.5t-93 0.5t-99 -27q-57 -22 -109.5 -67t-107.5 -124t-80.5 -121t-80.5 -140q-14 -24 -20 -35l-45 -79q69 56 128 89.5t84 24.5q26 -11 15.5 -38t-55.5 -64
q-20 -18 -82 -58l10 -65q6 -35 13.5 -45.5t20 -4t38.5 31.5q57 49 92 113q2 4 5 4t4 -2.5t-1 -5.5q-40 -62 -71 -96q-34 -37 -65 -59q-31 -23 -49.5 -29.5t-30.5 7t-18 34t-14 66.5l-10 61q71 38 116 69t58.5 46t10.5 21q-9 14 -101 -44q-69 -47 -121 -99l-87 -154
q-17 0 -29 7t-16.5 24.5t12.5 46.5z" />
    <glyph glyph-name="l" unicode="l" horiz-adv-x="175" 
d="M213 270l-124 -221q-22 -39 3 -38q25 2 60 32q71 58 115 132q4 6 7 3.5t1 -7.5q-50 -84 -123 -143q-12 -10 -28.5 -19t-36 -16.5t-37 -4t-25.5 19.5q-18 31 20 100l107 193q218 383 452 468q235 84 341 -49q14 -13 12.5 -36t-27.5 -30q-14 56 -48 89t-79 40.5t-93 0.5
t-99 -27q-57 -22 -109.5 -67t-107.5 -124t-80.5 -121t-80.5 -140q-14 -24 -20 -35z" />
    <glyph glyph-name="m" unicode="m" horiz-adv-x="497" 
d="M375 108l77 138q24 42 0 38q-19 -3 -57 -33q-37 -29 -72 -78l-98 -179q-17 0 -29 7t-17 24.5t12 46.5l96 174q24 41 0 38q-21 -2 -58 -33q-42 -33 -72 -79l-99 -178q-17 0 -29 7t-16.5 24.5t12.5 46.5l127 230q15 0 27 -7t18 -22.5t-8 -41.5q77 77 131 77q21 0 30.5 -20
t-2.5 -63l7 6q77 77 131 77q9 0 17 -4.5t13 -14t6.5 -23t-5 -34t-20.5 -44.5l-76 -139q-26 -46 3 -36q18 6 51 30q62 46 113 132q7 8 10 2q1 -2 -2 -6q-47 -80 -106.5 -131.5t-103.5 -51.5q-16 0 -26.5 12t-8 40.5t23.5 67.5z" />
    <glyph glyph-name="n" unicode="n" 
d="M423 175q2 4 5 4t4 -2.5t-1 -5.5q-47 -80 -107 -131.5t-103 -51.5q-16 0 -26.5 11.5t-8 40t23.5 68.5l77 138q24 41 0 38q-21 -2 -58 -33q-42 -33 -72 -79l-99 -178q-17 0 -29 7t-16.5 24.5t12.5 46.5l127 230q15 0 27 -7t18 -22.5t-8 -41.5q77 77 131 77q16 0 26.5 -12
t8.5 -40.5t-23 -67.5l-77 -139q-23 -40 -1 -37q17 3 56 31q65 50 113 132z" />
    <glyph glyph-name="o" unicode="o" horiz-adv-x="325" 
d="M318 148q-49 -86 -114 -129q3 -3 7 -4q19 -7 46.5 2.5t47.5 25.5q71 55 113 132q2 4 4.5 4t3.5 -2.5t-1 -5.5q-51 -87 -111 -136q-67 -53 -120 -47q-19 2 -31 10q-33 -11 -65 -11q-43 0 -60.5 22t-11 57t31.5 82q41 71 98 115.5t120 44.5q64 0 73 -46.5t-31 -113.5z
M105 0q16 0 40 18q-10 24 10.5 46t57.5 24q54 73 75 139t-20 66q-24 0 -63.5 -42t-73.5 -103q-55 -101 -42 -137q5 -11 16 -11z" />
    <glyph glyph-name="p" unicode="p" horiz-adv-x="316" 
d="M86 49l-30 -55q-210 -385 -447 -467q-235 -84 -341 49q-15 14 -13 35.5t28 30.5q14 -56 48 -89t79 -40.5t93 -0.5t99 27q46 18 91.5 55t81.5 79.5t75.5 101.5t66.5 105.5t61 107.5q14 26 21 38l153 276q21 0 35.5 -13.5t8.5 -38.5q53 59 104 58q51 -2 54 -53.5
t-30 -106.5q-21 -38 -51 -74.5t-73 -64t-80 -21.5q-40 7 -34 61zM114 12q22 0 60.5 38.5t70.5 97.5q22 39 31 71t6 48.5t-17 16.5q-21 0 -54.5 -37.5t-67.5 -98.5q-64 -118 -37 -134q3 -2 8 -2z" />
    <glyph glyph-name="q" unicode="q" horiz-adv-x="325" 
d="M266 285q-20 0 -59 -39t-71 -97q-63 -114 -37 -136q5 -4 13 -4q20 0 56.5 39.5t70.5 100.5q57 102 39 130q-4 6 -12 6zM-9 -450q-3 2 -14 7.5t-15 8.5t-11 10.5t-8 14.5t1.5 19t10.5 26l228 409q-56 -61 -101 -57q-50 4 -53.5 54.5t29.5 105.5q21 38 51 74.5t73 64
t80 21.5q38 -7 32 -61q20 34 43.5 44.5t63.5 10.5l-385 -701q88 88 270 258q6 6 9 2q2 -4 -2 -8q-31 -31 -83 -81t-81.5 -79t-68 -68.5t-69.5 -74.5z" />
    <glyph glyph-name="r" unicode="r" horiz-adv-x="255" 
d="M155 -12q-16 0 -26.5 12t-7 40t25.5 67l39 69q13 20 11.5 39t-24.5 36l-17 12q-56 -104 -112 -170q-5 -6 -8 -3t2 8q57 75 106 175q-20 20 -14 44t28 44t42 20q-19 -66 -38 -106l45 -34q31 -26 37 -47q11 -33 -14 -77l-40 -68q-26 -47 -1 -38q15 6 45 30q63 49 113 134
q2 4 5 4t4 -2.5t-1 -5.5q-35 -61 -79 -106q-75 -77 -121 -77z" />
    <glyph glyph-name="s" unicode="s" horiz-adv-x="266" 
d="M165 116l-25 63q-20 49 6.5 91t95.5 38q33 -2 52.5 -18t22.5 -39q3 -24 -14 -41.5t-41 -17.5q-16 0 -26 9.5t-8 23.5q3 15 16 24.5t29 9.5q4 0 14 -2q3 31 -30 39q-34 9 -56 -13q-15 -14 -13 -36q2 -21 23.5 -68t26.5 -65q22 -70 -47 -109q-49 -27 -103 -13
q-46 12 -65 55.5t4 89.5q9 19 32 32.5t47 10.5q-32 -54 -78 -106q6 -36 34.5 -55t62.5 -11q32 7 44.5 34.5t-4.5 73.5z" />
    <glyph glyph-name="t" unicode="t" horiz-adv-x="224" 
d="M109 302h51q218 382 451 467q235 84 341 -49q14 -13 12.5 -36t-27.5 -30q-14 56 -48 89t-79 40.5t-93 0.5t-99 -27q-46 -18 -93 -56.5t-81.5 -78.5t-77.5 -105t-66 -105t-62 -110h77q10 0 6 -8q-3 -7 -13 -7h-79l-105 -193q-40 -70 -16 -80q18 -8 59 12q85 41 150 149
q4 6 7 3.5t1 -7.5q-64 -105 -151 -157q-51 -29 -89.5 -24t-44.5 44t35 114l77 139h-48q-10 0 -7 8q2 7 12 7z" />
    <glyph glyph-name="u" unicode="u" 
d="M196 75q-35 -35 -75 -61t-65 -26q-16 0 -26.5 12t-8.5 40.5t24 67.5l107 194q17 0 29 -7t16 -24t-13 -46l-97 -175q-21 -38 0 -36t63 37q43 34 74 77l60 109q22 41 46 53t65 12l-140 -253q-23 -40 -1 -37q17 3 56 31q65 50 113 132q2 4 5 4t4 -2.5t-1 -5.5
q-47 -80 -107 -131.5t-103 -51.5q-22 0 -30 21t5 66z" />
    <glyph glyph-name="v" unicode="v" horiz-adv-x="310" 
d="M238 54q-51 -43 -109 -59.5t-86 2.5q-47 29 9 125l100 180q17 0 29 -7t17 -24t-12 -46l-98 -177q-3 -4 -6 -11t-5.5 -16t0 -15t10.5 -6q37 0 87.5 51t81.5 116q27 58 31.5 114t-16.5 90q-4 7 -1 7q5 1 10 -4q70 -76 56 -162t-98 -158z" />
    <glyph glyph-name="w" unicode="w" horiz-adv-x="463" 
d="M390 54q-70 -58 -137 -66q-21 -2 -34 11t-12.5 30.5t5.5 32.5q-42 -44 -91.5 -64t-77.5 -1q-45 31 9 125l100 180q17 0 29 -7t16 -24t-13 -46l-97 -175q-3 -4 -5.5 -10.5t-4.5 -14.5t0.5 -13.5t10.5 -5.5q25 0 67 46.5t70 95.5l82 148q17 0 28.5 -6.5t16.5 -23.5t-12 -47
l-95 -171q-2 -4 -5 -11t-5.5 -16t0 -15t10.5 -6q36 0 84 50.5t79 116.5q27 58 31.5 114t-16.5 90q-4 7 -1 7q5 1 10 -4q70 -76 56 -162t-98 -158z" />
    <glyph glyph-name="x" unicode="x" horiz-adv-x="320" 
d="M401 345q-42 -76 -161 -210l8 -68q5 -39 11.5 -43t38.5 19q71 55 114 132q4 7 8 3q2 -3 -1 -7q-30 -53 -70 -96q-29 -33 -71 -64t-69 -23q-14 4 -19.5 20t-11.5 60q-147 -151 -200 -183q-17 -12 -23 2t10 22q91 49 210 173l-20 168q-1 11 -4 12q-2 0 -18 -32q-2 -3 -3 -5
q-2 -4 -14.5 -27.5t-20.5 -34.5q-5 -6 -7.5 -3.5t0.5 8.5q41 70 57 128l27 6q22 6 35 -2t18 -37l13 -112q99 119 134 200q6 15 21 14q14 -3 8 -20z" />
    <glyph glyph-name="y" unicode="y" horiz-adv-x="318" 
d="M167 26l28 49q-35 -35 -74.5 -61t-64.5 -26q-16 0 -26.5 12t-8.5 40.5t24 67.5l107 194q17 0 29 -7t16 -24t-13 -46l-97 -175q-21 -38 0 -36t63 37q43 34 74 77l60 109q22 41 46 53t65 12l-169 -307q-215 -387 -450 -468q-235 -84 -341 49q-15 14 -13 35.5t28 30.5
q14 -56 48 -89t79 -40.5t93 -0.5t99 27q28 11 55 27.5t53.5 42t47.5 46.5t47.5 58t42.5 58.5t43 66t37.5 62.5t38 66.5t33.5 59.5z" />
    <glyph glyph-name="z" unicode="z" horiz-adv-x="284" 
d="M23 -2q29 46 88.5 91.5t112 81.5t66.5 60q-11 -7 -28.5 -7.5t-47.5 3.5t-38 5q-17 1 -26 -0.5t-12.5 -5t-10.5 -12.5l-29 -47q-5 -9 -9 -3q-2 3 1 7q2 3 9.5 19.5t14.5 31t8 18.5q19 44 25 49q7 7 34 7q9 0 51.5 -6.5t77 -6.5t46.5 13q6 8 9 6t0 -10q-28 -47 -86.5 -93
t-112 -82.5t-67.5 -58.5q6 4 13 6t12 2.5t15.5 -1.5t14.5 -3t18 -5t18 -5q27 -8 53 -6.5t47 22.5q51 46 86 107q2 4 5 4t4 -2.5t-1 -5.5q-62 -104 -138 -161q-25 -17 -42 -20t-47 4q-6 1 -20.5 3.5t-22 4t-19.5 3t-20 1.5t-16.5 -1t-14.5 -3.5t-10 -7.5t-7.5 -6t-4.5 2t1 8z
" />
    <glyph glyph-name="braceleft" unicode="{" 
d="M77 -305q-52 -6 -78.5 24t-23.5 77.5t30 94.5l89 158q59 101 9 111q-5 1 -6.5 4t1 5t5.5 2q58 0 106 84l86 153q108 196 222 196q21 0 39 -10.5t25 -26.5q2 -5 -2 -6t-6 4q-7 15 -24 22.5t-37 1.5q-24 -6 -55 -40.5t-53 -75.5l-122 -218q-46 -82 -124 -107
q42 -39 -13 -139l-90 -158q-44 -80 -37.5 -116.5t58.5 -32.5q7 1 7 -4q-1 -2 -6 -3z" />
    <glyph glyph-name="bar" unicode="|" horiz-adv-x="351" 
d="M210 512h24v-550h-24v550z" />
    <glyph glyph-name="braceright" unicode="}" 
d="M325 603q51 7 77 -23t23.5 -77.5t-28.5 -95.5l-90 -159q-59 -101 -8 -111q5 -1 6.5 -3.5t-0.5 -4.5t-6 -2q-59 0 -106 -85l-86 -153q-108 -195 -222 -195q-46 0 -64 37q-2 5 2 5.5t6 -3.5q7 -15 23.5 -22.5t36.5 -2.5q26 8 56 41.5t53 75.5l122 217q47 85 124 108
q-45 42 13 138l90 159q44 81 37 117t-59 31q-3 0 -5 2t-0.5 4t5.5 2z" />
    <glyph glyph-name="asciitilde" unicode="~" horiz-adv-x="353" 
d="M198 117q-39 29 -60 27.5t-60 -38.5q-14 -11 -16 -2q0 5 6 11q22 28 49 51q33 28 56 31.5t56 -17.5q41 -29 60.5 -27.5t60.5 38.5q7 5 11 5t3.5 -5t-4.5 -9q-33 -37 -49 -51q-33 -28 -56 -31.5t-57 17.5z" />
    <glyph glyph-name="exclamdown" unicode="&#xa1;" horiz-adv-x="305" 
d="M386 423q-3 -15 -20 -26.5t-36 -11.5t-31.5 11t-9.5 27q3 17 19.5 28t35.5 11q20 0 32 -11t10 -28zM109 94l182 252q3 4 7.5 4.5t5.5 -2t-2 -8.5l-120 -282q-42 -90 -87 -66q-42 23 14 102z" />
    <glyph glyph-name="cent" unicode="&#xa2;" horiz-adv-x="316" 
d="M165 164l33 61q-56 11 -56 59q0 67 65 131t135 70l20 40q5 8 13 8q5 0 6.5 -5t-1.5 -11l-18 -32q28 -5 44 -26t10 -47q-6 -30 -46 -30q-18 0 -28 6q10 9 18.5 27t8.5 35q0 19 -14 23l-128 -235q65 -5 130 61q11 13 14 6q1 -3 -3 -9q-28 -34 -71 -56t-79 -18l-35 -65
q-5 -9 -12 -9q-12 0 -6 16zM224 354q-19 -39 -24 -68t9 -42l124 227q-25 -11 -57.5 -44t-51.5 -73z" />
    <glyph glyph-name="sterling" unicode="&#xa3;" horiz-adv-x="362" 
d="M340 335h-46q-38 -63 -112 -92q87 -24 150 -1q40 16 81 57q10 12 14 7q1 -4 -4 -10q-3 -4 -20 -25t-23 -26.5t-19.5 -17.5t-25 -16t-25.5 -4q-58 0 -143 30q-32 -10 -51.5 1.5t-14.5 42.5q37 -24 61 -30q24 6 70 84h-38q-9 0 -9 6q3 9 15 11h42l15 26q62 108 150 108
q31 0 51.5 -23t14.5 -51q-11 -30 -46 -30q-18 0 -30 6q10 9 19 27.5t9 34.5q0 23 -21 23q-18 0 -34.5 -21t-64.5 -100h40q9 0 10 -6q-3 -9 -15 -11z" />
    <glyph glyph-name="currency" unicode="&#xa4;" horiz-adv-x="362" 
d="M237 223q-49 0 -59 39l-58 -37q-6 -3 -12 -1.5t-6 7.5t9 11l64 41q0 39 23.5 80t61.5 72l-19 41q-3 10 -0.5 15t9 4t10.5 -9l17 -38q50 37 100 37q47 0 57 -37l53 34q7 4 12.5 2t5 -8t-8.5 -11l-58 -37v-3q0 -39 -23.5 -80t-60.5 -72l19 -43q4 -10 1.5 -15t-9 -4t-10.5 9
l-18 40q-50 -37 -100 -37zM257 352q-30 -50 -30 -95q0 -22 14 -22q20 0 56 36t61 84q29 52 29 97q0 21 -14 21q-19 0 -55 -36t-61 -85z" />
    <glyph glyph-name="yen" unicode="&#xa5;" horiz-adv-x="316" 
d="M319 258h-67l-30 -55q-58 0 -30 55h-58q-9 0 -10 6q3 9 15 11h63l15 27h-59q-10 0 -9 8q1 9 15 9h63l1 3q-34 9 -47 31t4 56l42 76q15 0 24.5 -4t14.5 -17t-10 -36l-30 -58q-9 -17 1.5 -26.5t37.5 -8.5q30 0 53.5 15t33.5 35l30 53q13 23 26.5 33.5t24 12t35.5 1.5
l-44 -83q-35 -67 -138 -81l-1 -2h65q9 0 10 -6q1 -7 -9 -10q-3 -1 -7 -1h-69l-14 -27h64q9 0 10 -6q1 -7 -9 -10q-3 -1 -7 -1z" />
    <glyph glyph-name="brokenbar" unicode="&#xa6;" horiz-adv-x="351" 
d="M210 512h24v-246h-24v246zM210 207h24v-245h-24v245z" />
    <glyph glyph-name="section" unicode="&#xa7;" horiz-adv-x="455" 
d="M358 50q-23 -23 -49 -38q0 -56 -29 -86t-86 -42q-47 -9 -100.5 14.5t-51.5 72.5q0 25 22.5 49t50.5 24q21 0 33.5 -11t9.5 -28q-3 -15 -20 -26.5t-36 -11.5q-12 0 -18 3q-23 -42 21.5 -62t84.5 -6q17 5 29.5 12.5t19 18t11 20t3.5 25.5t-2 26t-7.5 30.5t-10 30.5
t-12.5 33.5t-12 33.5q-36 103 -27 156q11 66 63 114q17 17 50 38q-1 107 114 128q29 6 64 -1t62.5 -29.5t26.5 -55.5q0 -27 -22.5 -50.5t-51.5 -23.5q-20 0 -32.5 11t-10.5 28q4 16 20.5 27t36.5 11q10 0 18 -3q24 41 -20.5 61t-85.5 8q-34 -11 -50 -29.5t-12.5 -52.5
t9.5 -55t24 -70q6 -17 9 -25q37 -103 28 -155q-12 -66 -64 -114zM324 305q-24 67 -28 112q-30 -23 -38 -39q-15 -29 -15.5 -65.5t8.5 -72.5t29 -92q22 -63 28 -113q29 22 37 39q15 28 16 65t-8 73.5t-29 92.5z" />
    <glyph glyph-name="dieresis" unicode="&#xa8;" horiz-adv-x="193" 
d="M178 406q3 14 15.5 23.5t27.5 9.5t24 -9.5t6 -23.5q-2 -14 -14 -22.5t-27 -8.5t-24.5 8.5t-7.5 22.5zM280 406q2 14 14.5 23.5t27.5 9.5q14 0 23 -9.5t7 -23.5q-3 -14 -14.5 -22.5t-26.5 -8.5t-24 8.5t-7 22.5z" />
    <glyph glyph-name="copyright" unicode="&#xa9;" horiz-adv-x="603" 
d="M101 237q0 110 77 187t187 77t187 -77t77 -187t-77 -187t-187 -77t-187 77t-77 187zM137 237q0 -94 66.5 -161t161.5 -67q94 0 161 67t67 161q0 95 -67 162t-161 67q-95 0 -161.5 -67t-66.5 -162zM365 73q-68 0 -116 48t-48 116t48 116t116 48q47 0 86 -24.5t60 -64.5
q0 -4 -2 -6l-25 -11l-1 -1q-3 0 -4 3q-16 31 -47 50.5t-67 19.5q-53 0 -91.5 -38.5t-38.5 -91.5q0 -54 38 -91.5t92 -37.5q36 0 67 19.5t47 50.5q2 2 5 2l25 -12q2 -2 2 -4v-2q-21 -40 -60 -64.5t-86 -24.5z" />
    <glyph glyph-name="ordfeminine" unicode="&#xaa;" horiz-adv-x="355" 
d="M296 223q-13 0 -22 9t-9 26v13q-43 -50 -87 -48q-45 4 -45 50q0 36 24 82q28 50 76.5 92t93.5 37q28 -4 28 -42q16 23 34 29.5t49 6.5h4l-114 -205q-10 -16 -10 -25q2 -6 16 -0.5t34 17.5q61 42 103 110q2 5 5 5.5t4 -2.5t0 -6q-39 -64 -92.5 -106.5t-91.5 -42.5z
M225 355q-35 -65 -35 -96q0 -19 12 -19q16 0 46 33t56 82q34 61 34 93q0 17 -9 17q-17 -1 -47.5 -31.5t-56.5 -78.5z" />
    <glyph glyph-name="guillemotleft" unicode="&#xab;" horiz-adv-x="378" 
d="M71 148l238 148q-1 -1 -3.5 -11t-12 -20.5t-33.5 -32.5l-111 -99l3 -100q0 -24 -6 -33zM206 148l239 148q-2 -3 -4 -9.5t-4.5 -10.5t-12.5 -15.5t-29 -28.5l-110 -99l3 -100q-2 -24 -6 -33z" />
    <glyph glyph-name="logicalnot" unicode="&#xac;" horiz-adv-x="436" 
d="M462 237l-97 -177q-17 0 -29 7t-16.5 24t12.5 46l41 76h-250l12 24h327z" />
    <glyph glyph-name="registered" unicode="&#xae;" horiz-adv-x="210" 
d="M136 392q0 27 19.5 46.5t46.5 19.5t46.5 -19.5t19.5 -46.5t-19.5 -46.5t-46.5 -19.5t-46.5 19.5t-19.5 46.5zM146 392q0 -23 16.5 -39.5t39.5 -16.5t39.5 16.5t16.5 39.5t-16.5 39.5t-39.5 16.5t-39.5 -16.5t-16.5 -39.5zM185 419v-22h20q13 0 13 12q0 10 -13 10h-20z
M211 389q7 -3 16 -17l8 -14h-14l-7 14q-10 15 -20 15h-9v-29h-11v70h31q24 0 24 -19q0 -18 -18 -20z" />
    <glyph glyph-name="macron" unicode="&#xaf;" horiz-adv-x="193" 
d="M309 385h-113q-16 0 -16 12q6 14 25 17h114q16 0 15 -12q-6 -14 -25 -17z" />
    <glyph glyph-name="degree" unicode="&#xb0;" horiz-adv-x="239" 
d="M176 307q-21 22 -13 53.5t41 55.5q36 25 74 27.5t60 -18.5q22 -22 14 -54t-42 -56q-36 -24 -73 -27t-61 19zM221 303q18 -9 42 12.5t33 45.5q5 10 8 22t1.5 26t-11.5 20q-18 10 -41.5 -11.5t-33.5 -46.5q-4 -9 -7.5 -21.5t-2 -27t11.5 -19.5z" />
    <glyph glyph-name="plusminus" unicode="&#xb1;" horiz-adv-x="365" 
d="M267 296h29l-51 -92h97l-13 -23h-97l-50 -93h-30l51 93h-95l12 23h95zM20 24h222l-13 -24h-221z" />
    <glyph glyph-name="twosuperior" unicode="&#xb2;" horiz-adv-x="296" 
d="M187 283l92 -14q45 -5 67 29q7 11 12 8t-2 -13q-26 -37 -46 -52.5t-50 -15.5q-25 0 -58 12q-29 12 -53 12q-17 0 -30 -13q-6 -7 -11 -2q-5 4 0 9q14 20 96 71q69 48 98 77q24 24 24 54q0 28 -24 29q-31 2 -53 -22.5t-22 -57.5q-51 2 -51 28q0 11 9 20q32 44 113 44
q44 0 67 -16.5t23 -40.5q-3 -44 -113 -100l-43 -21.5t-45 -24.5z" />
    <glyph glyph-name="threesuperior" unicode="&#xb3;" horiz-adv-x="296" 
d="M391 429q-4 -19 -24.5 -37.5t-54.5 -29.5q15 -3 25.5 -15t10.5 -28q0 -13 -6 -26q-19 -34 -64 -53t-83 -15q-33 2 -53 23.5t-10 53.5q8 30 46 30q10 0 25 -5q-24 -18 -24 -64q0 -22 20 -25q26 -4 49.5 13.5t36.5 45.5q7 15 7 28q0 33 -32 33h-9q-10 0 -9 5.5t10 6.5
q45 2 75 33q15 21 15 42q0 27 -27 28q-30 2 -52.5 -22t-22.5 -57q-25 0 -41.5 12.5t-0.5 35.5q35 44 113 44q40 0 61.5 -17.5t18.5 -39.5z" />
    <glyph glyph-name="acute" unicode="&#xb4;" horiz-adv-x="193" 
d="M291 391l-105 -35q-5 -1 -6 1t2 5l126 96q14 -10 19 -22t-3.5 -24.5t-32.5 -20.5z" />
    <glyph glyph-name="paragraph" unicode="&#xb6;" horiz-adv-x="408" 
d="M345 396q67 127 34 135q-3 1 -5 1q-21 0 -59 -38t-70 -98q-50 -89 -37 -125q4 -11 15 -11q20 0 54 38t68 98zM398 485q72 100 161 175t186 109q235 84 341 -49q14 -13 12.5 -36t-27.5 -30q-14 56 -48 89t-79 40.5t-93 0.5t-99 -27q-57 -22 -109.5 -67t-107.5 -124
t-80.5 -121t-80.5 -140q-14 -24 -20 -35l-52 -92l-101 -183q-215 -387 -450 -468q-235 -84 -341 49q-15 14 -13 35.5t28 30.5q14 -56 48 -89t79 -40.5t93 -0.5t99 27q57 22 109.5 67t107.5 124t80.5 121t80.5 140q14 24 20 35l144 262q-50 -53 -98 -52q-34 1 -47 26t-6 60.5
t29 73.5q36 64 93 116t111 43q41 -7 30 -70z" />
    <glyph glyph-name="periodcentered" unicode="&#xb7;" horiz-adv-x="199" 
d="M86 148q4 17 20.5 28.5t35.5 11.5q21 0 33 -11.5t8 -28.5q-3 -16 -19.5 -27t-35.5 -11q-20 0 -32 11t-10 27z" />
    <glyph glyph-name="cedilla" unicode="&#xb8;" horiz-adv-x="193" 
d="M-45 -81q-6 -2 -9.5 1t2.5 8l65 66h17l-38 -44q50 4 71 -19.5t5.5 -52t-56.5 -38.5q-23 -5 -55.5 -0.5t-54.5 15.5l13 13q20 -14 60 -7t50 34q6 19 -21.5 27.5t-48.5 -3.5z" />
    <glyph glyph-name="onesuperior" unicode="&#xb9;" horiz-adv-x="197" 
d="M325 482h16q-28 -20 -84.5 -111.5t-58.5 -128.5q0 -3 3 -15q2 -7 0 -9t-10 4q-20 16 -23.5 42t6 53.5t22.5 51t28 41.5q-58 -40 -66 -44q-8 -3 -10 0.5t4 8.5q69 48 119 92q19 15 54 15z" />
    <glyph glyph-name="ordmasculine" unicode="&#xba;" horiz-adv-x="296" 
d="M222 354q-30 -54 -30 -96q0 -22 14 -22q20 0 55.5 36t61.5 85q29 56 29 97q0 21 -14 21q-19 0 -54.5 -37t-61.5 -84zM202 225q-30 0 -46 16t-16 43q0 69 66 135.5t136 66.5q29 0 45 -16t16 -44q0 -69 -66 -135t-135 -66z" />
    <glyph glyph-name="guillemotright" unicode="&#xbb;" horiz-adv-x="383" 
d="M369 148l-238 -148q2 4 3.5 10t4 10t13 15t29.5 28l110 100l-3 100q0 23 6 33zM234 148l-239 -148q2 3 4 9.5t4.5 10.5t12.5 15t29 28l110 100l-3 100q2 23 6 33z" />
    <glyph glyph-name="onequarter" unicode="&#xbc;" horiz-adv-x="548" 
d="M433 97q20 37 66.5 82.5t82.5 56.5q12 3 11 -1q-1 -1 -3 -4q-51 -51 -96.5 -125.5t-45.5 -111.5q0 -5 2 -14q1 -8 0 -9t-7 4q-38 23 -26 78q-114 22 -147 3q-9 -6 -13 1q-2 5 5 8q74 54 100 80q50 44 70 87q10 22 27 16q16 -5 6 -23q-31 -51 -128 -122q61 -2 96 -6z
M522 512h30l-427 -550h-29zM351 482h16q-28 -20 -84.5 -111.5t-58.5 -128.5q0 -3 3 -15q2 -7 0 -9t-10 4q-20 16 -23.5 42t6 53.5t22.5 51t28 41.5q-58 -40 -66 -44q-8 -3 -10 0.5t4 8.5q69 48 119 92q19 15 54 15z" />
    <glyph glyph-name="onehalf" unicode="&#xbd;" horiz-adv-x="585" 
d="M522 512h30l-427 -550h-29zM351 482h16q-28 -20 -84.5 -111.5t-58.5 -128.5q0 -3 3 -15q2 -7 0 -9t-10 4q-20 16 -23.5 42t6 53.5t22.5 51t28 41.5q-58 -40 -66 -44q-8 -3 -10 0.5t4 8.5q69 48 119 92q19 15 54 15zM373 34l92 -14q45 -5 67 29q7 11 12 8t-2 -13
q-26 -37 -46 -52.5t-50 -15.5q-25 0 -58 12q-29 12 -53 12q-17 0 -30 -13q-6 -7 -11 -2q-5 4 0 9q14 20 96 71q69 48 98 77q24 24 24 54q0 28 -24 29q-31 2 -53 -22.5t-22 -57.5q-51 1 -51 28q0 11 9 20q32 44 113 44q44 0 67 -16.5t23 -40.5q-3 -44 -113 -100l-43 -21.5
t-45 -24.5z" />
    <glyph glyph-name="threequarters" unicode="&#xbe;" horiz-adv-x="626" 
d="M602 512h30l-427 -550h-30zM407 429q-4 -19 -24.5 -37.5t-54.5 -29.5q15 -3 25.5 -15t10.5 -28q0 -13 -6 -26q-19 -34 -64 -53t-83 -15q-33 2 -53 23.5t-10 53.5q8 30 46 30q10 0 25 -5q-24 -18 -24 -64q0 -22 20 -25q26 -4 49.5 13.5t36.5 45.5q7 15 7 28q0 33 -32 33
h-9q-10 0 -9 5.5t10 6.5q45 2 75 33q15 21 15 42q0 27 -27 28q-30 2 -52.5 -22t-22.5 -57q-25 0 -41.5 12.5t-0.5 35.5q35 44 113 44q40 0 61.5 -17.5t18.5 -39.5zM512 97q20 37 66.5 82.5t82.5 56.5q12 3 11 -1q-1 -1 -3 -4q-51 -51 -96.5 -125.5t-45.5 -111.5q0 -5 2 -14
q1 -8 0 -9t-7 4q-38 23 -26 78q-114 22 -147 3q-9 -6 -13 1q-2 5 5 8q74 54 100 80q50 44 70 87q10 22 27 16q16 -5 6 -23q-31 -51 -128 -122q61 -2 96 -6z" />
    <glyph glyph-name="questiondown" unicode="&#xbf;" horiz-adv-x="459" 
d="M513 450q-4 -16 -20.5 -27t-35.5 -11t-31.5 11t-9.5 27q3 17 19.5 28t35.5 11q20 0 32 -11t10 -28zM128 62q-30 88 123 172q6 3 23.5 13.5l25 15t23.5 14t24 15.5t21 15.5t20.5 16.5t16 16t14.5 18q6 6 10 3t-1 -11q-17 -32 -50 -64t-77.5 -67.5t-62.5 -53.5
q-35 -33 -46.5 -71t2.5 -63t48 -25q51 0 86.5 36.5t41.5 94.5q50 0 64 -19.5t-10 -52.5q-24 -34 -73.5 -55.5t-103.5 -17.5q-47 2 -78.5 21.5t-40.5 48.5z" />
    <glyph glyph-name="Agrave" unicode="&#xc0;" horiz-adv-x="1002" 
d="M849 108l53 92h-204q-79 -104 -172 -173t-215 -113q-83 -28 -166 -29q26 -65 85.5 -103t125 -44t130 13.5t102.5 61.5q9 11 12 7.5t-6 -12.5q-39 -45 -109.5 -66.5t-144 -15t-143.5 48t-106 113.5q-132 12 -194 88q-14 13 -12 34.5t27 30.5q29 -112 171 -135
q-34 78 -24 166t51.5 169.5t116 154t167.5 118.5q253 124 532 46q64 41 109 27q50 -19 37 -103q37 54 96 54l-271 -489q-23 -42 7 -38q24 3 64 28q72 47 126 134q5 9 9 3q2 -2 -1 -6q-39 -66 -95 -117t-113 -62q-44 -11 -59 11q-26 34 14 106zM654 255l115 147
q89 107 139 145q-250 77 -472 -44q-104 -58 -184.5 -154.5t-115.5 -213.5t4 -234q92 -2 163 27q29 11 57 27t48.5 29t47.5 38.5t40 38t41.5 46.5t37 44.5t40.5 52.5t39 51zM854 410l-143 -193l-2 -2h201l91 157q35 59 47 107.5t4.5 72.5t-24.5 26q-48 3 -174 -168zM1113 632
l-76 34q-35 17 -33.5 37t26.5 31l88 -97q3 -3 0 -5q-2 -2 -5 0z" />
    <glyph glyph-name="Aacute" unicode="&#xc1;" horiz-adv-x="1002" 
d="M849 108l53 92h-204q-79 -104 -172 -173t-215 -113q-83 -28 -166 -29q26 -65 85.5 -103t125 -44t130 13.5t102.5 61.5q9 11 12 7.5t-6 -12.5q-39 -45 -109.5 -66.5t-144 -15t-143.5 48t-106 113.5q-132 12 -194 88q-14 13 -12 34.5t27 30.5q29 -112 171 -135
q-34 78 -24 166t51.5 169.5t116 154t167.5 118.5q253 124 532 46q64 41 109 27q50 -19 37 -103q37 54 96 54l-271 -489q-23 -42 7 -38q24 3 64 28q72 47 126 134q5 9 9 3q2 -2 -1 -6q-39 -66 -95 -117t-113 -62q-44 -11 -59 11q-26 34 14 106zM654 255l115 147
q89 107 139 145q-250 77 -472 -44q-104 -58 -184.5 -154.5t-115.5 -213.5t4 -234q92 -2 163 27q29 11 57 27t48.5 29t47.5 38.5t40 38t41.5 46.5t37 44.5t40.5 52.5t39 51zM854 410l-143 -193l-2 -2h201l91 157q35 59 47 107.5t4.5 72.5t-24.5 26q-48 3 -174 -168zM1141 666
l-106 -34q-5 -2 -6 0.5t2 4.5l126 97q14 -10 19.5 -22t-3 -25t-32.5 -21z" />
    <glyph glyph-name="Acircumflex" unicode="&#xc2;" horiz-adv-x="1002" 
d="M849 108l53 92h-204q-79 -104 -172 -173t-215 -113q-83 -28 -166 -29q26 -65 85.5 -103t125 -44t130 13.5t102.5 61.5q9 11 12 7.5t-6 -12.5q-39 -45 -109.5 -66.5t-144 -15t-143.5 48t-106 113.5q-132 12 -194 88q-14 13 -12 34.5t27 30.5q29 -112 171 -135
q-34 78 -24 166t51.5 169.5t116 154t167.5 118.5q253 124 532 46q64 41 109 27q50 -19 37 -103q37 54 96 54l-271 -489q-23 -42 7 -38q24 3 64 28q72 47 126 134q5 9 9 3q2 -2 -1 -6q-39 -66 -95 -117t-113 -62q-44 -11 -59 11q-26 34 14 106zM654 255l115 147
q89 107 139 145q-250 77 -472 -44q-104 -58 -184.5 -154.5t-115.5 -213.5t4 -234q92 -2 163 27q29 11 57 27t48.5 29t47.5 38.5t40 38t41.5 46.5t37 44.5t40.5 52.5t39 51zM854 410l-143 -193l-2 -2h201l91 157q35 59 47 107.5t4.5 72.5t-24.5 26q-48 3 -174 -168zM979 630
l117 104q26 0 32 -7q5 -5 9 -18l23 -79q-26 0 -35 16l-24 40l-70 -40q-26 -16 -52 -16z" />
    <glyph glyph-name="Atilde" unicode="&#xc3;" horiz-adv-x="1002" 
d="M849 108l53 92h-204q-79 -104 -172 -173t-215 -113q-83 -28 -166 -29q26 -65 85.5 -103t125 -44t130 13.5t102.5 61.5q9 11 12 7.5t-6 -12.5q-39 -45 -109.5 -66.5t-144 -15t-143.5 48t-106 113.5q-132 12 -194 88q-14 13 -12 34.5t27 30.5q29 -112 171 -135
q-34 78 -24 166t51.5 169.5t116 154t167.5 118.5q253 124 532 46q64 41 109 27q50 -19 37 -103q37 54 96 54l-271 -489q-23 -42 7 -38q24 3 64 28q72 47 126 134q5 9 9 3q2 -2 -1 -6q-39 -66 -95 -117t-113 -62q-44 -11 -59 11q-26 34 14 106zM654 255l115 147
q89 107 139 145q-250 77 -472 -44q-104 -58 -184.5 -154.5t-115.5 -213.5t4 -234q92 -2 163 27q29 11 57 27t48.5 29t47.5 38.5t40 38t41.5 46.5t37 44.5t40.5 52.5t39 51zM854 410l-143 -193l-2 -2h201l91 157q35 59 47 107.5t4.5 72.5t-24.5 26q-48 3 -174 -168zM1085 653
q-4 3 -18 13t-21 12q-6 3 -33 -20q-10 -12 -28 -7q27 33 31 37q13 14 23 21t25.5 10t28.5 -8q5 -3 18.5 -13t19.5 -12q8 -3 34 20q13 11 27 7q-15 -20 -31 -38q-41 -45 -76 -22z" />
    <glyph glyph-name="Adieresis" unicode="&#xc4;" horiz-adv-x="1002" 
d="M849 108l53 92h-204q-79 -104 -172 -173t-215 -113q-83 -28 -166 -29q26 -65 85.5 -103t125 -44t130 13.5t102.5 61.5q9 11 12 7.5t-6 -12.5q-39 -45 -109.5 -66.5t-144 -15t-143.5 48t-106 113.5q-132 12 -194 88q-14 13 -12 34.5t27 30.5q29 -112 171 -135
q-34 78 -24 166t51.5 169.5t116 154t167.5 118.5q253 124 532 46q64 41 109 27q50 -19 37 -103q37 54 96 54l-271 -489q-23 -42 7 -38q24 3 64 28q72 47 126 134q5 9 9 3q2 -2 -1 -6q-39 -66 -95 -117t-113 -62q-44 -11 -59 11q-26 34 14 106zM654 255l115 147
q89 107 139 145q-250 77 -472 -44q-104 -58 -184.5 -154.5t-115.5 -213.5t4 -234q92 -2 163 27q29 11 57 27t48.5 29t47.5 38.5t40 38t41.5 46.5t37 44.5t40.5 52.5t39 51zM854 410l-143 -193l-2 -2h201l91 157q35 59 47 107.5t4.5 72.5t-24.5 26q-48 3 -174 -168zM1006 682
q2 14 14.5 23t27.5 9t24 -9t6 -23q-2 -14 -13.5 -23t-26.5 -9t-24.5 9t-7.5 23zM1108 682q2 14 14 23t27 9t24 -9t7 -23q-3 -14 -15 -23t-27 -9t-23.5 9t-6.5 23z" />
    <glyph glyph-name="Aring" unicode="&#xc5;" horiz-adv-x="1002" 
d="M849 108l53 92h-204q-79 -104 -172 -173t-215 -113q-83 -28 -166 -29q26 -65 85.5 -103t125 -44t130 13.5t102.5 61.5q9 11 12 7.5t-6 -12.5q-39 -45 -109.5 -66.5t-144 -15t-143.5 48t-106 113.5q-132 12 -194 88q-14 13 -12 34.5t27 30.5q29 -112 171 -135
q-34 78 -24 166t51.5 169.5t116 154t167.5 118.5q253 124 532 46q64 41 109 27q50 -19 37 -103q37 54 96 54l-271 -489q-23 -42 7 -38q24 3 64 28q72 47 126 134q5 9 9 3q2 -2 -1 -6q-39 -66 -95 -117t-113 -62q-44 -11 -59 11q-26 34 14 106zM654 255l115 147
q89 107 139 145q-250 77 -472 -44q-104 -58 -184.5 -154.5t-115.5 -213.5t4 -234q92 -2 163 27q29 11 57 27t48.5 29t47.5 38.5t40 38t41.5 46.5t37 44.5t40.5 52.5t39 51zM854 410l-143 -193l-2 -2h201l91 157q35 59 47 107.5t4.5 72.5t-24.5 26q-48 3 -174 -168zM1020 640
q-20 14 -15.5 34t31.5 38q27 17 58 21t52 -9q19 -14 14 -35t-31 -38q-28 -18 -58.5 -21t-50.5 10zM1048 658q8 -26 41 -6q15 10 23.5 25.5t5.5 27.5q-2 11 -15 12.5t-27 -7.5q-36 -25 -28 -52z" />
    <glyph glyph-name="AE" unicode="&#xc6;" horiz-adv-x="1371" 
d="M902 200h-204q-79 -104 -172 -173t-215 -113q-83 -28 -166 -29q26 -65 85.5 -103t125 -44t130 13.5t102.5 61.5q9 11 12 7.5t-6 -12.5q-39 -45 -109.5 -66.5t-144 -15t-143.5 48t-106 113.5q-132 12 -194 88q-14 13 -12 34.5t27 30.5q29 -112 171 -135q-34 78 -24 166
t51.5 169.5t116 154t167.5 118.5q253 124 532 46q64 41 109 27q33 -11 43.5 -60.5t1.5 -105.5t-30 -96l-13 -25q85 40 159 44q-60 24 -74 64t10 77.5t70 61.5q114 59 220 39q38 -7 62.5 -28.5t22.5 -54.5q0 -25 -22 -49t-51 -24q-21 0 -33 10.5t-9 27.5q2 16 19 27t37 11
q10 0 18 -3q13 28 1 44.5t-40 23.5q-43 10 -96.5 -4.5t-94.5 -49.5q-51 -43 -53.5 -97t52.5 -71q132 0 171 5q-7 -16 -16.5 -27t-23.5 -15t-24 -6t-30 2l-27.5 5.5t-29.5 8t-25 7.5q-119 -14 -208 -106.5t-89 -178.5q0 -70 44.5 -105.5t122 -26t169.5 64.5q102 63 195 196
q5 8 9 2q2 -2 -1 -6q-87 -131 -192 -201q-58 -39 -121 -60.5t-114 -19.5q-76 4 -124.5 41t-59.5 102q-13 70 41 169zM709 215h201l91 157q35 59 47 107.5t4.5 72.5t-24.5 26q-48 3 -174 -168zM654 255l115 147q89 107 139 145q-250 77 -472 -44q-104 -58 -184.5 -154.5
t-115.5 -213.5t4 -234q92 -2 163 27q29 11 57 27t48.5 29t47.5 38.5t40 38t41.5 46.5t37 44.5t40.5 52.5t39 51z" />
    <glyph glyph-name="Ccedilla" unicode="&#xc7;" horiz-adv-x="690" 
d="M596 -36q-135 -88 -266 -95l-19 -23q50 4 71 -19.5t5.5 -52t-56.5 -38.5q-23 -5 -55.5 -0.5t-54.5 15.5l13 13q20 -14 60 -7t50 34q6 19 -21.5 27.5t-48.5 -3.5q-6 -2 -9.5 1t2.5 8l43 44q-44 0 -85 12q-63 18 -101 56t-48 85.5t-1 99.5t36 104q38 74 102 144t140 123.5
t162.5 80t162.5 13.5q37 -7 61 -28t22 -55q0 -25 -22 -49t-51 -24q-21 0 -33 10.5t-9 27.5q2 16 19 27t37 11q10 0 18 -3q13 28 1 44.5t-40 23.5q-40 10 -98.5 -6t-114.5 -49q-92 -55 -169 -139t-121 -173q-30 -61 -38 -118t12.5 -106t71.5 -75q69 -31 167.5 -11t194.5 79
q103 65 193 199q4 7 9 3q3 -2 0 -7q-83 -132 -192 -204z" />
    <glyph glyph-name="Egrave" unicode="&#xc8;" horiz-adv-x="977" 
d="M470 -4q-33 -10 -70 -8q-51 4 -77 25t-26 69q119 -57 157 -65q12 3 25 14t27 30.5t23.5 35t25.5 43t22 37.5l95 164q82 141 150 194l-75 17q-96 19 -164.5 9.5t-138.5 -46.5q-105 -54 -189.5 -157.5t-118.5 -225t7 -241.5q32 -89 120.5 -128t181 -23t143.5 73
q9 11 12 7.5t-6 -12.5q-40 -46 -111 -67t-146 -14t-145.5 50.5t-104.5 118.5q-38 78 -29 168t49.5 173.5t116 157t170.5 119.5q270 130 469 70l150 -45q88 -26 137.5 -26t75.5 27q12 14 13.5 32.5t-7.5 29.5q-3 3 1 5.5t7 -2.5q22 -35 -7 -71q-37 -45 -145 -45
q-71 0 -167 24l-59 13q-24 -26 -72 -113l-61 -113q129 -10 207 13q-13 -32 -25.5 -45.5t-34.5 -17.5q-46 -6 -157 32l-59 -103q-51 -90 -90 -128q-27 -27 -73 -47q106 -17 201 -14t165 22q126 33 205 161q7 9 9 3q1 -2 -1 -6q-29 -50 -68 -95q-67 -76 -119 -94.5t-147 -18.5
q-134 0 -272 34zM1043 632l-76 34q-35 17 -33.5 37t26.5 31l88 -97q3 -3 0 -5q-2 -2 -5 0z" />
    <glyph glyph-name="Eacute" unicode="&#xc9;" horiz-adv-x="977" 
d="M470 -4q-33 -10 -70 -8q-51 4 -77 25t-26 69q119 -57 157 -65q12 3 25 14t27 30.5t23.5 35t25.5 43t22 37.5l95 164q82 141 150 194l-75 17q-96 19 -164.5 9.5t-138.5 -46.5q-105 -54 -189.5 -157.5t-118.5 -225t7 -241.5q32 -89 120.5 -128t181 -23t143.5 73
q9 11 12 7.5t-6 -12.5q-40 -46 -111 -67t-146 -14t-145.5 50.5t-104.5 118.5q-38 78 -29 168t49.5 173.5t116 157t170.5 119.5q270 130 469 70l150 -45q88 -26 137.5 -26t75.5 27q12 14 13.5 32.5t-7.5 29.5q-3 3 1 5.5t7 -2.5q22 -35 -7 -71q-37 -45 -145 -45
q-71 0 -167 24l-59 13q-24 -26 -72 -113l-61 -113q129 -10 207 13q-13 -32 -25.5 -45.5t-34.5 -17.5q-46 -6 -157 32l-59 -103q-51 -90 -90 -128q-27 -27 -73 -47q106 -17 201 -14t165 22q126 33 205 161q7 9 9 3q1 -2 -1 -6q-29 -50 -68 -95q-67 -76 -119 -94.5t-147 -18.5
q-134 0 -272 34zM1089 666l-106 -34q-5 -2 -6 0.5t2 4.5l126 97q14 -10 19.5 -22t-3 -25t-32.5 -21z" />
    <glyph glyph-name="Ecircumflex" unicode="&#xca;" horiz-adv-x="977" 
d="M470 -4q-33 -10 -70 -8q-51 4 -77 25t-26 69q119 -57 157 -65q12 3 25 14t27 30.5t23.5 35t25.5 43t22 37.5l95 164q82 141 150 194l-75 17q-96 19 -164.5 9.5t-138.5 -46.5q-105 -54 -189.5 -157.5t-118.5 -225t7 -241.5q32 -89 120.5 -128t181 -23t143.5 73
q9 11 12 7.5t-6 -12.5q-40 -46 -111 -67t-146 -14t-145.5 50.5t-104.5 118.5q-38 78 -29 168t49.5 173.5t116 157t170.5 119.5q270 130 469 70l150 -45q88 -26 137.5 -26t75.5 27q12 14 13.5 32.5t-7.5 29.5q-3 3 1 5.5t7 -2.5q22 -35 -7 -71q-37 -45 -145 -45
q-71 0 -167 24l-59 13q-24 -26 -72 -113l-61 -113q129 -10 207 13q-13 -32 -25.5 -45.5t-34.5 -17.5q-46 -6 -157 32l-59 -103q-51 -90 -90 -128q-27 -27 -73 -47q106 -17 201 -14t165 22q126 33 205 161q7 9 9 3q1 -2 -1 -6q-29 -50 -68 -95q-67 -76 -119 -94.5t-147 -18.5
q-134 0 -272 34zM920 630l117 104q26 0 32 -7q5 -5 9 -18l23 -79q-26 0 -35 16l-24 40l-70 -40q-26 -16 -52 -16z" />
    <glyph glyph-name="Edieresis" unicode="&#xcb;" horiz-adv-x="977" 
d="M470 -4q-33 -10 -70 -8q-51 4 -77 25t-26 69q119 -57 157 -65q12 3 25 14t27 30.5t23.5 35t25.5 43t22 37.5l95 164q82 141 150 194l-75 17q-96 19 -164.5 9.5t-138.5 -46.5q-105 -54 -189.5 -157.5t-118.5 -225t7 -241.5q32 -89 120.5 -128t181 -23t143.5 73
q9 11 12 7.5t-6 -12.5q-40 -46 -111 -67t-146 -14t-145.5 50.5t-104.5 118.5q-38 78 -29 168t49.5 173.5t116 157t170.5 119.5q270 130 469 70l150 -45q88 -26 137.5 -26t75.5 27q12 14 13.5 32.5t-7.5 29.5q-3 3 1 5.5t7 -2.5q22 -35 -7 -71q-37 -45 -145 -45
q-71 0 -167 24l-59 13q-24 -26 -72 -113l-61 -113q129 -10 207 13q-13 -32 -25.5 -45.5t-34.5 -17.5q-46 -6 -157 32l-59 -103q-51 -90 -90 -128q-27 -27 -73 -47q106 -17 201 -14t165 22q126 33 205 161q7 9 9 3q1 -2 -1 -6q-29 -50 -68 -95q-67 -76 -119 -94.5t-147 -18.5
q-134 0 -272 34zM955 682q2 14 14.5 23t27.5 9t24 -9t6 -23q-2 -14 -13.5 -23t-26.5 -9t-24.5 9t-7.5 23zM1057 682q2 14 14 23t27 9t24 -9t7 -23q-3 -14 -15 -23t-27 -9t-23.5 9t-6.5 23z" />
    <glyph glyph-name="Igrave" unicode="&#xcc;" horiz-adv-x="674" 
d="M311 -86q-83 -28 -166 -29q26 -65 85.5 -103t125 -44t130 13.5t102.5 61.5q9 11 12 7.5t-6 -12.5q-39 -45 -109.5 -66.5t-144 -15t-143.5 48t-106 113.5q-132 12 -194 88q-14 13 -12 34.5t27 30.5q29 -112 171 -135q-34 78 -24 166t51.5 169.5t116 154t167.5 118.5
q232 115 484 57q55 23 85.5 8t15.5 -54q-51 18 -87 25q-40 -23 -102 -137l-88 -162q-73 -134 -163.5 -211.5t-227.5 -125.5zM436 503q-104 -58 -184.5 -154.5t-115.5 -213.5t4 -234q92 -2 163 27q42 17 76 35t63.5 44.5t49 46.5t47 61.5t42.5 66.5t48 83l43 76q48 84 90 135
t94 83q-217 54 -420 -56zM931 632l-76 34q-35 17 -33.5 37t26.5 31l88 -97q3 -3 0 -5q-2 -2 -5 0z" />
    <glyph glyph-name="Iacute" unicode="&#xcd;" horiz-adv-x="674" 
d="M311 -86q-83 -28 -166 -29q26 -65 85.5 -103t125 -44t130 13.5t102.5 61.5q9 11 12 7.5t-6 -12.5q-39 -45 -109.5 -66.5t-144 -15t-143.5 48t-106 113.5q-132 12 -194 88q-14 13 -12 34.5t27 30.5q29 -112 171 -135q-34 78 -24 166t51.5 169.5t116 154t167.5 118.5
q232 115 484 57q55 23 85.5 8t15.5 -54q-51 18 -87 25q-40 -23 -102 -137l-88 -162q-73 -134 -163.5 -211.5t-227.5 -125.5zM436 503q-104 -58 -184.5 -154.5t-115.5 -213.5t4 -234q92 -2 163 27q42 17 76 35t63.5 44.5t49 46.5t47 61.5t42.5 66.5t48 83l43 76q48 84 90 135
t94 83q-217 54 -420 -56zM944 666l-105 -34q-6 -3 -7 1q0 2 2 4l126 97q14 -10 20 -22t-2.5 -25t-33.5 -21z" />
    <glyph glyph-name="Icircumflex" unicode="&#xce;" horiz-adv-x="674" 
d="M311 -86q-83 -28 -166 -29q26 -65 85.5 -103t125 -44t130 13.5t102.5 61.5q9 11 12 7.5t-6 -12.5q-39 -45 -109.5 -66.5t-144 -15t-143.5 48t-106 113.5q-132 12 -194 88q-14 13 -12 34.5t27 30.5q29 -112 171 -135q-34 78 -24 166t51.5 169.5t116 154t167.5 118.5
q232 115 484 57q55 23 85.5 8t15.5 -54q-51 18 -87 25q-40 -23 -102 -137l-88 -162q-73 -134 -163.5 -211.5t-227.5 -125.5zM436 503q-104 -58 -184.5 -154.5t-115.5 -213.5t4 -234q92 -2 163 27q42 17 76 35t63.5 44.5t49 46.5t47 61.5t42.5 66.5t48 83l43 76q48 84 90 135
t94 83q-217 54 -420 -56zM809 630l117 104q26 0 32 -7q5 -5 9 -18l24 -79q-27 0 -36 16l-24 40l-70 -40q-26 -16 -52 -16z" />
    <glyph glyph-name="Idieresis" unicode="&#xcf;" horiz-adv-x="674" 
d="M311 -86q-83 -28 -166 -29q26 -65 85.5 -103t125 -44t130 13.5t102.5 61.5q9 11 12 7.5t-6 -12.5q-39 -45 -109.5 -66.5t-144 -15t-143.5 48t-106 113.5q-132 12 -194 88q-14 13 -12 34.5t27 30.5q29 -112 171 -135q-34 78 -24 166t51.5 169.5t116 154t167.5 118.5
q232 115 484 57q55 23 85.5 8t15.5 -54q-51 18 -87 25q-40 -23 -102 -137l-88 -162q-73 -134 -163.5 -211.5t-227.5 -125.5zM436 503q-104 -58 -184.5 -154.5t-115.5 -213.5t4 -234q92 -2 163 27q42 17 76 35t63.5 44.5t49 46.5t47 61.5t42.5 66.5t48 83l43 76q48 84 90 135
t94 83q-217 54 -420 -56zM833 682q2 14 14.5 23t27.5 9t24 -9t6 -23q-2 -14 -14 -23t-27 -9t-24 9t-7 23zM934 682q2 14 14 23t27 9t24 -9t7 -23q-3 -14 -15 -23t-26 -9q-15 0 -24 9t-7 23z" />
    <glyph glyph-name="Eth" unicode="&#xd0;" horiz-adv-x="1024" 
d="M831 548q-90 34 -203 19t-212 -73q-65 -39 -126 -101.5t-108 -145t-59 -172.5t20 -184q24 -67 83.5 -107t126 -46.5t132 13t103.5 62.5q9 11 12 7.5t-6 -12.5q-39 -45 -111.5 -67t-148.5 -15.5t-146 50.5t-101 120q-45 117 -18.5 234t112 219.5t207.5 164.5
q111 57 233.5 70t227.5 -23q21 15 53 28q51 22 100.5 12.5t76.5 -50.5q12 -14 8.5 -34t-30.5 -28q0 52 -37 85.5t-90 10.5q-30 -13 -54 -36q71 -34 114.5 -94t50.5 -128.5t-10 -136t-67.5 -122t-122.5 -80.5q-85 -29 -186 -25t-187 34q-36 -10 -69 -9q-51 4 -76 24.5
t-27 69.5q97 -47 155 -64q12 3 25 13.5t27.5 31t23.5 35t25.5 43t22.5 37.5l60 109h-45q-10 0 -7 8q3 7 13 7h47l21 38q86 146 167 208zM781 1q58 24 105 75t70.5 114.5t26.5 128.5t-28.5 123.5t-93.5 91.5q-32 -36 -88 -135l-53 -97h83q10 0 7 -8q-3 -7 -13 -7h-85
l-59 -108q-37 -69 -72.5 -111t-90.5 -65q45 -13 93 -19.5t102.5 -3t95.5 20.5z" />
    <glyph glyph-name="Ntilde" unicode="&#xd1;" horiz-adv-x="988" 
d="M394 514q87 43 176 59.5t171.5 5.5t145.5 -68t87 -156l30 53q42 76 101 136t126 60q50 0 64 -37q3 -6 -3 -6q-3 0 -4 4q-21 36 -61 24q-25 -6 -56 -40t-53 -76l-235 -424q-23 -42 7 -38q24 3 64 28q69 44 125 134q7 9 10 3q0 -3 -1 -6q-39 -66 -95 -117t-113 -62
q-44 -11 -59 11q-26 34 14 106l100 177q10 145 -88 229l-144 -263q-72 -134 -163 -211t-229 -126q-83 -28 -166 -29q26 -65 85.5 -103t125 -44t130 13.5t102.5 61.5q9 11 12 7.5t-6 -12.5q-39 -45 -109.5 -66.5t-144 -15t-143.5 48t-106 113.5q-132 12 -194 88
q-14 13 -12 34.5t27 30.5q29 -112 171 -135q-66 156 27 334.5t284 273.5zM436 503q-104 -57 -185 -154.5t-115 -214t4 -233.5q92 -2 163 27q42 17 76 35t63.5 44t50 47.5t46.5 61t42.5 67t48.5 82.5l92 163q51 89 92 110q-52 31 -120.5 33.5t-132.5 -16t-125 -52.5z
M1017 653q-4 3 -18 13t-21 12h-5t-7 -3t-7.5 -5.5t-7 -6.5t-6.5 -5q-10 -12 -27 -7q27 33 31 37q13 14 23 21t25.5 10t28.5 -8q5 -3 18.5 -13t19.5 -12q7 -3 33 20q13 11 27 7q-11 -17 -30 -38q-41 -44 -77 -22z" />
    <glyph glyph-name="Ograve" unicode="&#xd2;" horiz-adv-x="793" 
d="M675 571q76 0 126.5 -47.5t50.5 -135.5q2 -103 -81.5 -228t-207.5 -203q-115 -70 -231 -70q-94 0 -163.5 51.5t-77.5 142.5q-10 126 74.5 260.5t212.5 205.5q42 23 89.5 37t99.5 12t88 -26q3 0 10 0.5t10 0.5zM724 431q0 -8 -3 -11t-7 0.5t-4 10.5q-7 85 -59 124
q-106 -15 -190.5 -100t-127.5 -192q-6 -16 -19 -19t-20.5 7.5t-0.5 26.5q42 95 137.5 182.5t199.5 105.5q-45 16 -101 -0.5t-105 -47.5q-120 -81 -194 -199t-76 -239q-2 -85 47 -131.5t132 -46.5q82 0 164.5 49.5t142 123t99.5 157t46 153.5q6 83 -24.5 127.5t-89.5 43.5
q47 -44 53 -125zM725 632l-76 34q-35 17 -33.5 37t26.5 31l88 -97q3 -3 0 -5q-2 -2 -5 0z" />
    <glyph glyph-name="Oacute" unicode="&#xd3;" horiz-adv-x="793" 
d="M675 571q76 0 126.5 -47.5t50.5 -135.5q2 -103 -81.5 -228t-207.5 -203q-115 -70 -231 -70q-94 0 -163.5 51.5t-77.5 142.5q-10 126 74.5 260.5t212.5 205.5q42 23 89.5 37t99.5 12t88 -26q3 0 10 0.5t10 0.5zM724 431q0 -8 -3 -11t-7 0.5t-4 10.5q-7 85 -59 124
q-106 -15 -190.5 -100t-127.5 -192q-6 -16 -19 -19t-20.5 7.5t-0.5 26.5q42 95 137.5 182.5t199.5 105.5q-45 16 -101 -0.5t-105 -47.5q-120 -81 -194 -199t-76 -239q-2 -85 47 -131.5t132 -46.5q82 0 164.5 49.5t142 123t99.5 157t46 153.5q6 83 -24.5 127.5t-89.5 43.5
q47 -44 53 -125zM732 666l-106 -34q-5 -2 -6 0.5t2 4.5l126 97q14 -10 19.5 -22t-3 -25t-32.5 -21z" />
    <glyph glyph-name="Ocircumflex" unicode="&#xd4;" horiz-adv-x="793" 
d="M675 571q76 0 126.5 -47.5t50.5 -135.5q2 -103 -81.5 -228t-207.5 -203q-115 -70 -231 -70q-94 0 -163.5 51.5t-77.5 142.5q-10 126 74.5 260.5t212.5 205.5q42 23 89.5 37t99.5 12t88 -26q3 0 10 0.5t10 0.5zM724 431q0 -8 -3 -11t-7 0.5t-4 10.5q-7 85 -59 124
q-106 -15 -190.5 -100t-127.5 -192q-6 -16 -19 -19t-20.5 7.5t-0.5 26.5q42 95 137.5 182.5t199.5 105.5q-45 16 -101 -0.5t-105 -47.5q-120 -81 -194 -199t-76 -239q-2 -85 47 -131.5t132 -46.5q82 0 164.5 49.5t142 123t99.5 157t46 153.5q6 83 -24.5 127.5t-89.5 43.5
q47 -44 53 -125zM567 630l117 104q26 0 32 -7q5 -5 9 -18l23 -79q-26 0 -35 16l-24 40l-70 -40q-26 -16 -52 -16z" />
    <glyph glyph-name="Otilde" unicode="&#xd5;" horiz-adv-x="793" 
d="M675 571q76 0 126.5 -47.5t50.5 -135.5q2 -103 -81.5 -228t-207.5 -203q-115 -70 -231 -70q-94 0 -163.5 51.5t-77.5 142.5q-10 126 74.5 260.5t212.5 205.5q42 23 89.5 37t99.5 12t88 -26q3 0 10 0.5t10 0.5zM724 431q0 -8 -3 -11t-7 0.5t-4 10.5q-7 85 -59 124
q-106 -15 -190.5 -100t-127.5 -192q-6 -16 -19 -19t-20.5 7.5t-0.5 26.5q42 95 137.5 182.5t199.5 105.5q-45 16 -101 -0.5t-105 -47.5q-120 -81 -194 -199t-76 -239q-2 -85 47 -131.5t132 -46.5q82 0 164.5 49.5t142 123t99.5 157t46 153.5q6 83 -24.5 127.5t-89.5 43.5
q47 -44 53 -125zM695 653q-4 3 -18 13t-21 12q-6 3 -33 -20q-10 -12 -28 -7q27 33 31 37q13 14 23 21t25.5 10t28.5 -8q5 -3 18.5 -13t19.5 -12q8 -3 34 20q13 11 27 7q-15 -20 -31 -38q-41 -45 -76 -22z" />
    <glyph glyph-name="Odieresis" unicode="&#xd6;" horiz-adv-x="793" 
d="M675 571q76 0 126.5 -47.5t50.5 -135.5q2 -103 -81.5 -228t-207.5 -203q-115 -70 -231 -70q-94 0 -163.5 51.5t-77.5 142.5q-10 126 74.5 260.5t212.5 205.5q42 23 89.5 37t99.5 12t88 -26q3 0 10 0.5t10 0.5zM724 431q0 -8 -3 -11t-7 0.5t-4 10.5q-7 85 -59 124
q-106 -15 -190.5 -100t-127.5 -192q-6 -16 -19 -19t-20.5 7.5t-0.5 26.5q42 95 137.5 182.5t199.5 105.5q-45 16 -101 -0.5t-105 -47.5q-120 -81 -194 -199t-76 -239q-2 -85 47 -131.5t132 -46.5q82 0 164.5 49.5t142 123t99.5 157t46 153.5q6 83 -24.5 127.5t-89.5 43.5
q47 -44 53 -125zM618 682q2 14 14.5 23t27.5 9t24 -9t6 -23q-2 -14 -13.5 -23t-26.5 -9t-24.5 9t-7.5 23zM720 682q2 14 14 23t27 9t24 -9t7 -23q-3 -14 -15 -23t-27 -9t-23.5 9t-6.5 23z" />
    <glyph glyph-name="multiply" unicode="&#xd7;" horiz-adv-x="371" 
d="M247 58l-32 69l-116 -74q-7 -4 -12.5 -1t-5.5 9.5t7 13.5l118 75l-33 74q-6 14 5.5 18t17.5 -6l33 -71l124 79q7 4 13 0.5t6 -10t-8 -12.5l-126 -80l32 -73q6 -16 -7 -20q-12 -3 -16 9z" />
    <glyph glyph-name="Oslash" unicode="&#xd8;" horiz-adv-x="793" 
d="M136 -201l84 110q-119 49 -129 172q-10 126 74.5 260.5t212.5 205.5q42 23 89.5 37t99.5 12t88 -26q3 0 10 0.5t10 0.5q30 0 54 -7l86 111h23l-91 -117q104 -41 105 -170q2 -103 -81.5 -228t-207.5 -203q-115 -70 -231 -70q-50 0 -93 15l-79 -103h-24zM671 556
q-74 -4 -139 -45q-66 -39 -117.5 -106.5t-81.5 -141.5q-6 -16 -19 -19t-20.5 7.5t-0.5 26.5q42 95 137.5 182.5t199.5 105.5q-45 16 -101 -0.5t-105 -47.5q-120 -81 -194 -199t-76 -239q-4 -109 79 -155l484 624q-18 7 -46 7zM785 385q8 117 -52 155l-482 -623
q36 -15 82 -15q82 0 164.5 49.5t142 123t99.5 157t46 153.5z" />
    <glyph glyph-name="Ugrave" unicode="&#xd9;" horiz-adv-x="899" 
d="M1011 632l-76 34q-35 17 -33.5 37t26.5 31l88 -97q3 -3 0 -5q-2 -2 -5 0zM418 489q-94 -52 -172.5 -150t-113.5 -215.5t5 -232.5q32 -89 120.5 -128t181 -23t143.5 73q9 11 12 7.5t-6 -12.5q-39 -46 -110.5 -67t-146.5 -14t-145.5 51t-104.5 118q-51 121 -14.5 242
t125.5 220.5t202 155.5q175 87 392 57q55 23 85.5 8t15.5 -54q-37 15 -88 25q-27 -19 -89 -103.5t-121 -202.5q-44 -86 -63 -149t-16.5 -91t18.5 -34q33 -13 127.5 67t156.5 187l105 184q18 33 39.5 63.5t51 62.5t65 51t70.5 19q50 0 64 -37q2 -5 -2 -6t-6 4q-7 15 -24 22.5
t-36 1.5q-25 -6 -55.5 -39.5t-54.5 -76.5l-236 -425q-23 -41 6 -37q23 3 64 28q70 45 126 133q7 10 9 5q1 -3 -1 -7q-38 -66 -93.5 -116t-113.5 -64q-44 -9 -59 12q-22 29 5 87q-50 -52 -116.5 -97t-105.5 -40q-70 10 -64.5 104t83.5 232q95 171 227 269q-181 23 -342 -68z
" />
    <glyph glyph-name="Uacute" unicode="&#xda;" horiz-adv-x="899" 
d="M1019 666l-106 -34q-5 -2 -6 0.5t2 4.5l126 97q14 -10 19.5 -22t-3 -25t-32.5 -21zM418 489q-94 -52 -172.5 -150t-113.5 -215.5t5 -232.5q32 -89 120.5 -128t181 -23t143.5 73q9 11 12 7.5t-6 -12.5q-39 -46 -110.5 -67t-146.5 -14t-145.5 51t-104.5 118
q-51 121 -14.5 242t125.5 220.5t202 155.5q175 87 392 57q55 23 85.5 8t15.5 -54q-37 15 -88 25q-27 -19 -89 -103.5t-121 -202.5q-44 -86 -63 -149t-16.5 -91t18.5 -34q33 -13 127.5 67t156.5 187l105 184q18 33 39.5 63.5t51 62.5t65 51t70.5 19q50 0 64 -37q2 -5 -2 -6
t-6 4q-7 15 -24 22.5t-36 1.5q-25 -6 -55.5 -39.5t-54.5 -76.5l-236 -425q-23 -41 6 -37q23 3 64 28q70 45 126 133q7 10 9 5q1 -3 -1 -7q-38 -66 -93.5 -116t-113.5 -64q-44 -9 -59 12q-22 29 5 87q-50 -52 -116.5 -97t-105.5 -40q-70 10 -64.5 104t83.5 232
q95 171 227 269q-181 23 -342 -68z" />
    <glyph glyph-name="Ucircumflex" unicode="&#xdb;" horiz-adv-x="899" 
d="M856 630l117 104q26 0 32 -7q5 -5 9 -18l23 -79q-26 0 -35 16l-24 40l-70 -40q-26 -16 -52 -16zM418 489q-94 -52 -172.5 -150t-113.5 -215.5t5 -232.5q32 -89 120.5 -128t181 -23t143.5 73q9 11 12 7.5t-6 -12.5q-39 -46 -110.5 -67t-146.5 -14t-145.5 51t-104.5 118
q-51 121 -14.5 242t125.5 220.5t202 155.5q175 87 392 57q55 23 85.5 8t15.5 -54q-37 15 -88 25q-27 -19 -89 -103.5t-121 -202.5q-44 -86 -63 -149t-16.5 -91t18.5 -34q33 -13 127.5 67t156.5 187l105 184q18 33 39.5 63.5t51 62.5t65 51t70.5 19q50 0 64 -37q2 -5 -2 -6
t-6 4q-7 15 -24 22.5t-36 1.5q-25 -6 -55.5 -39.5t-54.5 -76.5l-236 -425q-23 -41 6 -37q23 3 64 28q70 45 126 133q7 10 9 5q1 -3 -1 -7q-38 -66 -93.5 -116t-113.5 -64q-44 -9 -59 12q-22 29 5 87q-50 -52 -116.5 -97t-105.5 -40q-70 10 -64.5 104t83.5 232
q95 171 227 269q-181 23 -342 -68z" />
    <glyph glyph-name="Udieresis" unicode="&#xdc;" horiz-adv-x="899" 
d="M905 682q2 14 14.5 23t27.5 9t24 -9t6 -23q-2 -14 -13.5 -23t-26.5 -9t-24.5 9t-7.5 23zM1007 682q2 14 14 23t27 9t24 -9t7 -23q-3 -14 -15 -23t-27 -9t-23.5 9t-6.5 23zM418 489q-94 -52 -172.5 -150t-113.5 -215.5t5 -232.5q32 -89 120.5 -128t181 -23t143.5 73
q9 11 12 7.5t-6 -12.5q-39 -46 -110.5 -67t-146.5 -14t-145.5 51t-104.5 118q-51 121 -14.5 242t125.5 220.5t202 155.5q175 87 392 57q55 23 85.5 8t15.5 -54q-37 15 -88 25q-27 -19 -89 -103.5t-121 -202.5q-44 -86 -63 -149t-16.5 -91t18.5 -34q33 -13 127.5 67
t156.5 187l105 184q18 33 39.5 63.5t51 62.5t65 51t70.5 19q50 0 64 -37q2 -5 -2 -6t-6 4q-7 15 -24 22.5t-36 1.5q-25 -6 -55.5 -39.5t-54.5 -76.5l-236 -425q-23 -41 6 -37q23 3 64 28q70 45 126 133q7 10 9 5q1 -3 -1 -7q-38 -66 -93.5 -116t-113.5 -64q-44 -9 -59 12
q-22 29 5 87q-50 -52 -116.5 -97t-105.5 -40q-70 10 -64.5 104t83.5 232q95 171 227 269q-181 23 -342 -68z" />
    <glyph glyph-name="Yacute" unicode="&#xdd;" horiz-adv-x="879" 
d="M152 -134q-47 31 -71 79.5t-22.5 102t17.5 112.5q33 107 117 202.5t200 151.5q75 37 180 53t212 4q55 23 85.5 8t15.5 -54q-37 15 -88 25q-27 -19 -89 -103.5t-121 -202.5q-44 -86 -63 -149t-16.5 -91t18.5 -34q33 -13 129 67t155 187l88 158q120 216 254 222
q78 5 135 -44q56 -48 61 -112q0 -8 -4 -4q-2 1 -3 4q-12 65 -65.5 107t-115.5 28q-23 -5 -47 -22t-40.5 -34.5t-38 -49.5t-29.5 -46.5t-26 -45.5l-185 -333q-90 -161 -213.5 -291t-258.5 -177q-72 -25 -139 -32t-131 12.5t-103 68.5q-15 14 -13 35.5t28 30.5q14 -56 53 -89
t90 -40.5t104 -0.5t104 27q80 31 163.5 116.5t144.5 179t111 197.5q-50 -52 -116.5 -97t-105.5 -40q-70 10 -64.5 104t83.5 232q95 171 227 269q-133 16 -261.5 -31.5t-220.5 -146.5q-95 -101 -135 -222q-64 -194 33 -274q37 -31 90.5 -31.5t104.5 28.5q9 6 9 0q1 -4 -4 -7
q-50 -31 -110.5 -34.5t-112.5 27.5zM1019 666l-106 -34q-5 -2 -6 0.5t2 4.5l126 97q14 -10 19.5 -22t-3 -25t-32.5 -21z" />
    <glyph glyph-name="Thorn" unicode="&#xde;" horiz-adv-x="926" 
d="M436 503q-104 -58 -184.5 -154.5t-115.5 -213.5t4 -234q92 -2 163 27q42 17 76 35t63.5 44.5t49 46.5t47 61.5t42.5 66.5t48 83l43 76q48 84 90 135t94 83q-217 54 -420 -56zM676 207q-69 -112 -154.5 -180t-210.5 -113q-83 -28 -166 -29q26 -65 85.5 -103t125 -44
t130 13.5t102.5 61.5q9 11 12 7.5t-6 -12.5q-39 -45 -109.5 -66.5t-144 -15t-143.5 48t-106 113.5q-132 12 -194 88q-14 13 -12 34.5t27 30.5q29 -112 171 -135q-34 78 -24 166t51.5 169.5t116 154t167.5 118.5q232 115 484 57q55 23 85.5 8t15.5 -54q-51 18 -87 25
q-31 -18 -61 -65q61 2 114.5 -17.5t77.5 -55.5t-4 -87q-33 -55 -121 -87.5t-222 -30.5zM702 251l-18 -30q192 -4 259 111q39 65 -3.5 103.5t-116.5 35.5q-14 -21 -33 -58z" />
    <glyph glyph-name="germandbls" unicode="&#xdf;" horiz-adv-x="418" 
d="M198 256l-143 -261q-215 -387 -450 -468q-235 -84 -341 49q-15 14 -13 35.5t28 30.5q14 -56 48 -89t79 -40.5t93 -0.5t99 27q57 22 109.5 67t107.5 124t80.5 121t80.5 140q14 24 20 35l140 249q117 210 251 210q47 0 75 -19.5t32 -50.5q3 -17 -2 -32.5t-12.5 -25.5
t-23 -20.5t-26 -16t-31 -15t-27.5 -13.5q-43 -23 -8 -96q3 -6 16.5 -36t18.5 -46q23 -71 -48 -109q-47 -27 -102 -13q-46 12 -65 55.5t4 89.5q8 16 23.5 30.5t30.5 7.5q12 -5 13 -15.5t-8 -18.5q-4 -3 -16 -11.5t-17 -13.5q-21 -28 -19 -55t28.5 -44t62.5 -9q32 6 44.5 34
t-3.5 74l-26 63q-11 25 -11.5 44.5t8.5 34t22.5 24.5t34.5 20q62 30 79 75q14 36 3 64.5t-39 30.5q-19 1 -37.5 -6t-36.5 -23t-31 -30.5t-29.5 -41t-24.5 -40t-23 -42t-18 -33.5z" />
    <glyph glyph-name="agrave" unicode="&#xe0;" horiz-adv-x="337" 
d="M337 358l-75 33q-36 18 -35 37t27 30l89 -96q4 -5 -1 -5q-2 0 -5 1zM262 308q38 -7 32 -61q20 34 43.5 44.5t63.5 10.5l-140 -253q-23 -40 -1 -37q17 3 56 31q64 48 113 132q2 4 5 4t4 -2.5t-1 -5.5q-47 -80 -107 -131.5t-103 -51.5q-19 0 -29.5 18t-2.5 51
q-58 -69 -113 -69q-34 1 -46.5 26t-5.5 60.5t28 73.5t51 74.5t73 64t80 21.5zM266 285q-20 0 -59 -39t-71 -97q-63 -114 -37 -136q5 -4 13 -4q20 0 56.5 39.5t70.5 100.5q57 102 39 130q-4 6 -12 6z" />
    <glyph glyph-name="aacute" unicode="&#xe1;" horiz-adv-x="337" 
d="M385 391l-106 -35q-5 -1 -5.5 1t2.5 5l126 96q14 -10 19 -22t-3.5 -24.5t-32.5 -20.5zM262 308q38 -7 32 -61q20 34 43.5 44.5t63.5 10.5l-140 -253q-23 -40 -1 -37q17 3 56 31q64 48 113 132q2 4 5 4t4 -2.5t-1 -5.5q-47 -80 -107 -131.5t-103 -51.5q-19 0 -29.5 18
t-2.5 51q-58 -69 -113 -69q-34 1 -46.5 26t-5.5 60.5t28 73.5t51 74.5t73 64t80 21.5zM266 285q-20 0 -59 -39t-71 -97q-63 -114 -37 -136q5 -4 13 -4q20 0 56.5 39.5t70.5 100.5q57 102 39 130q-4 6 -12 6z" />
    <glyph glyph-name="acircumflex" unicode="&#xe2;" horiz-adv-x="337" 
d="M212 355l117 103h7.5h6.5t6 -0.5t5.5 -1t4.5 -2t4.5 -4.5t3.5 -6.5t3 -8.5l24 -80q-27 0 -36 16l-24 41l-70 -41q-26 -16 -52 -16zM262 308q38 -7 32 -61q20 34 43.5 44.5t63.5 10.5l-140 -253q-23 -40 -1 -37q17 3 56 31q64 48 113 132q2 4 5 4t4 -2.5t-1 -5.5
q-47 -80 -107 -131.5t-103 -51.5q-19 0 -29.5 18t-2.5 51q-58 -69 -113 -69q-34 1 -46.5 26t-5.5 60.5t28 73.5t51 74.5t73 64t80 21.5zM266 285q-20 0 -59 -39t-71 -97q-63 -114 -37 -136q5 -4 13 -4q20 0 56.5 39.5t70.5 100.5q57 102 39 130q-4 6 -12 6z" />
    <glyph glyph-name="atilde" unicode="&#xe3;" horiz-adv-x="337" 
d="M328 378q-6 3 -19 13t-20 12q-7 3 -33 -20q-8 -10 -27 -8l9 12t11.5 14.5t10.5 11.5q39 45 77 22q6 -3 19 -12.5t19 -11.5q7 -3 33 20q13 11 27 7q-12 -19 -30 -37q-40 -46 -77 -23zM262 308q38 -7 32 -61q20 34 43.5 44.5t63.5 10.5l-140 -253q-23 -40 -1 -37
q17 3 56 31q64 48 113 132q2 4 5 4t4 -2.5t-1 -5.5q-47 -80 -107 -131.5t-103 -51.5q-19 0 -29.5 18t-2.5 51q-58 -69 -113 -69q-34 1 -46.5 26t-5.5 60.5t28 73.5t51 74.5t73 64t80 21.5zM266 285q-20 0 -59 -39t-71 -97q-63 -114 -37 -136q5 -4 13 -4q20 0 56.5 39.5
t70.5 100.5q57 102 39 130q-4 6 -12 6z" />
    <glyph glyph-name="adieresis" unicode="&#xe4;" horiz-adv-x="337" 
d="M262 308q38 -7 32 -61q20 34 43.5 44.5t63.5 10.5l-140 -253q-23 -40 -1 -37q17 3 56 31q64 48 113 132q2 4 5 4t4 -2.5t-1 -5.5q-47 -80 -107 -131.5t-103 -51.5q-19 0 -29.5 18t-2.5 51q-58 -69 -113 -69q-34 1 -46.5 26t-5.5 60.5t28 73.5t51 74.5t73 64t80 21.5z
M266 285q-20 0 -59 -39t-71 -97q-63 -114 -37 -136q5 -4 13 -4q20 0 56.5 39.5t70.5 100.5q57 102 39 130q-4 6 -12 6zM232 406q2 14 14.5 23.5t27.5 9.5t24 -9.5t7 -23.5q-3 -14 -15.5 -22.5t-25.5 -8.5q-15 0 -24.5 8.5t-7.5 22.5zM333 406q2 14 14.5 23.5t27.5 9.5
q14 0 23 -9.5t7 -23.5t-14 -22.5t-27 -8.5t-24 8.5t-7 22.5z" />
    <glyph glyph-name="aring" unicode="&#xe5;" horiz-adv-x="337" 
d="M262 308q38 -7 32 -61q20 34 43.5 44.5t63.5 10.5l-140 -253q-23 -40 -1 -37q17 3 56 31q64 48 113 132q2 4 5 4t4 -2.5t-1 -5.5q-47 -80 -107 -131.5t-103 -51.5q-19 0 -29.5 18t-2.5 51q-58 -69 -113 -69q-34 1 -46.5 26t-5.5 60.5t28 73.5t51 74.5t73 64t80 21.5z
M266 285q-20 0 -59 -39t-71 -97q-63 -114 -37 -136q5 -4 13 -4q20 0 56.5 39.5t70.5 100.5q57 102 39 130q-4 6 -12 6zM250 365q-20 13 -15 34t32 38q26 18 58 20.5t51 -9.5t14 -34t-31 -39q-27 -17 -58 -20t-51 10zM278 383q10 -24 41 -5q15 9 24 24t5 27q-2 12 -15 14
t-26 -8q-15 -10 -23.5 -24.5t-5.5 -27.5z" />
    <glyph glyph-name="ae" unicode="&#xe6;" horiz-adv-x="494" 
d="M300 -5q-31 9 -49.5 35.5t-15.5 65.5q-92 -108 -153 -108q-34 0 -46 25t-5 61t27 74q21 38 51 74.5t73 64t80 21.5q53 -12 68 -53q66 53 141 53q44 0 62 -23.5t-6 -67.5q-24 -37 -85 -62.5t-131 -36.5q-33 -75 7 -100q36 -18 78 -7t83 41q61 50 108 123q4 6 7 3.5t1 -7.5
q-55 -87 -110 -129q-93 -73 -185 -47zM208 97q4 5 43 62t69 87q-10 41 -54 39q-20 0 -59 -39t-71 -97q-63 -114 -37 -136q5 -4 13 -4q30 0 96 88zM462 296q-20 0 -53.5 -33.5t-66.5 -85.5q-9 -13 -27 -47q98 20 144 99q11 19 15.5 34.5t1 24t-13.5 8.5z" />
    <glyph glyph-name="ccedilla" unicode="&#xe7;" horiz-adv-x="294" 
d="M270 308q46 -1 63.5 -30t0 -57.5t-55.5 -28.5q-16 1 -25.5 10t-7.5 23q3 18 21.5 28t38.5 5q8 19 1 27.5t-25 9.5q-36 2 -73.5 -34.5t-65.5 -83.5q-21 -31 -31 -59q-33 -75 7 -100q36 -18 77 -7t83 41q62 50 108 123q2 4 5 4t4 -2.5t-1 -5.5q-49 -83 -109 -129
q-81 -62 -157 -53l-33 -39q38 3 59.5 -11t23 -33t-15.5 -38.5t-48 -27.5q-21 -6 -55.5 -1.5t-53.5 16.5l13 13q18 -15 59 -7.5t50 34.5q6 19 -21 27.5t-49 -3.5q-6 -2 -9.5 1t2.5 8l62 64l-13 3q-41 11 -57.5 51.5t9.5 106.5q29 65 89.5 110t129.5 45z" />
    <glyph glyph-name="egrave" unicode="&#xe8;" horiz-adv-x="293" 
d="M337 358l-75 33q-24 10 -31 24t0.5 25t22.5 18l90 -96q1 -4 -1 -5t-6 1zM261 296q-20 0 -53.5 -33.5t-66.5 -85.5q-9 -13 -27 -47q97 21 144 99q11 19 15.5 34.5t1 24t-13.5 8.5zM50 153q29 65 89.5 110t129.5 45q44 0 62 -23.5t-6 -67.5q-24 -37 -85 -62.5t-131 -36.5
q-33 -74 8 -100q59 -37 161 34q63 51 107 123q2 4 5 4t4 -2.5t-1 -5.5q-48 -82 -110 -129q-93 -73 -185 -47q-41 11 -57.5 51.5t9.5 106.5z" />
    <glyph glyph-name="eacute" unicode="&#xe9;" horiz-adv-x="293" 
d="M337 391l-105 -35q-5 -1 -6.5 0.5t1.5 5.5l126 96q15 -10 20 -22t-3.5 -24.5t-32.5 -20.5zM261 296q-20 0 -53.5 -33.5t-66.5 -85.5q-9 -13 -27 -47q97 21 144 99q11 19 15.5 34.5t1 24t-13.5 8.5zM50 153q29 65 89.5 110t129.5 45q44 0 62 -23.5t-6 -67.5
q-24 -37 -85 -62.5t-131 -36.5q-33 -74 8 -100q59 -37 161 34q63 51 107 123q2 4 5 4t4 -2.5t-1 -5.5q-48 -82 -110 -129q-93 -73 -185 -47q-41 11 -57.5 51.5t9.5 106.5z" />
    <glyph glyph-name="ecircumflex" unicode="&#xea;" horiz-adv-x="293" 
d="M194 355l118 103h6h6h5.5t5 -0.5t4 -1.5t4 -3t3.5 -4.5t3.5 -6t2.5 -7.5l23 -80q-25 0 -35 16l-24 41l-70 -41q-26 -16 -52 -16zM261 296q-20 0 -53.5 -33.5t-66.5 -85.5q-9 -13 -27 -47q97 21 144 99q11 19 15.5 34.5t1 24t-13.5 8.5zM50 153q29 65 89.5 110t129.5 45
q44 0 62 -23.5t-6 -67.5q-24 -37 -85 -62.5t-131 -36.5q-33 -74 8 -100q59 -37 161 34q63 51 107 123q2 4 5 4t4 -2.5t-1 -5.5q-48 -82 -110 -129q-93 -73 -185 -47q-41 11 -57.5 51.5t9.5 106.5z" />
    <glyph glyph-name="edieresis" unicode="&#xeb;" horiz-adv-x="293" 
d="M221 406q2 14 14.5 23.5t27.5 9.5t24 -9.5t6 -23.5q-2 -14 -13.5 -22.5t-26.5 -8.5t-24.5 8.5t-7.5 22.5zM323 406q2 14 14 23.5t27 9.5t24 -9.5t7 -23.5q-3 -14 -15 -22.5t-27 -8.5t-24 8.5t-6 22.5zM261 296q-20 0 -53.5 -33.5t-66.5 -85.5q-9 -13 -27 -47
q97 21 144 99q11 19 15.5 34.5t1 24t-13.5 8.5zM50 153q29 65 89.5 110t129.5 45q44 0 62 -23.5t-6 -67.5q-24 -37 -85 -62.5t-131 -36.5q-33 -74 8 -100q59 -37 161 34q63 51 107 123q2 4 5 4t4 -2.5t-1 -5.5q-48 -82 -110 -129q-93 -73 -185 -47q-41 11 -57.5 51.5
t9.5 106.5z" />
    <glyph glyph-name="igrave" unicode="&#xec;" horiz-adv-x="165" 
d="M45 108l107 194q17 0 29 -7t17 -24.5t-12 -46.5l-97 -175q-24 -41 0 -37q18 4 56 31q65 50 113 132q2 4 4.5 4t3.5 -2.5t-1 -5.5q-47 -80 -107 -131.5t-103 -51.5q-16 0 -26.5 12t-8 40.5t24.5 67.5zM272 358l-76 33q-24 10 -30.5 24t1 25t22.5 18l89 -96q1 -4 -0.5 -5
t-5.5 1z" />
    <glyph glyph-name="iacute" unicode="&#xed;" horiz-adv-x="165" 
d="M45 108l107 194q17 0 29 -7t17 -24.5t-12 -46.5l-97 -175q-24 -41 0 -37q18 4 56 31q65 50 113 132q2 4 4.5 4t3.5 -2.5t-1 -5.5q-47 -80 -107 -131.5t-103 -51.5q-16 0 -26.5 12t-8 40.5t24.5 67.5zM261 391l-106 -35q-4 -1 -5 1t2 5l126 96q14 -10 19 -22t-3.5 -24.5
t-32.5 -20.5z" />
    <glyph glyph-name="icircumflex" unicode="&#xee;" horiz-adv-x="165" 
d="M45 108l107 194q17 0 29 -7t17 -24.5t-12 -46.5l-97 -175q-24 -41 0 -37q18 4 56 31q65 50 113 132q2 4 4.5 4t3.5 -2.5t-1 -5.5q-47 -80 -107 -131.5t-103 -51.5q-16 0 -26.5 12t-8 40.5t24.5 67.5zM116 355l118 103h6h6h5.5t5 -0.5t4 -1.5t4 -3t3.5 -4.5t3.5 -6
t2.5 -7.5l24 -80q-26 0 -35 16l-25 41l-70 -41q-26 -16 -52 -16z" />
    <glyph glyph-name="idieresis" unicode="&#xef;" horiz-adv-x="165" 
d="M45 108l107 194q17 0 29 -7t17 -24.5t-12 -46.5l-97 -175q-24 -41 0 -37q18 4 56 31q65 50 113 132q2 4 4.5 4t3.5 -2.5t-1 -5.5q-47 -80 -107 -131.5t-103 -51.5q-16 0 -26.5 12t-8 40.5t24.5 67.5zM159 406q2 14 15 23.5t28 9.5q14 0 23 -9.5t7 -23.5
q-3 -14 -14.5 -22.5t-26.5 -8.5t-24.5 8.5t-7.5 22.5zM260 406q2 14 14.5 23.5t27.5 9.5q14 0 23 -9.5t7 -23.5t-14 -22.5t-27 -8.5t-24 8.5t-7 22.5z" />
    <glyph glyph-name="eth" unicode="&#xf0;" horiz-adv-x="311" 
d="M408 458l-68 -38q27 -58 20.5 -134.5t-42.5 -137.5q-41 -72 -98 -116.5t-122 -44.5q-43 0 -60.5 22t-11 57t31.5 82q44 78 105 121q20 15 46.5 26.5t56 11t40.5 -23.5q13 64 0 118l-81 -46q-5 -3 -9 -1.5t-4 6t6 8.5l84 47q-16 49 -52 71q-4 1 -6 4t0 4t8 0
q53 -15 80 -62l68 39q6 3 10.5 1.5t4 -6.5t-6.5 -8zM268 293q-24 0 -63.5 -42t-73.5 -103q-55 -101 -42 -137q5 -11 16 -11q32 0 86 62q69 81 97 165q21 66 -20 66z" />
    <glyph glyph-name="ntilde" unicode="&#xf1;" 
d="M423 175q2 4 5 4t4 -2.5t-1 -5.5q-47 -80 -107 -131.5t-103 -51.5q-16 0 -26.5 11.5t-8 40t23.5 68.5l77 138q24 41 0 38q-21 -2 -58 -33q-42 -33 -72 -79l-99 -178q-17 0 -29 7t-16.5 24.5t12.5 46.5l127 230q15 0 27 -7t18 -22.5t-8 -41.5q77 77 131 77q16 0 26.5 -12
t8.5 -40.5t-23 -67.5l-77 -139q-23 -40 -1 -37q17 3 56 31q65 50 113 132zM297 378q-3 2 -17.5 12.5t-20.5 12.5q-10 3 -33 -20q-8 -10 -27 -8q19 26 31 38q38 46 77 22q5 -3 12.5 -9t14 -10t11.5 -5q7 -3 33 20q11 11 27 7q-16 -22 -31 -37q-40 -46 -77 -23z" />
    <glyph glyph-name="ograve" unicode="&#xf2;" horiz-adv-x="325" 
d="M98 -13q-43 0 -60.5 22t-11 57t31.5 82q41 71 98 115.5t120 44.5q64 0 73 -46.5t-31 -113.5q-59 -101 -135 -140q25 -4 62 7t60 30q64 47 113 130q2 4 4.5 4t3.5 -2.5t-1 -5.5q-54 -90 -113 -136q-26 -20 -72.5 -34.5t-75.5 -0.5q-37 -13 -66 -13zM268 293
q-24 0 -63.5 -42t-73.5 -103q-55 -101 -42 -137q5 -11 16 -11q19 0 42 18l-2 10q-2 16 6.5 31.5t23.5 22.5q17 7 32 -1q56 68 81 146q21 66 -20 66zM342 358l-75 33q-36 18 -35 37t27 30l89 -96q4 -5 -1 -5q-2 0 -5 1z" />
    <glyph glyph-name="oacute" unicode="&#xf3;" horiz-adv-x="325" 
d="M98 -13q-43 0 -60.5 22t-11 57t31.5 82q41 71 98 115.5t120 44.5q64 0 73 -46.5t-31 -113.5q-59 -101 -135 -140q25 -4 62 7t60 30q64 47 113 130q2 4 4.5 4t3.5 -2.5t-1 -5.5q-54 -90 -113 -136q-26 -20 -72.5 -34.5t-75.5 -0.5q-37 -13 -66 -13zM268 293
q-24 0 -63.5 -42t-73.5 -103q-55 -101 -42 -137q5 -11 16 -11q19 0 42 18l-2 10q-2 16 6.5 31.5t23.5 22.5q17 7 32 -1q56 68 81 146q21 66 -20 66zM358 391l-106 -35q-5 -1 -6 0.5t2 5.5l126 96q23 -13 21 -34t-37 -33z" />
    <glyph glyph-name="ocircumflex" unicode="&#xf4;" horiz-adv-x="325" 
d="M98 -13q-43 0 -60.5 22t-11 57t31.5 82q41 71 98 115.5t120 44.5q64 0 73 -46.5t-31 -113.5q-59 -101 -135 -140q25 -4 62 7t60 30q64 47 113 130q2 4 4.5 4t3.5 -2.5t-1 -5.5q-54 -90 -113 -136q-26 -20 -72.5 -34.5t-75.5 -0.5q-37 -13 -66 -13zM268 293
q-24 0 -63.5 -42t-73.5 -103q-55 -101 -42 -137q5 -11 16 -11q19 0 42 18l-2 10q-2 16 6.5 31.5t23.5 22.5q17 7 32 -1q56 68 81 146q21 66 -20 66zM201 355l118 103h6h6h5.5t5 -0.5t4 -1.5t4 -3t3.5 -4.5t3.5 -6t2.5 -7.5l23 -80q-25 0 -35 16l-24 41l-70 -41
q-26 -16 -52 -16z" />
    <glyph glyph-name="otilde" unicode="&#xf5;" horiz-adv-x="325" 
d="M98 -13q-43 0 -60.5 22t-11 57t31.5 82q41 71 98 115.5t120 44.5q64 0 73 -46.5t-31 -113.5q-59 -101 -135 -140q25 -4 62 7t60 30q64 47 113 130q2 4 4.5 4t3.5 -2.5t-1 -5.5q-54 -90 -113 -136q-26 -20 -72.5 -34.5t-75.5 -0.5q-37 -13 -66 -13zM268 293
q-24 0 -63.5 -42t-73.5 -103q-55 -101 -42 -137q5 -11 16 -11q19 0 42 18l-2 10q-2 16 6.5 31.5t23.5 22.5q17 7 32 -1q56 68 81 146q21 66 -20 66zM322 378q-6 3 -19.5 13t-19.5 12q-9 4 -33 -20q-10 -10 -28 -8l9 12t11.5 14.5t10.5 11.5q42 44 77 22q6 -3 19 -12.5
t19 -11.5q8 -3 34 20q13 11 27 7q-16 -22 -31 -37q-40 -46 -76 -23z" />
    <glyph glyph-name="odieresis" unicode="&#xf6;" horiz-adv-x="325" 
d="M98 -13q-43 0 -60.5 22t-11 57t31.5 82q41 71 98 115.5t120 44.5q64 0 73 -46.5t-31 -113.5q-59 -101 -135 -140q25 -4 62 7t60 30q64 47 113 130q2 4 4.5 4t3.5 -2.5t-1 -5.5q-54 -90 -113 -136q-26 -20 -72.5 -34.5t-75.5 -0.5q-37 -13 -66 -13zM268 293
q-24 0 -63.5 -42t-73.5 -103q-55 -101 -42 -137q5 -11 16 -11q19 0 42 18l-2 10q-2 16 6.5 31.5t23.5 22.5q17 7 32 -1q56 68 81 146q21 66 -20 66zM228 406q2 14 14.5 23.5t27.5 9.5t24 -9.5t7 -23.5q-3 -14 -15.5 -22.5t-25.5 -8.5q-15 0 -24.5 8.5t-7.5 22.5zM329 406
q2 14 14.5 23.5t27.5 9.5q14 0 23 -9.5t7 -23.5t-14 -22.5t-27 -8.5t-24 8.5t-7 22.5z" />
    <glyph glyph-name="divide" unicode="&#xf7;" horiz-adv-x="353" 
d="M128 58q2 12 14 20t27 8t24 -8t7 -20q-2 -13 -14.5 -21.5t-26.5 -8.5q-15 0 -24 8.5t-7 21.5zM227 237q2 12 14.5 20.5t27.5 8.5t24 -8.5t6 -20.5q-2 -12 -14.5 -20t-26.5 -8q-15 0 -24 8t-7 20zM95 160h251l-12 -24h-251z" />
    <glyph glyph-name="oslash" unicode="&#xf8;" horiz-adv-x="312" 
d="M98 -13q-9 0 -23 2l-83 -107h-19l86 111q-24 9 -31 32t1 54t29 69q41 71 98 115.5t120 44.5q9 0 25 -2l84 108h20l-88 -113q34 -18 33 -57t-32 -96q-59 -101 -135 -140q25 -4 62 7t60 30q64 47 113 130q2 4 4.5 4t3.5 -2.5t-1 -5.5q-54 -90 -113 -136
q-26 -20 -72.5 -34.5t-75.5 -0.5q-37 -13 -66 -13zM268 293q-24 0 -68 -42t-78 -105q-53 -93 -43 -127l208 268q-8 6 -19 6zM294 229q7 26 2 44l-209 -268q7 -5 18 -5q19 0 42 18l-2 10q-2 16 6.5 31.5t23.5 22.5q21 8 38 -4q64 78 81 151z" />
    <glyph glyph-name="ugrave" unicode="&#xf9;" 
d="M324 358l-75 33q-24 10 -31 24t0.5 25t22.5 18l90 -96q1 -4 -1 -5t-6 1zM196 75q-35 -35 -75 -61t-65 -26q-16 0 -26.5 12t-8.5 40.5t24 67.5l107 194q17 0 29 -7t16 -24t-13 -46l-97 -175q-21 -38 0 -36t63 37q43 34 74 77l60 109q22 41 46 53t65 12l-140 -253
q-23 -40 -1 -37q17 3 56 31q65 50 113 132q2 4 5 4t4 -2.5t-1 -5.5q-47 -80 -107 -131.5t-103 -51.5q-22 0 -30 21t5 66z" />
    <glyph glyph-name="uacute" unicode="&#xfa;" 
d="M196 75q-35 -35 -75 -61t-65 -26q-16 0 -26.5 12t-8.5 40.5t24 67.5l107 194q17 0 29 -7t16 -24t-13 -46l-97 -175q-21 -38 0 -36t63 37q43 34 74 77l60 109q22 41 46 53t65 12l-140 -253q-23 -40 -1 -37q17 3 56 31q65 50 113 132q2 4 5 4t4 -2.5t-1 -5.5
q-47 -80 -107 -131.5t-103 -51.5q-22 0 -30 21t5 66zM355 391l-105 -35q-5 -1 -6.5 0.5t1.5 5.5l126 96q15 -10 20 -22t-3.5 -24.5t-32.5 -20.5z" />
    <glyph glyph-name="ucircumflex" unicode="&#xfb;" 
d="M194 355l118 103h6h6h5.5t5 -0.5t4 -1.5t4 -3t3.5 -4.5t3.5 -6t2.5 -7.5l23 -80q-25 0 -35 16l-24 41l-70 -41q-26 -16 -52 -16zM196 75q-35 -35 -75 -61t-65 -26q-16 0 -26.5 12t-8.5 40.5t24 67.5l107 194q17 0 29 -7t16 -24t-13 -46l-97 -175q-21 -38 0 -36t63 37
q43 34 74 77l60 109q22 41 46 53t65 12l-140 -253q-23 -40 -1 -37q17 3 56 31q65 50 113 132q2 4 5 4t4 -2.5t-1 -5.5q-47 -80 -107 -131.5t-103 -51.5q-22 0 -30 21t5 66z" />
    <glyph glyph-name="udieresis" unicode="&#xfc;" 
d="M221 406q2 14 15 23.5t28 9.5q14 0 23 -9.5t7 -23.5q-3 -14 -14.5 -22.5t-26.5 -8.5t-24.5 8.5t-7.5 22.5zM323 406q2 14 14 23.5t27 9.5t24 -9.5t7 -23.5q-3 -14 -14.5 -22.5t-26.5 -8.5t-24 8.5t-7 22.5zM196 75q-35 -35 -75 -61t-65 -26q-16 0 -26.5 12t-8.5 40.5
t24 67.5l107 194q17 0 29 -7t16 -24t-13 -46l-97 -175q-21 -38 0 -36t63 37q43 34 74 77l60 109q22 41 46 53t65 12l-140 -253q-23 -40 -1 -37q17 3 56 31q65 50 113 132q2 4 5 4t4 -2.5t-1 -5.5q-47 -80 -107 -131.5t-103 -51.5q-22 0 -30 21t5 66z" />
    <glyph glyph-name="yacute" unicode="&#xfd;" horiz-adv-x="308" 
d="M337 391l-105 -35q-5 -1 -6.5 0.5t1.5 5.5l126 96q15 -10 20 -22t-3.5 -24.5t-32.5 -20.5zM167 26l28 49q-35 -35 -74.5 -61t-64.5 -26q-16 0 -26.5 12t-8.5 40.5t24 67.5l107 194q17 0 29 -7t16 -24t-13 -46l-97 -175q-21 -38 0 -36t63 37q43 34 74 77l60 109
q22 41 46 53t65 12l-169 -307q-215 -387 -450 -468q-235 -84 -341 49q-15 14 -13 35.5t28 30.5q14 -56 48 -89t79 -40.5t93 -0.5t99 27q28 11 55 27.5t53.5 42t47.5 46.5t47.5 58t42.5 58.5t43 66t37.5 62.5t38 66.5t33.5 59.5z" />
    <glyph glyph-name="thorn" unicode="&#xfe;" horiz-adv-x="325" 
d="M8 26l152 276q218 382 451 467q235 84 341 -49q14 -13 12.5 -36t-27.5 -30q-14 56 -48 89t-79 40.5t-93 0.5t-99 -27q-46 -18 -93 -56.5t-82 -78.5t-77.5 -104.5t-66.5 -105.5t-62 -110l-25 -44h1q50 51 96 50q50 -2 53.5 -53.5t-30.5 -106.5q-35 -63 -93 -116t-112 -44
q-37 7 -35 52l-25 -45q-215 -387 -450 -468q-235 -84 -341 49q-15 14 -13 35.5t28 30.5q14 -56 48 -89t79 -40.5t93 -0.5t99 27q41 16 80.5 45t78 73.5t67 81.5t65.5 99t54.5 93.5zM121 12q21 0 60 38.5t71 97.5q22 39 31 71t6 48.5t-17 16.5q-21 0 -54.5 -37.5t-67.5 -98.5
q-64 -118 -37 -134q3 -2 8 -2z" />
    <glyph glyph-name="ydieresis" unicode="&#xff;" horiz-adv-x="308" 
d="M221 406q2 14 15 23.5t28 9.5q14 0 23 -9.5t7 -23.5q-3 -14 -14.5 -22.5t-26.5 -8.5t-24.5 8.5t-7.5 22.5zM323 406q2 14 14 23.5t27 9.5t24 -9.5t7 -23.5q-3 -14 -14.5 -22.5t-26.5 -8.5t-24 8.5t-7 22.5zM167 26l28 49q-35 -35 -74.5 -61t-64.5 -26q-16 0 -26.5 12
t-8.5 40.5t24 67.5l107 194q17 0 29 -7t16 -24t-13 -46l-97 -175q-21 -38 0 -36t63 37q43 34 74 77l60 109q22 41 46 53t65 12l-169 -307q-215 -387 -450 -468q-235 -84 -341 49q-15 14 -13 35.5t28 30.5q14 -56 48 -89t79 -40.5t93 -0.5t99 27q28 11 55 27.5t53.5 42
t47.5 46.5t47.5 58t42.5 58.5t43 66t37.5 62.5t38 66.5t33.5 59.5z" />
    <glyph glyph-name="Amacron" unicode="&#x100;" horiz-adv-x="1002" 
d="M849 108l53 92h-204q-79 -104 -172 -173t-215 -113q-83 -28 -166 -29q26 -65 85.5 -103t125 -44t130 13.5t102.5 61.5q9 11 12 7.5t-6 -12.5q-39 -45 -109.5 -66.5t-144 -15t-143.5 48t-106 113.5q-132 12 -194 88q-14 13 -12 34.5t27 30.5q29 -112 171 -135
q-34 78 -24 166t51.5 169.5t116 154t167.5 118.5q253 124 532 46q64 41 109 27q50 -19 37 -103q37 54 96 54l-271 -489q-23 -42 7 -38q24 3 64 28q72 47 126 134q5 9 9 3q2 -2 -1 -6q-39 -66 -95 -117t-113 -62q-44 -11 -59 11q-26 34 14 106zM654 255l115 147
q89 107 139 145q-250 77 -472 -44q-104 -58 -184.5 -154.5t-115.5 -213.5t4 -234q92 -2 163 27q29 11 57 27t48.5 29t47.5 38.5t40 38t41.5 46.5t37 44.5t40.5 52.5t39 51zM854 410l-143 -193l-2 -2h201l91 157q35 59 47 107.5t4.5 72.5t-24.5 26q-48 3 -174 -168zM1126 661
h-114q-15 0 -15 12q0 14 18 17q3 1 7 1h113q16 0 16 -12q1 -13 -16 -17q-4 -1 -9 -1z" />
    <glyph glyph-name="amacron" unicode="&#x101;" horiz-adv-x="337" 
d="M367 385h-114q-16 0 -15 12q6 14 25 17h113q16 0 16 -12q-6 -14 -25 -17zM262 308q38 -7 32 -61q20 34 43.5 44.5t63.5 10.5l-140 -253q-23 -40 -1 -37q17 3 56 31q64 48 113 132q2 4 5 4t4 -2.5t-1 -5.5q-47 -80 -107 -131.5t-103 -51.5q-19 0 -29.5 18t-2.5 51
q-58 -69 -113 -69q-34 1 -46.5 26t-5.5 60.5t28 73.5t51 74.5t73 64t80 21.5zM266 285q-20 0 -59 -39t-71 -97q-63 -114 -37 -136q5 -4 13 -4q20 0 56.5 39.5t70.5 100.5q57 102 39 130q-4 6 -12 6z" />
    <glyph glyph-name="Abreve" unicode="&#x102;" horiz-adv-x="1002" 
d="M849 108l53 92h-204q-79 -104 -172 -173t-215 -113q-83 -28 -166 -29q26 -65 85.5 -103t125 -44t130 13.5t102.5 61.5q9 11 12 7.5t-6 -12.5q-39 -45 -109.5 -66.5t-144 -15t-143.5 48t-106 113.5q-132 12 -194 88q-14 13 -12 34.5t27 30.5q29 -112 171 -135
q-34 78 -24 166t51.5 169.5t116 154t167.5 118.5q253 124 532 46q64 41 109 27q50 -19 37 -103q37 54 96 54l-271 -489q-23 -42 7 -38q24 3 64 28q72 47 126 134q5 9 9 3q2 -2 -1 -6q-39 -66 -95 -117t-113 -62q-44 -11 -59 11q-26 34 14 106zM654 255l115 147
q89 107 139 145q-250 77 -472 -44q-104 -58 -184.5 -154.5t-115.5 -213.5t4 -234q92 -2 163 27q29 11 57 27t48.5 29t47.5 38.5t40 38t41.5 46.5t37 44.5t40.5 52.5t39 51zM854 410l-143 -193l-2 -2h201l91 157q35 59 47 107.5t4.5 72.5t-24.5 26q-48 3 -174 -168zM1189 724
q6 14 13 9q4 -2 2 -9q-17 -47 -48.5 -71.5t-67.5 -20.5q-78 6 -41 92q5 12 12 9q6 -2 4 -11q-9 -45 31 -51q38 -5 73 25q15 13 22 28z" />
    <glyph glyph-name="abreve" unicode="&#x103;" horiz-adv-x="337" 
d="M262 308q38 -7 32 -61q20 34 43.5 44.5t63.5 10.5l-140 -253q-23 -40 -1 -37q17 3 56 31q64 48 113 132q2 4 5 4t4 -2.5t-1 -5.5q-47 -80 -107 -131.5t-103 -51.5q-19 0 -29.5 18t-2.5 51q-58 -69 -113 -69q-34 1 -46.5 26t-5.5 60.5t28 73.5t51 74.5t73 64t80 21.5z
M266 285q-20 0 -59 -39t-71 -97q-63 -114 -37 -136q5 -4 13 -4q20 0 56.5 39.5t70.5 100.5q57 102 39 130q-4 6 -12 6zM414 448q6 14 13 9q4 -2 2 -9q-17 -47 -48.5 -71.5t-67.5 -20.5q-78 6 -41 92q5 12 12 9q6 -2 4 -11q-9 -45 31 -51q38 -5 73 25q15 13 22 28z" />
    <glyph glyph-name="Aogonek" unicode="&#x104;" horiz-adv-x="1002" 
d="M849 108l53 92h-204q-79 -104 -172 -173t-215 -113q-83 -28 -166 -29q26 -65 85.5 -103t125 -44t130 13.5t102.5 61.5q9 11 12 7.5t-6 -12.5q-39 -45 -109.5 -66.5t-144 -15t-143.5 48t-106 113.5q-132 12 -194 88q-14 13 -12 34.5t27 30.5q29 -112 171 -135
q-34 78 -24 166t51.5 169.5t116 154t167.5 118.5q253 124 532 46q64 41 109 27q50 -19 37 -103q37 54 96 54l-271 -489q-23 -42 7 -38q24 3 64 28q72 47 126 134q5 9 9 3q2 -2 -1 -6q-39 -66 -95 -117t-113 -62q-32 -6 -45 0q-75 -45 -75 -88q0 -24 27 -27t47 19q7 8 11 3
q3 -3 -2 -8q-18 -25 -52.5 -34.5t-62 1.5t-27.5 38q0 14 9 27t26.5 25t30.5 19.5t34.5 17.5t24.5 12l-5 6q-26 34 14 106zM436 503q-104 -58 -184.5 -154.5t-115.5 -213.5t4 -234q92 -2 163 27q29 11 57 27t48.5 29t47.5 38.5t40 38t41.5 46.5t37 44.5t40.5 52.5t39 51
l115 147q89 107 139 145q-250 77 -472 -44zM854 410l-143 -193l-2 -2h201l91 157q35 59 47 107.5t4.5 72.5t-24.5 26q-48 3 -174 -168z" />
    <glyph glyph-name="aogonek" unicode="&#x105;" horiz-adv-x="337" 
d="M222 -105q8 8 11 3q2 -3 -1 -8q-18 -25 -52.5 -34.5t-62.5 1.5t-28 38q0 9 4 18.5t13.5 18t17.5 15t22 15t21.5 12.5t22.5 11t18 9q-26 14 -13 63q-58 -69 -113 -69q-34 1 -46.5 26t-5.5 60.5t28 73.5t51 74.5t73 64t80 21.5q38 -7 32 -61q20 34 43.5 44.5t63.5 10.5
l-140 -253q-23 -40 -1 -37q17 3 56 31q64 48 113 132q2 4 5 4t4 -2.5t-1 -5.5q-47 -80 -107 -131.5t-103 -51.5h-5q-29 -15 -51.5 -38.5t-22.5 -46.5q0 -24 27 -27t47 19zM266 285q-20 0 -59 -39t-71 -97q-63 -114 -37 -136q5 -4 13 -4q20 0 56.5 39.5t70.5 100.5
q57 102 39 130q-4 6 -12 6z" />
    <glyph glyph-name="Cacute" unicode="&#x106;" horiz-adv-x="690" 
d="M738 668l-105 -36q-5 -1 -6 1.5t2 4.5l125 97q24 -13 22 -34t-38 -33zM596 -36q-92 -59 -189 -84t-182 0q-63 18 -101 56t-48 85.5t-1 99.5t36 104q38 74 102 144t140 123.5t162.5 80t162.5 13.5q37 -7 61 -28t22 -55q0 -25 -22 -49t-51 -24q-21 0 -33 10.5t-9 27.5
q2 16 19 27t37 11q10 0 18 -3q13 28 1 44.5t-40 23.5q-40 10 -98.5 -6t-114.5 -49q-92 -55 -169 -139t-121 -173q-30 -61 -38 -118t12.5 -106t71.5 -75q69 -31 167.5 -11t194.5 79q103 65 193 199q4 7 9 3q3 -2 0 -7q-83 -132 -192 -204z" />
    <glyph glyph-name="cacute" unicode="&#x107;" horiz-adv-x="294" 
d="M347 391l-105 -35q-5 -1 -6.5 0.5t1.5 5.5l126 96q15 -10 20 -22t-3.5 -24.5t-32.5 -20.5zM270 308q46 -1 63.5 -30t0 -57.5t-55.5 -28.5q-16 1 -25.5 10t-7.5 23q3 18 21.5 28t38.5 5q8 19 1 27.5t-25 9.5q-36 2 -73.5 -34.5t-65.5 -83.5q-21 -31 -31 -59
q-33 -75 7 -100q36 -18 77 -7t83 41q62 50 108 123q2 4 5 4t4 -2.5t-1 -5.5q-49 -83 -109 -129q-93 -73 -186 -47q-41 11 -57.5 51.5t9.5 106.5q29 65 89.5 110t129.5 45z" />
    <glyph glyph-name="Ccircumflex" unicode="&#x108;" horiz-adv-x="690" 
d="M588 632l117 103h7h7t5.5 -0.5t6 -1.5t4.5 -2.5t4.5 -4t3.5 -6.5t3 -9l24 -79q-26 0 -35 16l-25 40l-69 -40q-26 -16 -53 -16zM596 -36q-92 -59 -189 -84t-182 0q-63 18 -101 56t-48 85.5t-1 99.5t36 104q38 74 102 144t140 123.5t162.5 80t162.5 13.5q37 -7 61 -28
t22 -55q0 -25 -22 -49t-51 -24q-21 0 -33 10.5t-9 27.5q2 16 19 27t37 11q10 0 18 -3q13 28 1 44.5t-40 23.5q-40 10 -98.5 -6t-114.5 -49q-92 -55 -169 -139t-121 -173q-30 -61 -38 -118t12.5 -106t71.5 -75q69 -31 167.5 -11t194.5 79q103 65 193 199q4 7 9 3q3 -2 0 -7
q-83 -132 -192 -204z" />
    <glyph glyph-name="ccircumflex" unicode="&#x109;" horiz-adv-x="294" 
d="M194 355l118 103h6h6h5.5t5 -0.5t4 -1.5t4 -3t3.5 -4.5t3.5 -6t2.5 -7.5l23 -80q-25 0 -35 16l-24 41l-70 -41q-26 -16 -52 -16zM270 308q46 -1 63.5 -30t0 -57.5t-55.5 -28.5q-16 1 -25.5 10t-7.5 23q3 18 21.5 28t38.5 5q8 19 1 27.5t-25 9.5q-36 2 -73.5 -34.5
t-65.5 -83.5q-21 -31 -31 -59q-33 -75 7 -100q36 -18 77 -7t83 41q62 50 108 123q2 4 5 4t4 -2.5t-1 -5.5q-49 -83 -109 -129q-93 -73 -186 -47q-41 11 -57.5 51.5t9.5 106.5q29 65 89.5 110t129.5 45z" />
    <glyph glyph-name="Cdotaccent" unicode="&#x10a;" horiz-adv-x="690" 
d="M626 677q3 16 20 27.5t37 11.5q19 0 31 -11.5t9 -27.5q-3 -17 -19.5 -28t-35.5 -11q-20 0 -32 11t-10 28zM596 -36q-92 -59 -189 -84t-182 0q-63 18 -101 56t-48 85.5t-1 99.5t36 104q38 74 102 144t140 123.5t162.5 80t162.5 13.5q37 -7 61 -28t22 -55q0 -25 -22 -49
t-51 -24q-21 0 -33 10.5t-9 27.5q2 16 19 27t37 11q10 0 18 -3q13 28 1 44.5t-40 23.5q-40 10 -98.5 -6t-114.5 -49q-92 -55 -169 -139t-121 -173q-30 -61 -38 -118t12.5 -106t71.5 -75q69 -31 167.5 -11t194.5 79q103 65 193 199q4 7 9 3q3 -2 0 -7q-83 -132 -192 -204z
" />
    <glyph glyph-name="cdotaccent" unicode="&#x10b;" horiz-adv-x="294" 
d="M265 401q3 16 20 27.5t37 11.5q19 0 31 -11.5t9 -27.5q-3 -17 -19.5 -28t-35.5 -11q-20 0 -32 11t-10 28zM270 308q46 -1 63.5 -30t0 -57.5t-55.5 -28.5q-16 1 -25.5 10t-7.5 23q3 18 21.5 28t38.5 5q8 19 1 27.5t-25 9.5q-36 2 -73.5 -34.5t-65.5 -83.5q-21 -31 -31 -59
q-33 -75 7 -100q36 -18 77 -7t83 41q62 50 108 123q2 4 5 4t4 -2.5t-1 -5.5q-49 -83 -109 -129q-93 -73 -186 -47q-41 11 -57.5 51.5t9.5 106.5q29 65 89.5 110t129.5 45z" />
    <glyph glyph-name="Ccaron" unicode="&#x10c;" horiz-adv-x="690" 
d="M796 735l-78 -75q-14 -14 -25.5 -20t-19.5 -7t-29 -1l-18 103q26 0 36 -20l18 -38l65 42q22 16 51 16zM596 -36q-92 -59 -189 -84t-182 0q-63 18 -101 56t-48 85.5t-1 99.5t36 104q38 74 102 144t140 123.5t162.5 80t162.5 13.5q37 -7 61 -28t22 -55q0 -25 -22 -49
t-51 -24q-21 0 -33 10.5t-9 27.5q2 16 19 27t37 11q10 0 18 -3q13 28 1 44.5t-40 23.5q-40 10 -98.5 -6t-114.5 -49q-92 -55 -169 -139t-121 -173q-30 -61 -38 -118t12.5 -106t71.5 -75q69 -31 167.5 -11t194.5 79q103 65 193 199q4 7 9 3q3 -2 0 -7q-83 -132 -192 -204z
" />
    <glyph glyph-name="ccaron" unicode="&#x10d;" horiz-adv-x="294" 
d="M432 458l-78 -75q-14 -14 -25.5 -20t-19.5 -7t-29 -1l-18 103q26 0 36 -20l18 -37l65 42q8 6 15.5 9.5t13 5t9 1.5t8 -0.5t5.5 -0.5zM270 308q46 -1 63.5 -30t0 -57.5t-55.5 -28.5q-16 1 -25.5 10t-7.5 23q3 18 21.5 28t38.5 5q8 19 1 27.5t-25 9.5q-36 2 -73.5 -34.5
t-65.5 -83.5q-21 -31 -31 -59q-33 -75 7 -100q36 -18 77 -7t83 41q62 50 108 123q2 4 5 4t4 -2.5t-1 -5.5q-49 -83 -109 -129q-93 -73 -186 -47q-41 11 -57.5 51.5t9.5 106.5q29 65 89.5 110t129.5 45z" />
    <glyph glyph-name="Dcaron" unicode="&#x10e;" horiz-adv-x="1024" 
d="M840 632l-18 103q26 0 36 -20l18 -38l66 42q8 6 15 9.5t13 5t9 2t8 0t6 -0.5l-79 -75q-14 -14 -25.5 -20t-19.5 -7t-29 -1zM781 1q58 24 105 75t70.5 114.5t26.5 128.5t-28.5 123.5t-93.5 91.5q-32 -36 -88 -135l-120 -220q-37 -69 -72.5 -111t-90.5 -65q45 -13 93 -19.5
t102.5 -3t95.5 20.5zM388 514q111 57 233.5 70t227.5 -23q21 15 53 28q51 22 100.5 12.5t76.5 -50.5q12 -14 8.5 -34t-30.5 -28q0 52 -37 85.5t-90 10.5q-30 -13 -54 -36q71 -34 114.5 -94t50.5 -128.5t-10 -136t-67.5 -122t-122.5 -80.5q-85 -29 -186 -25t-187 34
q-36 -10 -69 -9q-51 4 -76 24.5t-27 69.5q97 -47 155 -64q12 3 25 13.5t27.5 31t23.5 35t25.5 43t22.5 37.5l89 162q86 146 167 208q-90 34 -203 19t-212 -73q-65 -39 -126 -101.5t-108 -145t-59 -172.5t20 -184q24 -67 83.5 -107t126 -46.5t132 13t103.5 62.5q9 11 12 7.5
t-6 -12.5q-39 -45 -111.5 -67t-148.5 -15.5t-146 50.5t-101 120q-45 117 -18.5 234t112 219.5t207.5 164.5z" />
    <glyph glyph-name="dcaron" unicode="&#x10f;" horiz-adv-x="512" 
d="M636 435q-6 -37 -50 -80.5t-88 -63.5q-8 -5 -10 2q-2 5 6 9q55 28 93 94q-24 -4 -37.5 8.5t-10.5 30.5q3 15 20 26.5t36 11.5q20 0 31.5 -11t9.5 -27zM266 285q-20 0 -59 -39t-71 -97q-63 -114 -37 -136q5 -4 13 -4q20 0 56.5 39.5t70.5 100.5q57 102 39 130q-4 6 -12 6z
M294 248l29 53q218 383 452 468q235 84 341 -49q14 -13 12.5 -36t-27.5 -30q-14 56 -48 89t-79 40.5t-93 0.5t-99 -27q-57 -22 -109.5 -67t-107.5 -124t-80.5 -121t-80.5 -140q-14 -24 -20 -35l-123 -221q-23 -40 3 -38q25 2 61 32q69 58 113 132q2 4 5 4t4 -2.5t-1 -5.5
q-44 -76 -121 -143q-14 -10 -29.5 -19t-36 -17t-38 -4.5t-25.5 20.5q-10 22 -1 48q-59 -68 -113 -68q-34 1 -46.5 26t-5.5 60.5t28 73.5t51 74.5t73 64t80 21.5q39 -6 32 -60z" />
    <glyph glyph-name="Dcroat" unicode="&#x110;" horiz-adv-x="1024" 
d="M831 548q-90 34 -203 19t-212 -73q-65 -39 -126 -101.5t-108 -145t-59 -172.5t20 -184q24 -67 83.5 -107t126 -46.5t132 13t103.5 62.5q9 11 12 7.5t-6 -12.5q-39 -45 -111.5 -67t-148.5 -15.5t-146 50.5t-101 120q-45 117 -18.5 234t112 219.5t207.5 164.5
q111 57 233.5 70t227.5 -23q21 15 53 28q51 22 100.5 12.5t76.5 -50.5q12 -14 8.5 -34t-30.5 -28q0 52 -37 85.5t-90 10.5q-30 -13 -54 -36q71 -34 114.5 -94t50.5 -128.5t-10 -136t-67.5 -122t-122.5 -80.5q-85 -29 -186 -25t-187 34q-36 -10 -69 -9q-51 4 -76 24.5
t-27 69.5q97 -47 155 -64q12 3 25 13.5t27.5 31t23.5 35t25.5 43t22.5 37.5l60 109h-45q-10 0 -7 8q3 7 13 7h47l21 38q86 146 167 208zM781 1q58 24 105 75t70.5 114.5t26.5 128.5t-28.5 123.5t-93.5 91.5q-32 -36 -88 -135l-53 -97h83q10 0 7 -8q-3 -7 -13 -7h-85
l-59 -108q-37 -69 -72.5 -111t-90.5 -65q45 -13 93 -19.5t102.5 -3t95.5 20.5z" />
    <glyph glyph-name="dcroat" unicode="&#x111;" horiz-adv-x="346" 
d="M294 248l29 53q40 74 98 157h-58q-10 0 -7 8q2 7 12 7h63q165 233 344 296q235 84 341 -49q14 -13 12.5 -36t-27.5 -30q-14 56 -48 89t-79 40.5t-93 0.5t-99 -27q-135 -53 -281 -284h47q10 0 5 -8q-3 -7 -13 -7h-48q-46 -73 -108 -188l-123 -221q-23 -40 3 -38
q25 2 61 32q69 58 113 132q2 4 5 4t4 -2.5t-1 -5.5q-44 -76 -121 -143q-14 -10 -29.5 -19t-36 -17t-38 -4.5t-25.5 20.5q-10 22 -1 48q-59 -68 -113 -68q-34 1 -46.5 26t-5.5 60.5t28 73.5t51 74.5t73 64t80 21.5q39 -6 32 -60zM266 285q-20 0 -59 -39t-71 -97
q-63 -114 -37 -136q5 -4 13 -4q20 0 56.5 39.5t70.5 100.5q57 102 39 130q-4 6 -12 6z" />
    <glyph glyph-name="Emacron" unicode="&#x112;" horiz-adv-x="977" 
d="M470 -4q-33 -10 -70 -8q-51 4 -77 25t-26 69q119 -57 157 -65q12 3 25 14t27 30.5t23.5 35t25.5 43t22 37.5l95 164q82 141 150 194l-75 17q-96 19 -164.5 9.5t-138.5 -46.5q-105 -54 -189.5 -157.5t-118.5 -225t7 -241.5q32 -89 120.5 -128t181 -23t143.5 73
q9 11 12 7.5t-6 -12.5q-40 -46 -111 -67t-146 -14t-145.5 50.5t-104.5 118.5q-38 78 -29 168t49.5 173.5t116 157t170.5 119.5q270 130 469 70l150 -45q88 -26 137.5 -26t75.5 27q12 14 13.5 32.5t-7.5 29.5q-3 3 1 5.5t7 -2.5q22 -35 -7 -71q-37 -45 -145 -45
q-71 0 -167 24l-59 13q-24 -26 -72 -113l-61 -113q129 -10 207 13q-13 -32 -25.5 -45.5t-34.5 -17.5q-46 -6 -157 32l-59 -103q-51 -90 -90 -128q-27 -27 -73 -47q106 -17 201 -14t165 22q126 33 205 161q7 9 9 3q1 -2 -1 -6q-29 -50 -68 -95q-67 -76 -119 -94.5t-147 -18.5
q-134 0 -272 34zM1105 661h-114q-15 0 -15 12q0 14 18 17q3 1 7 1h113q16 0 16 -12q1 -13 -16 -17q-4 -1 -9 -1z" />
    <glyph glyph-name="emacron" unicode="&#x113;" horiz-adv-x="293" 
d="M352 385h-114q-16 0 -15 12q6 14 25 17h113q16 0 16 -12q-6 -14 -25 -17zM261 296q-20 0 -53.5 -33.5t-66.5 -85.5q-9 -13 -27 -47q97 21 144 99q11 19 15.5 34.5t1 24t-13.5 8.5zM50 153q29 65 89.5 110t129.5 45q44 0 62 -23.5t-6 -67.5q-24 -37 -85 -62.5t-131 -36.5
q-33 -74 8 -100q59 -37 161 34q63 51 107 123q2 4 5 4t4 -2.5t-1 -5.5q-48 -82 -110 -129q-93 -73 -185 -47q-41 11 -57.5 51.5t9.5 106.5z" />
    <glyph glyph-name="Ebreve" unicode="&#x114;" horiz-adv-x="977" 
d="M470 -4q-33 -10 -70 -8q-51 4 -77 25t-26 69q119 -57 157 -65q12 3 25 14t27 30.5t23.5 35t25.5 43t22 37.5l95 164q82 141 150 194l-75 17q-96 19 -164.5 9.5t-138.5 -46.5q-105 -54 -189.5 -157.5t-118.5 -225t7 -241.5q32 -89 120.5 -128t181 -23t143.5 73
q9 11 12 7.5t-6 -12.5q-40 -46 -111 -67t-146 -14t-145.5 50.5t-104.5 118.5q-38 78 -29 168t49.5 173.5t116 157t170.5 119.5q270 130 469 70l150 -45q88 -26 137.5 -26t75.5 27q12 14 13.5 32.5t-7.5 29.5q-3 3 1 5.5t7 -2.5q22 -35 -7 -71q-37 -45 -145 -45
q-71 0 -167 24l-59 13q-24 -26 -72 -113l-61 -113q129 -10 207 13q-13 -32 -25.5 -45.5t-34.5 -17.5q-46 -6 -157 32l-59 -103q-51 -90 -90 -128q-27 -27 -73 -47q106 -17 201 -14t165 22q126 33 205 161q7 9 9 3q1 -2 -1 -6q-29 -50 -68 -95q-67 -76 -119 -94.5t-147 -18.5
q-134 0 -272 34zM1126 724q7 14 13 9q4 -2 2 -9q-17 -47 -47.5 -71.5t-65.5 -20.5q-25 3 -40 26.5t-4 65.5q1 6 6 8.5t8 -0.5t2 -10q-5 -46 37 -47q39 -2 73 30q11 9 16 19z" />
    <glyph glyph-name="ebreve" unicode="&#x115;" horiz-adv-x="293" 
d="M386 448q9 15 14 8q2 -3 1 -8q-17 -48 -47.5 -72.5t-65.5 -19.5q-25 3 -39.5 26.5t-3.5 65.5q2 10 9.5 9t5.5 -12q-5 -46 37 -47q39 -1 73 31q11 9 16 19zM261 296q-20 0 -53.5 -33.5t-66.5 -85.5q-9 -13 -27 -47q97 21 144 99q11 19 15.5 34.5t1 24t-13.5 8.5zM50 153
q29 65 89.5 110t129.5 45q44 0 62 -23.5t-6 -67.5q-24 -37 -85 -62.5t-131 -36.5q-33 -74 8 -100q59 -37 161 34q63 51 107 123q2 4 5 4t4 -2.5t-1 -5.5q-48 -82 -110 -129q-93 -73 -185 -47q-41 11 -57.5 51.5t9.5 106.5z" />
    <glyph glyph-name="Edotaccent" unicode="&#x116;" horiz-adv-x="977" 
d="M470 -4q-33 -10 -70 -8q-51 4 -77 25t-26 69q119 -57 157 -65q12 3 25 14t27 30.5t23.5 35t25.5 43t22 37.5l95 164q82 141 150 194l-75 17q-96 19 -164.5 9.5t-138.5 -46.5q-105 -54 -189.5 -157.5t-118.5 -225t7 -241.5q32 -89 120.5 -128t181 -23t143.5 73
q9 11 12 7.5t-6 -12.5q-40 -46 -111 -67t-146 -14t-145.5 50.5t-104.5 118.5q-38 78 -29 168t49.5 173.5t116 157t170.5 119.5q270 130 469 70l150 -45q88 -26 137.5 -26t75.5 27q12 14 13.5 32.5t-7.5 29.5q-3 3 1 5.5t7 -2.5q22 -35 -7 -71q-37 -45 -145 -45
q-71 0 -167 24l-59 13q-24 -26 -72 -113l-61 -113q129 -10 207 13q-13 -32 -25.5 -45.5t-34.5 -17.5q-46 -6 -157 32l-59 -103q-51 -90 -90 -128q-27 -27 -73 -47q106 -17 201 -14t165 22q126 33 205 161q7 9 9 3q1 -2 -1 -6q-29 -50 -68 -95q-67 -76 -119 -94.5t-147 -18.5
q-134 0 -272 34zM1013 677q3 16 20 27.5t37 11.5q19 0 31 -11.5t9 -27.5q-3 -17 -19.5 -28t-35.5 -11q-20 0 -32 11t-10 28z" />
    <glyph glyph-name="edotaccent" unicode="&#x117;" horiz-adv-x="293" 
d="M251 401q2 16 19 27.5t37 11.5q19 0 31 -11.5t10 -27.5q-3 -17 -19 -28t-37 -11q-19 0 -31.5 11t-9.5 28zM261 296q-20 0 -53.5 -33.5t-66.5 -85.5q-9 -13 -27 -47q97 21 144 99q11 19 15.5 34.5t1 24t-13.5 8.5zM50 153q29 65 89.5 110t129.5 45q44 0 62 -23.5t-6 -67.5
q-24 -37 -85 -62.5t-131 -36.5q-33 -74 8 -100q59 -37 161 34q63 51 107 123q2 4 5 4t4 -2.5t-1 -5.5q-48 -82 -110 -129q-93 -73 -185 -47q-41 11 -57.5 51.5t9.5 106.5z" />
    <glyph glyph-name="Eogonek" unicode="&#x118;" horiz-adv-x="977" 
d="M742 -38q-134 0 -272 34q-33 -10 -70 -8q-51 4 -77 25t-26 69q119 -57 157 -65q12 3 25 14t27 30.5t23.5 35t25.5 43t22 37.5l95 164q82 141 150 194l-75 17q-96 19 -164.5 9.5t-138.5 -46.5q-105 -54 -189.5 -157.5t-118.5 -225t7 -241.5q32 -89 120.5 -128t181 -23
t143.5 73q9 11 12 7.5t-6 -12.5q-40 -46 -111 -67t-146 -14t-145.5 50.5t-104.5 118.5q-38 78 -29 168t49.5 173.5t116 157t170.5 119.5q270 130 469 70l150 -45q88 -26 137.5 -26t75.5 27q12 14 13.5 32.5t-7.5 29.5q-3 3 1 5.5t7 -2.5q22 -35 -7 -71q-37 -45 -145 -45
q-71 0 -167 24l-59 13q-24 -26 -72 -113l-61 -113q129 -10 207 13q-13 -32 -25.5 -45.5t-34.5 -17.5q-46 -6 -157 32l-59 -103q-51 -90 -90 -128q-27 -27 -73 -47q106 -17 201 -14t165 22q126 33 205 161q7 9 9 3q1 -2 -1 -6q-29 -50 -68 -95q-64 -72 -119 -96
q-58 -38 -58 -76q0 -24 27.5 -27t46.5 19q7 8 11 3q3 -3 -2 -8q-18 -25 -52.5 -34.5t-62 1.5t-27.5 38q0 33 61 69q-33 -4 -91 -2z" />
    <glyph glyph-name="eogonek" unicode="&#x119;" horiz-adv-x="293" 
d="M98 -5q-41 11 -57.5 51.5t9.5 106.5q29 65 89.5 110t129.5 45q44 0 62 -23.5t-6 -67.5q-24 -37 -85 -62.5t-131 -36.5q-33 -74 8 -100q59 -37 161 34q63 51 107 123q2 4 5 4t4 -2.5t-1 -5.5q-48 -82 -110 -129q-54 -42 -104 -51q-77 -44 -77 -88q0 -24 27 -27t47 19
q8 8 11 3q3 -3 -2 -8q-18 -25 -52.5 -34.5t-62 1.5t-27.5 38q0 43 108 93q-28 0 -53 7zM261 296q-20 0 -53.5 -33.5t-66.5 -85.5q-9 -13 -27 -47q97 21 144 99q11 19 15.5 34.5t1 24t-13.5 8.5z" />
    <glyph glyph-name="Ecaron" unicode="&#x11a;" horiz-adv-x="977" 
d="M470 -4q-33 -10 -70 -8q-51 4 -77 25t-26 69q119 -57 157 -65q12 3 25 14t27 30.5t23.5 35t25.5 43t22 37.5l95 164q82 141 150 194l-75 17q-96 19 -164.5 9.5t-138.5 -46.5q-105 -54 -189.5 -157.5t-118.5 -225t7 -241.5q32 -89 120.5 -128t181 -23t143.5 73
q9 11 12 7.5t-6 -12.5q-40 -46 -111 -67t-146 -14t-145.5 50.5t-104.5 118.5q-38 78 -29 168t49.5 173.5t116 157t170.5 119.5q270 130 469 70l150 -45q88 -26 137.5 -26t75.5 27q12 14 13.5 32.5t-7.5 29.5q-3 3 1 5.5t7 -2.5q22 -35 -7 -71q-37 -45 -145 -45
q-71 0 -167 24l-59 13q-24 -26 -72 -113l-61 -113q129 -10 207 13q-13 -32 -25.5 -45.5t-34.5 -17.5q-46 -6 -157 32l-59 -103q-51 -90 -90 -128q-27 -27 -73 -47q106 -17 201 -14t165 22q126 33 205 161q7 9 9 3q1 -2 -1 -6q-29 -50 -68 -95q-67 -76 -119 -94.5t-147 -18.5
q-134 0 -272 34zM1157 735l-78 -75q-14 -14 -25.5 -20t-19.5 -7t-29 -1l-18 103q26 0 36 -20l18 -38l65 42q22 16 51 16z" />
    <glyph glyph-name="ecaron" unicode="&#x11b;" horiz-adv-x="293" 
d="M409 458l-77 -75q-20 -20 -33 -24t-41 -4l-19 103h4h4t4 -0.5t5 -1t5 -2t5 -3.5t4.5 -5.5t4.5 -7.5l19 -37l64 42q8 6 15.5 9.5t13 5t9.5 1.5t8 -0.5t5 -0.5zM261 296q-20 0 -53.5 -33.5t-66.5 -85.5q-9 -13 -27 -47q97 21 144 99q11 19 15.5 34.5t1 24t-13.5 8.5z
M50 153q29 65 89.5 110t129.5 45q44 0 62 -23.5t-6 -67.5q-24 -37 -85 -62.5t-131 -36.5q-33 -74 8 -100q59 -37 161 34q63 51 107 123q2 4 5 4t4 -2.5t-1 -5.5q-48 -82 -110 -129q-93 -73 -185 -47q-41 11 -57.5 51.5t9.5 106.5z" />
    <glyph glyph-name="Gcircumflex" unicode="&#x11c;" horiz-adv-x="722" 
d="M589 632l117 103h7h7t5.5 -0.5t6 -1.5t4.5 -2.5t4.5 -4t3.5 -6.5t3 -9l24 -79q-26 0 -35 16l-25 40l-69 -40q-26 -16 -53 -16zM434 543q132 64 244 43q37 -7 61 -28.5t22 -54.5q0 -25 -22 -49t-51 -24q-21 0 -33 10.5t-9 27.5q2 16 19 27t37 11q10 0 18 -3q13 28 1 44.5
t-40 23.5q-41 10 -100.5 -5t-115.5 -48q-94 -54 -168 -134t-116 -171q-17 -35 -26.5 -75t-11 -83.5t19 -80t61.5 -54.5q82 -38 198 30.5t219 247.5l20 34q22 40 46.5 52t65.5 12l-134 -243q-90 -161 -213.5 -291t-258.5 -177q-72 -25 -139 -32t-131 12.5t-103 68.5
q-15 14 -13 35.5t28 30.5q14 -56 53 -89t90 -40.5t104 -0.5t104 27q177 67 387 434q-55 -60 -133 -105q-49 -28 -109.5 -37.5t-121.5 10.5t-92 74q-58 104 23 261q50 94 136.5 177.5t183.5 131.5z" />
    <glyph glyph-name="gcircumflex" unicode="&#x11d;" horiz-adv-x="315" 
d="M194 355l117 103h7.5h6.5t6 -0.5t5.5 -1t4.5 -2t4.5 -4.5t3.5 -6.5t3 -8.5l24 -80q-27 0 -36 16l-24 41l-70 -41q-26 -16 -52 -16zM402 302l-169 -307q-46 -80 -91 -146t-101.5 -133t-122.5 -116t-135 -73q-235 -84 -341 49q-15 14 -13 35.5t28 30.5q14 -56 48 -89
t79 -40.5t93 -0.5t99 27q31 12 62.5 34t57 45t55 59.5t49.5 63.5t49 73t43.5 71t42.5 74t39 67l11 19q-56 -61 -101 -57q-50 4 -53.5 54.5t29.5 105.5q36 64 93 116.5t111 43.5q37 -7 31 -61q20 34 43.5 44.5t63.5 10.5zM268 285q-20 0 -59 -39t-71 -97q-66 -118 -36 -137
q4 -3 11 -3q20 0 57 40t71 100q54 98 40 128q-4 8 -13 8z" />
    <glyph glyph-name="Gbreve" unicode="&#x11e;" horiz-adv-x="722" 
d="M638 632q-25 3 -40 26.5t-4 65.5q1 6 6 8.5t8 -0.5t2 -10q-5 -46 37 -47q39 -2 73 30q11 9 16 19q7 14 13 9q4 -2 2 -9q-17 -47 -47.5 -71.5t-65.5 -20.5zM434 543q132 64 244 43q37 -7 61 -28.5t22 -54.5q0 -25 -22 -49t-51 -24q-21 0 -33 10.5t-9 27.5q2 16 19 27
t37 11q10 0 18 -3q13 28 1 44.5t-40 23.5q-41 10 -100.5 -5t-115.5 -48q-94 -54 -168 -134t-116 -171q-17 -35 -26.5 -75t-11 -83.5t19 -80t61.5 -54.5q82 -38 198 30.5t219 247.5l20 34q22 40 46.5 52t65.5 12l-134 -243q-90 -161 -213.5 -291t-258.5 -177
q-72 -25 -139 -32t-131 12.5t-103 68.5q-15 14 -13 35.5t28 30.5q14 -56 53 -89t90 -40.5t104 -0.5t104 27q177 67 387 434q-55 -60 -133 -105q-49 -28 -109.5 -37.5t-121.5 10.5t-92 74q-58 104 23 261q50 94 136.5 177.5t183.5 131.5z" />
    <glyph glyph-name="gbreve" unicode="&#x11f;" horiz-adv-x="315" 
d="M397 448q8 15 14 9q2 -3 0 -9q-17 -48 -47 -72.5t-65 -19.5q-25 3 -40 26.5t-4 65.5q1 6 6 8.5t8 -1t2 -10.5q-6 -46 35 -47q39 0 75 31q10 9 16 19zM402 302l-169 -307q-46 -80 -91 -146t-101.5 -133t-122.5 -116t-135 -73q-235 -84 -341 49q-15 14 -13 35.5t28 30.5
q14 -56 48 -89t79 -40.5t93 -0.5t99 27q31 12 62.5 34t57 45t55 59.5t49.5 63.5t49 73t43.5 71t42.5 74t39 67l11 19q-56 -61 -101 -57q-50 4 -53.5 54.5t29.5 105.5q36 64 93 116.5t111 43.5q37 -7 31 -61q20 34 43.5 44.5t63.5 10.5zM268 285q-20 0 -59 -39t-71 -97
q-66 -118 -36 -137q4 -3 11 -3q20 0 57 40t71 100q54 98 40 128q-4 8 -13 8z" />
    <glyph glyph-name="Gdotaccent" unicode="&#x120;" horiz-adv-x="722" 
d="M626 677q3 16 20 27.5t37 11.5q19 0 31 -11.5t9 -27.5q-3 -17 -19.5 -28t-35.5 -11q-20 0 -32 11t-10 28zM434 543q132 64 244 43q37 -7 61 -28.5t22 -54.5q0 -25 -22 -49t-51 -24q-21 0 -33 10.5t-9 27.5q2 16 19 27t37 11q10 0 18 -3q13 28 1 44.5t-40 23.5
q-41 10 -100.5 -5t-115.5 -48q-94 -54 -168 -134t-116 -171q-17 -35 -26.5 -75t-11 -83.5t19 -80t61.5 -54.5q82 -38 198 30.5t219 247.5l20 34q22 40 46.5 52t65.5 12l-134 -243q-90 -161 -213.5 -291t-258.5 -177q-72 -25 -139 -32t-131 12.5t-103 68.5q-15 14 -13 35.5
t28 30.5q14 -56 53 -89t90 -40.5t104 -0.5t104 27q177 67 387 434q-55 -60 -133 -105q-49 -28 -109.5 -37.5t-121.5 10.5t-92 74q-58 104 23 261q50 94 136.5 177.5t183.5 131.5z" />
    <glyph glyph-name="gdotaccent" unicode="&#x121;" horiz-adv-x="315" 
d="M259 401q3 16 20 27.5t36 11.5q20 0 32 -11.5t9 -27.5q-4 -17 -20 -28t-35 -11q-21 0 -33 11t-9 28zM402 302l-169 -307q-46 -80 -91 -146t-101.5 -133t-122.5 -116t-135 -73q-235 -84 -341 49q-15 14 -13 35.5t28 30.5q14 -56 48 -89t79 -40.5t93 -0.5t99 27
q31 12 62.5 34t57 45t55 59.5t49.5 63.5t49 73t43.5 71t42.5 74t39 67l11 19q-56 -61 -101 -57q-50 4 -53.5 54.5t29.5 105.5q36 64 93 116.5t111 43.5q37 -7 31 -61q20 34 43.5 44.5t63.5 10.5zM268 285q-20 0 -59 -39t-71 -97q-66 -118 -36 -137q4 -3 11 -3q20 0 57 40
t71 100q54 98 40 128q-4 8 -13 8z" />
    <glyph glyph-name="Gcommaaccent" unicode="&#x122;" horiz-adv-x="722" 
d="M275 -188q-6 -37 -49.5 -81t-88.5 -63q-7 -5 -10 2q-2 5 5 9q56 29 94 94q-25 -4 -37.5 8t-10.5 31q3 15 20 26.5t36 11.5t31 -11t10 -27zM434 543q132 64 244 43q37 -7 61 -28.5t22 -54.5q0 -25 -22 -49t-51 -24q-21 0 -33 10.5t-9 27.5q2 16 19 27t37 11q10 0 18 -3
q13 28 1 44.5t-40 23.5q-41 10 -100.5 -5t-115.5 -48q-94 -54 -168 -134t-116 -171q-17 -35 -26.5 -75t-11 -83.5t19 -80t61.5 -54.5q82 -38 198 30.5t219 247.5l20 34q22 40 46.5 52t65.5 12l-134 -243q-90 -161 -213.5 -291t-258.5 -177q-72 -25 -139 -32t-131 12.5
t-103 68.5q-15 14 -13 35.5t28 30.5q14 -56 53 -89t90 -40.5t104 -0.5t104 27q177 67 387 434q-55 -60 -133 -105q-49 -28 -109.5 -37.5t-121.5 10.5t-92 74q-58 104 23 261q50 94 136.5 177.5t183.5 131.5z" />
    <glyph glyph-name="gcommaaccent" unicode="&#x123;" horiz-adv-x="315" 
d="M265 406q6 37 49.5 81t88.5 63q9 4 10 -3q1 -5 -6 -9q-55 -28 -93 -94q24 4 37 -8t11 -30q-4 -17 -20.5 -28t-35.5 -11t-31 11t-10 28zM402 302l-169 -307q-46 -80 -91 -146t-101.5 -133t-122.5 -116t-135 -73q-235 -84 -341 49q-15 14 -13 35.5t28 30.5q14 -56 48 -89
t79 -40.5t93 -0.5t99 27q31 12 62.5 34t57 45t55 59.5t49.5 63.5t49 73t43.5 71t42.5 74t39 67l11 19q-56 -61 -101 -57q-50 4 -53.5 54.5t29.5 105.5q36 64 93 116.5t111 43.5q37 -7 31 -61q20 34 43.5 44.5t63.5 10.5zM268 285q-20 0 -59 -39t-71 -97q-66 -118 -36 -137
q4 -3 11 -3q20 0 57 40t71 100q54 98 40 128q-4 8 -13 8z" />
    <glyph glyph-name="Hcircumflex" unicode="&#x124;" horiz-adv-x="994" 
d="M311 -86q-83 -28 -166 -29q26 -65 85.5 -103t125 -44t130 13.5t102.5 61.5q9 11 12 7.5t-6 -12.5q-39 -45 -109.5 -66.5t-144 -15t-143.5 48t-106 113.5q-132 12 -194 88q-14 13 -12 34.5t27 30.5q29 -112 171 -135q-34 78 -24 166t51.5 169.5t116 154t167.5 118.5
q232 115 484 57q55 23 85.5 8t15.5 -54q-51 18 -87 25q-40 -23 -102 -137l-61 -111h221l60 106q43 77 101 136.5t125 59.5q50 0 64 -37q3 -6 -3 -6q-3 0 -4 4q-21 36 -61 24q-25 -6 -56 -40t-53 -76l-235 -425q-24 -42 7 -37q24 3 64 28q68 44 125 133q7 11 10 4q1 -3 -1 -6
q-38 -66 -94 -116t-114 -64q-42 -9 -59 12q-26 34 14 106l102 179h-221l-19 -36q-73 -134 -163.5 -211.5t-227.5 -125.5zM436 503q-104 -58 -184.5 -154.5t-115.5 -213.5t4 -234q92 -2 163 27q42 17 76 35t63.5 44.5t49 46.5t47 61.5t42.5 66.5t48 83l43 76q48 84 90 135
t94 83q-217 54 -420 -56zM952 632l119 103h5q11 0 16 -0.5t10.5 -6t8.5 -17.5l23 -79q-25 0 -35 16l-24 40l-70 -40q-26 -16 -53 -16z" />
    <glyph glyph-name="hcircumflex" unicode="&#x125;" 
d="M210 108l77 138q24 41 0 38q-21 -2 -58 -33q-44 -35 -71 -79h-1l-99 -178q-17 0 -29 7t-16.5 24.5t12.5 46.5l187 336q108 196 225 196q46 0 65 -37q2 -5 -2 -6t-6 4q-7 15 -24 22.5t-37 1.5q-25 -6 -55.5 -40t-52.5 -76l-135 -241q76 76 130 76q16 0 26.5 -12t8.5 -40.5
t-23 -67.5l-77 -139q-23 -40 -1 -37q17 3 56 31q65 50 113 132q2 4 5 4t4 -2.5t-1 -5.5q-47 -80 -107 -131.5t-103 -51.5q-16 0 -26.5 11.5t-8 40t23.5 68.5zM355 632l117 103h7h7t5.5 -0.5t6 -1.5t4.5 -2.5t4.5 -4t3.5 -6.5t4 -9l23 -79q-26 0 -35 16l-24 40l-70 -40
q-26 -16 -53 -16z" />
    <glyph glyph-name="Hbar" unicode="&#x126;" horiz-adv-x="994" 
d="M876 458h-61q-3 -6 -12 -21t-13 -24l-61 -111h221l60 106q43 77 101 136.5t125 59.5q50 0 64 -37q3 -6 -3 -6q-3 0 -4 4q-21 36 -61 24q-25 -6 -56 -40t-53 -76l-235 -425q-24 -42 7 -37q24 3 64 28q68 44 125 133q7 11 10 4q1 -3 -1 -6q-38 -66 -94 -116t-114 -64
q-42 -9 -59 12q-26 34 14 106l102 179h-221l-19 -36q-73 -134 -163.5 -211.5t-227.5 -125.5q-83 -28 -166 -29q26 -65 85.5 -103t125 -44t130 13.5t102.5 61.5q9 11 12 7.5t-6 -12.5q-39 -45 -109.5 -66.5t-144 -15t-143.5 48t-106 113.5q-132 12 -194 88q-14 13 -12 34.5
t27 30.5q29 -112 171 -135q-34 78 -24 166t51.5 169.5t116 154t167.5 118.5q232 115 484 57q55 23 85.5 8t15.5 -54q-51 18 -87 25q-33 -18 -68 -77h59q10 0 6 -8q-3 -7 -13 -7zM436 503q-104 -58 -184.5 -154.5t-115.5 -213.5t4 -234q92 -2 163 27q42 17 76 35t63.5 44.5
t49 46.5t47 61.5t42.5 66.5t48 83l43 76q43 74 75 117h-48q-10 0 -7 8q2 7 12 7h56q42 50 96 86q-217 54 -420 -56z" />
    <glyph glyph-name="hbar" unicode="&#x127;" 
d="M213 270l-20 -35q75 73 127 73q16 0 26.5 -12t8.5 -40.5t-23 -67.5l-77 -139q-23 -40 -1 -37q17 3 56 31q65 50 113 132q2 4 5 4t4 -2.5t-1 -5.5q-47 -80 -107 -131.5t-103 -51.5q-16 0 -26.5 11.5t-8 40t23.5 68.5l77 138q24 41 0 38q-21 -2 -58 -33q-44 -35 -71 -79
l-100 -178q-17 0 -29 7t-16.5 24.5t12.5 46.5l127 229q40 74 98 157h-58q-10 0 -8 8q2 7 12 7h64q165 233 344 296q235 84 341 -49q14 -13 12.5 -36t-27.5 -30q-14 56 -48 89t-79 40.5t-93 0.5t-99 -27q-135 -53 -281 -284h45q11 0 7 -8q-4 -7 -14 -7h-47q-46 -73 -108 -188
z" />
    <glyph glyph-name="Itilde" unicode="&#x128;" horiz-adv-x="674" 
d="M311 -86q-83 -28 -166 -29q26 -65 85.5 -103t125 -44t130 13.5t102.5 61.5q9 11 12 7.5t-6 -12.5q-39 -45 -109.5 -66.5t-144 -15t-143.5 48t-106 113.5q-132 12 -194 88q-14 13 -12 34.5t27 30.5q29 -112 171 -135q-34 78 -24 166t51.5 169.5t116 154t167.5 118.5
q232 115 484 57q55 23 85.5 8t15.5 -54q-51 18 -87 25q-40 -23 -102 -137l-88 -162q-73 -134 -163.5 -211.5t-227.5 -125.5zM436 503q-104 -58 -184.5 -154.5t-115.5 -213.5t4 -234q92 -2 163 27q42 17 76 35t63.5 44.5t49 46.5t47 61.5t42.5 66.5t48 83l43 76q48 84 90 135
t94 83q-217 54 -420 -56zM927 655q-6 3 -19.5 12.5t-19.5 11.5q-7 3 -33 -20q-13 -11 -28 -7q27 33 31 37q13 14 23 21t25.5 10t28.5 -8q6 -3 19.5 -13t19.5 -12q7 -3 33 20q11 11 27 7q-19 -26 -30 -37q-43 -45 -77 -22z" />
    <glyph glyph-name="itilde" unicode="&#x129;" horiz-adv-x="165" 
d="M45 108l107 194q17 0 29 -7t17 -24.5t-12 -46.5l-97 -175q-24 -41 0 -37q18 4 56 31q65 50 113 132q2 4 4.5 4t3.5 -2.5t-1 -5.5q-47 -80 -107 -131.5t-103 -51.5q-16 0 -26.5 12t-8 40.5t24.5 67.5zM235 378q-7 3 -19.5 13t-18.5 12q-7 3 -33 -20q-8 -10 -27 -8
q19 26 31 38q39 45 77 22q5 -3 12.5 -9t14 -10t11.5 -5q7 -3 33 20q11 11 27 7q-16 -22 -31 -37q-40 -46 -77 -23z" />
    <glyph glyph-name="Imacron" unicode="&#x12a;" horiz-adv-x="674" 
d="M311 -86q-83 -28 -166 -29q26 -65 85.5 -103t125 -44t130 13.5t102.5 61.5q9 11 12 7.5t-6 -12.5q-39 -45 -109.5 -66.5t-144 -15t-143.5 48t-106 113.5q-132 12 -194 88q-14 13 -12 34.5t27 30.5q29 -112 171 -135q-34 78 -24 166t51.5 169.5t116 154t167.5 118.5
q232 115 484 57q55 23 85.5 8t15.5 -54q-51 18 -87 25q-40 -23 -102 -137l-88 -162q-73 -134 -163.5 -211.5t-227.5 -125.5zM436 503q-104 -58 -184.5 -154.5t-115.5 -213.5t4 -234q92 -2 163 27q42 17 76 35t63.5 44.5t49 46.5t47 61.5t42.5 66.5t48 83l43 76q48 84 90 135
t94 83q-217 54 -420 -56zM980 661h-113q-16 0 -16 12q-1 13 16 17q4 1 9 1h114q15 0 15 -12q0 -14 -18 -17q-3 -1 -7 -1z" />
    <glyph glyph-name="imacron" unicode="&#x12b;" horiz-adv-x="165" 
d="M45 108l107 194q17 0 29 -7t17 -24.5t-12 -46.5l-97 -175q-24 -41 0 -37q18 4 56 31q65 50 113 132q2 4 4.5 4t3.5 -2.5t-1 -5.5q-47 -80 -107 -131.5t-103 -51.5q-16 0 -26.5 12t-8 40.5t24.5 67.5zM288 385h-114q-17 0 -16 12q6 14 25 17h114q17 0 16 -12
q-6 -14 -25 -17z" />
    <glyph glyph-name="Ibreve" unicode="&#x12c;" horiz-adv-x="674" 
d="M311 -86q-83 -28 -166 -29q26 -65 85.5 -103t125 -44t130 13.5t102.5 61.5q9 11 12 7.5t-6 -12.5q-39 -45 -109.5 -66.5t-144 -15t-143.5 48t-106 113.5q-132 12 -194 88q-14 13 -12 34.5t27 30.5q29 -112 171 -135q-34 78 -24 166t51.5 169.5t116 154t167.5 118.5
q232 115 484 57q55 23 85.5 8t15.5 -54q-51 18 -87 25q-40 -23 -102 -137l-88 -162q-73 -134 -163.5 -211.5t-227.5 -125.5zM436 503q-104 -58 -184.5 -154.5t-115.5 -213.5t4 -234q92 -2 163 27q42 17 76 35t63.5 44.5t49 46.5t47 61.5t42.5 66.5t48 83l43 76q48 84 90 135
t94 83q-217 54 -420 -56zM1001 724q9 16 14 9q2 -3 0 -9q-16 -47 -46 -71.5t-66 -20.5q-25 3 -40 26.5t-4 65.5q2 6 6.5 8.5t7.5 -0.5t2 -10q-5 -46 37 -47q39 -2 73 30q11 9 16 19z" />
    <glyph glyph-name="ibreve" unicode="&#x12d;" horiz-adv-x="165" 
d="M45 108l107 194q17 0 29 -7t17 -24.5t-12 -46.5l-97 -175q-24 -41 0 -37q18 4 56 31q65 50 113 132q2 4 4.5 4t3.5 -2.5t-1 -5.5q-47 -80 -107 -131.5t-103 -51.5q-16 0 -26.5 12t-8 40.5t24.5 67.5zM316 448q9 16 15 8q2 -3 0 -8q-17 -48 -47.5 -72.5t-65.5 -19.5
q-25 3 -39.5 26.5t-3.5 65.5q2 10 9.5 9t6.5 -12q-6 -47 36 -47q39 0 73 31q11 9 16 19z" />
    <glyph glyph-name="Iogonek" unicode="&#x12e;" horiz-adv-x="674" 
d="M353 -70l-42 -16q-83 -28 -166 -29q26 -65 85.5 -103t125 -44t130 13.5t102.5 61.5q9 11 12 7.5t-6 -12.5q-39 -45 -109.5 -66.5t-144 -15t-143.5 48t-106 113.5q-132 12 -194 88q-14 13 -12 34.5t27 30.5q29 -112 171 -135q-34 78 -24 166t51.5 169.5t116 154
t167.5 118.5q232 115 484 57q55 23 85.5 8t15.5 -54q-51 18 -87 25q-40 -23 -102 -137l-88 -162q-104 -189 -253 -274q-53 -37 -53 -74q0 -24 27 -27t47 19q7 8 11 3q3 -3 -2 -8q-18 -25 -52.5 -34.5t-62 1.5t-27.5 38q0 18 16 35zM436 503q-104 -58 -184.5 -154.5
t-115.5 -213.5t4 -234q92 -2 163 27q42 17 76 35t63.5 44.5t49 46.5t47 61.5t42.5 66.5t48 83l43 76q48 84 90 135t94 83q-217 54 -420 -56z" />
    <glyph glyph-name="iogonek" unicode="&#x12f;" horiz-adv-x="165" 
d="M51 -105q4 4 7 4.5t3.5 -2.5t-1.5 -7q-18 -25 -52.5 -34.5t-62 1.5t-27.5 38q0 9 4 18.5t13.5 18t17.5 15t22 15t21.5 12.5t22.5 11t18 9q-17 9 -17.5 36t25.5 78l107 194q17 0 29 -7t17 -24.5t-12 -46.5l-97 -175q-24 -41 0 -37q18 4 56 31q65 50 113 132q2 4 4.5 4
t3.5 -2.5t-1 -5.5q-47 -80 -107 -131.5t-103 -51.5h-5q-73 -43 -73 -85q0 -24 27.5 -27t46.5 19zM189 392q2 15 17.5 26t32.5 11t27.5 -11t8.5 -26q-3 -16 -17.5 -26.5t-31.5 -10.5t-28 10.5t-9 26.5z" />
    <glyph glyph-name="Idotaccent" unicode="&#x130;" horiz-adv-x="674" 
d="M311 -86q-83 -28 -166 -29q26 -65 85.5 -103t125 -44t130 13.5t102.5 61.5q9 11 12 7.5t-6 -12.5q-39 -45 -109.5 -66.5t-144 -15t-143.5 48t-106 113.5q-132 12 -194 88q-14 13 -12 34.5t27 30.5q29 -112 171 -135q-34 78 -24 166t51.5 169.5t116 154t167.5 118.5
q232 115 484 57q55 23 85.5 8t15.5 -54q-51 18 -87 25q-40 -23 -102 -137l-88 -162q-73 -134 -163.5 -211.5t-227.5 -125.5zM436 503q-104 -58 -184.5 -154.5t-115.5 -213.5t4 -234q92 -2 163 27q42 17 76 35t63.5 44.5t49 46.5t47 61.5t42.5 66.5t48 83l43 76q48 84 90 135
t94 83q-217 54 -420 -56zM883 677q4 16 20.5 27.5t35.5 11.5q20 0 32.5 -11.5t8.5 -27.5q-3 -17 -19 -28t-35 -11q-20 0 -32.5 11t-10.5 28z" />
    <glyph glyph-name="dotlessi" unicode="&#x131;" horiz-adv-x="165" 
d="M45 108l107 194q17 0 29 -7t17 -24.5t-12 -46.5l-97 -175q-24 -41 0 -37q18 4 56 31q65 50 113 132q2 4 4.5 4t3.5 -2.5t-1 -5.5q-47 -80 -107 -131.5t-103 -51.5q-16 0 -26.5 12t-8 40.5t24.5 67.5z" />
    <glyph glyph-name="Jcircumflex" unicode="&#x134;" horiz-adv-x="645" 
d="M457 8l187 333q53 87 93 136.5t91 81.5q-120 26 -211.5 23t-149.5 -25.5t-85 -60.5q-39 -52 -15.5 -116.5t90.5 -78.5q-10 -21 -24 -35t-32 -17t-36 16q-33 31 -43.5 75t-0.5 84.5t33 72.5q18 25 53.5 46t93.5 38t149 15.5t200 -25.5q55 23 85.5 8t15.5 -54
q-51 18 -87 25q-40 -23 -102 -137l-243 -431l-9 -16q112 -20 156 -45q23 -15 21.5 -32.5t-21.5 -30.5q-35 59 -167 89q-92 -153 -209 -273t-244 -165q-94 -32 -183 -32q-106 0 -172 55t-58 137q12 129 154.5 210.5t354.5 100.5q151 13 297 -4zM39 -479q185 70 391 439
q-135 19 -283 6q-117 -11 -213 -47t-160.5 -101t-74.5 -148q-9 -63 27.5 -112.5t115.5 -63.5q86 -16 197 27zM782 630l117 104q26 0 32 -7q5 -5 9 -18l24 -79q-27 0 -36 16l-24 40l-70 -40q-26 -16 -52 -16z" />
    <glyph glyph-name="jcircumflex" unicode="&#x135;" horiz-adv-x="142" 
d="M116 355l118 103h8h8t6 -0.5t6 -2t4.5 -4t4.5 -6.5t4 -10l23 -80q-26 0 -35 16l-25 41l-70 -41q-26 -16 -52 -16zM186 224l-127 -229q-215 -387 -450 -468q-235 -84 -341 49q-15 14 -13 35.5t28 30.5q14 -56 48 -89t79 -40.5t93 -0.5t99 27q46 18 91.5 55t81.5 79.5
t75.5 101.5t66.5 105.5t61 107.5q14 26 21 38l153 276q17 0 29 -7t17 -24.5t-12 -46.5z" />
    <glyph glyph-name="Kcommaaccent" unicode="&#x136;" horiz-adv-x="997" 
d="M435 503q-104 -58 -184.5 -154.5t-115.5 -213.5t4 -234q92 -2 163 27q42 17 76 35t63.5 44.5t49 46.5t47 61.5t42.5 66.5t48 83l43 76q48 84 90 135t94 83q-217 54 -420 -56zM90 -112q-132 12 -194 88q-14 13 -12 34.5t27 30.5q29 -112 171 -135q-34 78 -24 166
t51.5 169.5t116 154t167.5 118.5q232 115 484 57q55 23 85.5 8t15.5 -54q-51 18 -87 25q-40 -23 -102 -137l-56 -103h11q46 0 83.5 15.5t100.5 73.5l99 89q63 57 112.5 86.5t100.5 29.5q50 0 65 -36q1 -3 -0.5 -5t-4.5 -1t-4 3q-6 15 -23 23t-37 2q-24 -6 -44 -21.5
t-56 -50.5l-88 -89q-121 -121 -249 -133q72 -21 91 -128l18 -109q4 -22 11 -31.5t19.5 -5.5t21 9.5t23.5 18.5q54 44 106 123q4 9 8 5q2 -3 -1 -7q-53 -91 -131 -150q-108 -81 -130 42l-16 105q-12 68 -28.5 97.5t-54.5 29.5h-11l-24 -44q-73 -134 -163.5 -211.5
t-227.5 -125.5q-83 -28 -166 -29q31 -76 104.5 -115t156.5 -35q15 1 15 -2.5t-13 -5.5q-98 -7 -185.5 33t-131.5 128zM716 -111q-6 -37 -49.5 -79t-89.5 -64q-8 -4 -10 2q-2 5 6 9q56 28 94 95q-23 -5 -37 7.5t-11 29.5t20 28.5t36 11.5t31 -11.5t10 -28.5z" />
    <glyph glyph-name="kcommaaccent" unicode="&#x137;" horiz-adv-x="340" 
d="M150 -112q-6 -37 -48.5 -79t-89.5 -64q-8 -4 -10 2q-2 5 6 9q54 29 94 95q-25 -5 -38 7.5t-11 29.5q4 17 20.5 28.5t35.5 11.5q20 0 31.5 -11.5t9.5 -28.5zM25 72l127 229q218 383 452 468q235 84 341 -49q14 -13 12.5 -36t-27.5 -30q-14 56 -48 89t-79 40.5t-93 0.5
t-99 -27q-57 -22 -109.5 -67t-107.5 -124t-80.5 -121t-80.5 -140q-14 -24 -20 -35l-45 -79q69 56 128 89.5t84 24.5q26 -11 15.5 -38t-55.5 -64q-20 -18 -82 -58l10 -65q6 -35 13.5 -45.5t20 -4t38.5 31.5q57 49 92 113q2 4 5 4t4 -2.5t-1 -5.5q-40 -62 -71 -96
q-34 -37 -65 -59q-31 -23 -49.5 -29.5t-30.5 7t-18 34t-14 66.5l-10 61q71 38 116 69t58.5 46t10.5 21q-9 14 -101 -44q-69 -47 -121 -99l-87 -154q-17 0 -29 7t-16.5 24.5t12.5 46.5z" />
    <glyph glyph-name="kgreenlandic" unicode="&#x138;" horiz-adv-x="340" 
d="M325 473l-157 -282q69 56 128 89.5t84 24.5q26 -11 15.5 -38t-55.5 -64q-20 -18 -82 -58l10 -65q6 -35 13.5 -45.5t20 -4t38.5 31.5q57 49 92 113q2 4 5 4t4 -2.5t-1 -5.5q-40 -62 -71 -96q-34 -37 -65 -59q-31 -23 -49.5 -29.5t-30.5 7t-18 34t-14 66.5l-10 61
q71 38 116 69t58.5 46t10.5 21q-9 14 -101 -44q-69 -47 -121 -99l-87 -154q-17 0 -29 7t-16.5 24.5t12.5 46.5l187 336q108 196 225 196q46 0 65 -37q2 -5 -2 -6t-6 4q-7 15 -24 22.5t-37 1.5q-25 -6 -55.5 -40t-52.5 -76z" />
    <glyph glyph-name="Lacute" unicode="&#x139;" horiz-adv-x="774" 
d="M487 -15q187 6 285 81q51 39 94 107q7 9 9 3q1 -2 -1 -6q-29 -50 -68 -95q-68 -77 -126.5 -99.5t-150.5 -22.5q-70 0 -174.5 14.5t-160.5 28.5q-33 -10 -70 -8q-51 4 -77 25t-26 69q119 -57 157 -65q12 3 24.5 13t28 31.5t24.5 34.5t28 44t23 38l89 162q74 137 167 208
q38 27 71 41q51 22 100.5 12.5t76.5 -50.5q12 -14 8.5 -34t-30.5 -28q0 52 -37 85.5t-90 10.5q-34 -15 -65 -48t-49 -62t-43 -76l-120 -220q-51 -90 -90 -128q-28 -27 -73 -47q160 -24 266 -19zM777 668l-106 -36q-5 -1 -6 1.5t2 4.5l126 97q15 -10 20 -22t-3.5 -24.5
t-32.5 -20.5z" />
    <glyph glyph-name="lacute" unicode="&#x13a;" horiz-adv-x="175" 
d="M25 8q-19 32 20 100l167 300q108 196 225 196q46 0 65 -37q2 -5 -2 -6t-6 4q-7 15 -24 22.5t-37 1.5q-25 -6 -55.5 -40t-52.5 -76l-236 -424q-22 -39 3 -38q25 2 60 32q71 58 115 132q4 6 7 3.5t1 -7.5q-50 -84 -123 -143q-12 -10 -28.5 -19t-36 -16.5t-37 -4t-25.5 19.5
zM469 668l-105 -36q-5 -1 -6 1.5t2 4.5l126 97q14 -10 19.5 -22t-3 -24.5t-33.5 -20.5z" />
    <glyph glyph-name="Lcommaaccent" unicode="&#x13b;" horiz-adv-x="774" 
d="M487 -15q187 6 285 81q51 39 94 107q7 9 9 3q1 -2 -1 -6q-29 -50 -68 -95q-68 -77 -126.5 -99.5t-150.5 -22.5q-70 0 -174.5 14.5t-160.5 28.5q-33 -10 -70 -8q-51 4 -77 25t-26 69q119 -57 157 -65q12 3 24.5 13t28 31.5t24.5 34.5t28 44t23 38l89 162q74 137 167 208
q38 27 71 41q51 22 100.5 12.5t76.5 -50.5q12 -14 8.5 -34t-30.5 -28q0 52 -37 85.5t-90 10.5q-34 -15 -65 -48t-49 -62t-43 -76l-120 -220q-51 -90 -90 -128q-28 -27 -73 -47q160 -24 266 -19zM502 -110q-6 -37 -49.5 -81t-88.5 -63q-7 -5 -10 2q-2 5 5 9q56 29 94 94
q-25 -4 -37.5 8t-10.5 31q3 15 20 26.5t36 11.5t31 -11t10 -27z" />
    <glyph glyph-name="lcommaaccent" unicode="&#x13c;" horiz-adv-x="175" 
d="M31 -112q-6 -37 -48.5 -79t-89.5 -64q-7 -3 -10.5 1.5t5.5 9.5q56 28 94 95q-25 -5 -38 7.5t-10 29.5t20 28.5t36 11.5t31 -11.5t10 -28.5zM213 270l-124 -221q-22 -39 3 -38q25 2 60 32q71 58 115 132q4 6 7 3.5t1 -7.5q-50 -84 -123 -143q-12 -10 -28.5 -19t-36 -16.5
t-37 -4t-25.5 19.5q-18 31 20 100l107 193q218 383 452 468q235 84 341 -49q14 -13 12.5 -36t-27.5 -30q-14 56 -48 89t-79 40.5t-93 0.5t-99 -27q-57 -22 -109.5 -67t-107.5 -124t-80.5 -121t-80.5 -140q-14 -24 -20 -35z" />
    <glyph glyph-name="Lcaron" unicode="&#x13d;" horiz-adv-x="774" 
d="M487 -15q187 6 285 81q51 39 94 107q7 9 9 3q1 -2 -1 -6q-29 -50 -68 -95q-68 -77 -126.5 -99.5t-150.5 -22.5q-70 0 -174.5 14.5t-160.5 28.5q-33 -10 -70 -8q-51 4 -77 25t-26 69q119 -57 157 -65q12 3 24.5 13t28 31.5t24.5 34.5t28 44t23 38l89 162q74 137 167 208
q38 27 71 41q51 22 100.5 12.5t76.5 -50.5q12 -14 8.5 -34t-30.5 -28q0 52 -37 85.5t-90 10.5q-34 -15 -65 -48t-49 -62t-43 -76l-120 -220q-51 -90 -90 -128q-28 -27 -73 -47q160 -24 266 -19zM841 735l-78 -75q-14 -14 -25.5 -20t-19.5 -7t-29 -1l-18 103q26 0 36 -20
l18 -38l65 42q22 16 51 16z" />
    <glyph glyph-name="lcaron" unicode="&#x13e;" horiz-adv-x="340" 
d="M465 435q-6 -37 -50 -80.5t-88 -63.5q-4 -2 -7.5 -1t-3.5 5t6 7q58 30 93 94q-24 -4 -37 8.5t-10 30.5q3 16 19.5 27t36.5 11q19 0 31 -11t10 -27zM213 270l-124 -221q-22 -39 3 -38q25 2 60 32q71 58 115 132q4 6 7 3.5t1 -7.5q-50 -84 -123 -143q-12 -10 -28.5 -19
t-36 -16.5t-37 -4t-25.5 19.5q-18 31 20 100l107 193q218 383 452 468q235 84 341 -49q14 -13 12.5 -36t-27.5 -30q-14 56 -48 89t-79 40.5t-93 0.5t-99 -27q-57 -22 -109.5 -67t-107.5 -124t-80.5 -121t-80.5 -140q-14 -24 -20 -35z" />
    <glyph glyph-name="Lslash" unicode="&#x141;" horiz-adv-x="774" 
d="M282 243l80 38l33 59q74 137 167 208q38 27 71 41q51 22 100.5 12.5t76.5 -50.5q12 -14 8.5 -34t-30.5 -28q0 52 -37 85.5t-90 10.5q-34 -15 -65 -48t-49 -62t-43 -76l-38 -70l65 31q11 6 14.5 -0.5t-7.5 -11.5l-84 -40l-70 -129q-51 -90 -90 -128q-28 -27 -73 -47
q160 -24 266 -19q187 6 285 81q51 39 94 107q7 9 9 3q1 -2 -1 -6q-29 -50 -68 -95q-68 -77 -126.5 -99.5t-150.5 -22.5q-70 0 -174.5 14.5t-160.5 28.5q-33 -10 -70 -8q-51 4 -77 25t-26 69q119 -57 157 -65q12 3 24.5 13t28 31.5t24.5 34.5t28 44t23 38l45 81l-63 -29
q-8 -4 -11.5 2t5.5 11z" />
    <glyph glyph-name="lslash" unicode="&#x142;" horiz-adv-x="175" 
d="M213 270l-124 -221q-22 -39 3 -38q25 2 60 32q71 58 115 132q4 6 7 3.5t1 -7.5q-50 -84 -123 -143q-12 -10 -28.5 -19t-36 -16.5t-37 -4t-25.5 19.5q-18 31 20 100l83 151l-61 -29q-8 -4 -11.5 2t5.5 11l79 37l12 21q218 383 452 468q235 84 341 -49q14 -13 12.5 -36
t-27.5 -30q-14 56 -48 89t-79 40.5t-93 0.5t-99 -27q-54 -21 -106.5 -65.5t-100.5 -110.5t-81.5 -119.5t-76.5 -131.5l64 30q11 6 14.5 -0.5t-7.5 -11.5l-82 -39z" />
    <glyph glyph-name="Nacute" unicode="&#x143;" horiz-adv-x="988" 
d="M394 514q87 43 176 59.5t171.5 5.5t145.5 -68t87 -156l30 53q42 76 101 136t126 60q50 0 64 -37q3 -6 -3 -6q-3 0 -4 4q-21 36 -61 24q-25 -6 -56 -40t-53 -76l-235 -424q-23 -42 7 -38q24 3 64 28q69 44 125 134q7 9 10 3q0 -3 -1 -6q-39 -66 -95 -117t-113 -62
q-44 -11 -59 11q-26 34 14 106l100 177q10 145 -88 229l-144 -263q-72 -134 -163 -211t-229 -126q-83 -28 -166 -29q26 -65 85.5 -103t125 -44t130 13.5t102.5 61.5q9 11 12 7.5t-6 -12.5q-39 -45 -109.5 -66.5t-144 -15t-143.5 48t-106 113.5q-132 12 -194 88
q-14 13 -12 34.5t27 30.5q29 -112 171 -135q-66 156 27 334.5t284 273.5zM436 503q-104 -57 -185 -154.5t-115 -214t4 -233.5q92 -2 163 27q42 17 76 35t63.5 44t50 47.5t46.5 61t42.5 67t48.5 82.5l92 163q51 89 92 110q-52 31 -120.5 33.5t-132.5 -16t-125 -52.5z
M1049 668l-105 -36q-5 -1 -6 1.5t2 4.5l126 97q14 -10 19.5 -22t-3 -24.5t-33.5 -20.5z" />
    <glyph glyph-name="nacute" unicode="&#x144;" 
d="M423 175q2 4 5 4t4 -2.5t-1 -5.5q-47 -80 -107 -131.5t-103 -51.5q-16 0 -26.5 11.5t-8 40t23.5 68.5l77 138q24 41 0 38q-21 -2 -58 -33q-42 -33 -72 -79l-99 -178q-17 0 -29 7t-16.5 24.5t12.5 46.5l127 230q15 0 27 -7t18 -22.5t-8 -41.5q77 77 131 77q16 0 26.5 -12
t8.5 -40.5t-23 -67.5l-77 -139q-23 -40 -1 -37q17 3 56 31q65 50 113 132zM347 391l-105 -35q-5 -1 -6.5 0.5t1.5 5.5l126 96q15 -10 20 -22t-3.5 -24.5t-32.5 -20.5z" />
    <glyph glyph-name="Ncommaaccent" unicode="&#x145;" horiz-adv-x="988" 
d="M436 503q-104 -57 -185 -154.5t-115 -214t4 -233.5q92 -2 163 27q42 17 76 35t63.5 44t50 47.5t46.5 61t42.5 67t48.5 82.5l92 163q51 89 92 110q-52 31 -120.5 33.5t-132.5 -16t-125 -52.5zM91 -112q-132 12 -194 88q-14 13 -12 34.5t27 30.5q29 -112 171 -135
q-66 156 27 334.5t284 273.5q87 43 176 59.5t171.5 5.5t145.5 -68t87 -156l30 53q42 76 101 136t126 60q50 0 64 -37q3 -6 -3 -6q-3 0 -4 4q-21 36 -61 24q-25 -6 -56 -40t-53 -76l-235 -424q-23 -42 7 -38q24 3 64 28q69 44 125 134q7 9 10 3q0 -3 -1 -6q-39 -66 -95 -117
t-113 -62q-44 -11 -59 11q-26 34 14 106l100 177q10 145 -88 229l-144 -263q-72 -134 -163 -211t-229 -126q-83 -28 -166 -29q31 -76 104.5 -115t156.5 -35q14 1 14 -2.5t-12 -5.5q-98 -7 -185.5 33t-131.5 128zM690 -111q-6 -37 -49.5 -79t-89.5 -64q-8 -4 -10 2q-2 5 6 9
q56 28 94 95q-23 -5 -37 7.5t-11 29.5t20 28.5t36 11.5t31 -11.5t10 -28.5z" />
    <glyph glyph-name="ncommaaccent" unicode="&#x146;" 
d="M423 175q2 4 5 4t4 -2.5t-1 -5.5q-47 -80 -107 -131.5t-103 -51.5q-16 0 -26.5 11.5t-8 40t23.5 68.5l77 138q24 41 0 38q-21 -2 -58 -33q-42 -33 -72 -79l-99 -178q-17 0 -29 7t-16.5 24.5t12.5 46.5l127 230q15 0 27 -7t18 -22.5t-8 -41.5q77 77 131 77q16 0 26.5 -12
t8.5 -40.5t-23 -67.5l-77 -139q-23 -40 -1 -37q17 3 56 31q65 50 113 132zM135 -112q-6 -37 -48.5 -78.5t-88.5 -64.5q-9 -3 -11.5 1.5t6.5 9.5q57 28 93 95q-23 -5 -36.5 7.5t-11.5 29.5q3 17 19.5 28.5t37.5 11.5q19 0 30.5 -11.5t9.5 -28.5z" />
    <glyph glyph-name="Ncaron" unicode="&#x147;" horiz-adv-x="988" 
d="M394 514q87 43 176 59.5t171.5 5.5t145.5 -68t87 -156l30 53q42 76 101 136t126 60q50 0 64 -37q3 -6 -3 -6q-3 0 -4 4q-21 36 -61 24q-25 -6 -56 -40t-53 -76l-235 -424q-23 -42 7 -38q24 3 64 28q69 44 125 134q7 9 10 3q0 -3 -1 -6q-39 -66 -95 -117t-113 -62
q-44 -11 -59 11q-26 34 14 106l100 177q10 145 -88 229l-144 -263q-72 -134 -163 -211t-229 -126q-83 -28 -166 -29q26 -65 85.5 -103t125 -44t130 13.5t102.5 61.5q9 11 12 7.5t-6 -12.5q-39 -45 -109.5 -66.5t-144 -15t-143.5 48t-106 113.5q-132 12 -194 88
q-14 13 -12 34.5t27 30.5q29 -112 171 -135q-66 156 27 334.5t284 273.5zM436 503q-104 -57 -185 -154.5t-115 -214t4 -233.5q92 -2 163 27q42 17 76 35t63.5 44t50 47.5t46.5 61t42.5 67t48.5 82.5l92 163q51 89 92 110q-52 31 -120.5 33.5t-132.5 -16t-125 -52.5z
M1135 735l-78 -75q-14 -14 -25.5 -20t-19.5 -7t-29 -1l-18 103q26 0 36 -20l18 -38l65 42q22 16 51 16z" />
    <glyph glyph-name="ncaron" unicode="&#x148;" 
d="M423 175q2 4 5 4t4 -2.5t-1 -5.5q-47 -80 -107 -131.5t-103 -51.5q-16 0 -26.5 11.5t-8 40t23.5 68.5l77 138q24 41 0 38q-21 -2 -58 -33q-42 -33 -72 -79l-99 -178q-17 0 -29 7t-16.5 24.5t12.5 46.5l127 230q15 0 27 -7t18 -22.5t-8 -41.5q77 77 131 77q16 0 26.5 -12
t8.5 -40.5t-23 -67.5l-77 -139q-23 -40 -1 -37q17 3 56 31q65 50 113 132zM402 458l-79 -75q-14 -14 -25.5 -20t-19.5 -7t-29 -1l-18 103q26 0 36 -20l18 -37l65 42q8 6 15.5 9.5t13 5t9.5 1.5t8.5 -0.5t5.5 -0.5z" />
    <glyph glyph-name="Omacron" unicode="&#x14c;" horiz-adv-x="793" 
d="M675 571q76 0 126.5 -47.5t50.5 -135.5q2 -103 -81.5 -228t-207.5 -203q-115 -70 -231 -70q-94 0 -163.5 51.5t-77.5 142.5q-10 126 74.5 260.5t212.5 205.5q42 23 89.5 37t99.5 12t88 -26q3 0 10 0.5t10 0.5zM724 431q0 -8 -3 -11t-7 0.5t-4 10.5q-7 85 -59 124
q-106 -15 -190.5 -100t-127.5 -192q-6 -16 -19 -19t-20.5 7.5t-0.5 26.5q42 95 137.5 182.5t199.5 105.5q-45 16 -101 -0.5t-105 -47.5q-120 -81 -194 -199t-76 -239q-2 -85 47 -131.5t132 -46.5q82 0 164.5 49.5t142 123t99.5 157t46 153.5q6 83 -24.5 127.5t-89.5 43.5
q47 -44 53 -125zM765 661h-113q-16 0 -16 12q0 13 16 17q4 1 9 1h114q16 0 16 -12q0 -13 -17 -17q-4 -1 -9 -1z" />
    <glyph glyph-name="omacron" unicode="&#x14d;" horiz-adv-x="325" 
d="M318 148q-49 -86 -114 -129q3 -3 7 -4q19 -7 46.5 2.5t47.5 25.5q71 55 113 132q2 4 4.5 4t3.5 -2.5t-1 -5.5q-51 -87 -111 -136q-67 -53 -120 -47q-19 2 -31 10q-33 -11 -65 -11q-43 0 -60.5 22t-11 57t31.5 82q41 71 98 115.5t120 44.5q64 0 73 -46.5t-31 -113.5z
M105 0q16 0 40 18q-10 24 10.5 46t57.5 24q54 73 75 139t-20 66q-24 0 -63.5 -42t-73.5 -103q-55 -101 -42 -137q5 -11 16 -11zM358 385h-113q-17 0 -16 12q6 14 25 17h114q16 0 15 -12q-6 -14 -25 -17z" />
    <glyph glyph-name="Obreve" unicode="&#x14e;" horiz-adv-x="793" 
d="M675 571q76 0 126.5 -47.5t50.5 -135.5q2 -103 -81.5 -228t-207.5 -203q-115 -70 -231 -70q-94 0 -163.5 51.5t-77.5 142.5q-10 126 74.5 260.5t212.5 205.5q42 23 89.5 37t99.5 12t88 -26q3 0 10 0.5t10 0.5zM724 431q0 -8 -3 -11t-7 0.5t-4 10.5q-7 85 -59 124
q-106 -15 -190.5 -100t-127.5 -192q-6 -16 -19 -19t-20.5 7.5t-0.5 26.5q42 95 137.5 182.5t199.5 105.5q-45 16 -101 -0.5t-105 -47.5q-120 -81 -194 -199t-76 -239q-2 -85 47 -131.5t132 -46.5q82 0 164.5 49.5t142 123t99.5 157t46 153.5q6 83 -24.5 127.5t-89.5 43.5
q47 -44 53 -125zM789 724q8 16 14 9q2 -3 0 -9q-16 -47 -46 -71.5t-66 -20.5q-25 3 -40 26.5t-4 65.5q2 6 6.5 8.5t7.5 -0.5t2 -10q-5 -46 36 -47q40 -2 74 30q10 9 16 19z" />
    <glyph glyph-name="obreve" unicode="&#x14f;" horiz-adv-x="325" 
d="M318 148q-49 -86 -114 -129q3 -3 7 -4q19 -7 46.5 2.5t47.5 25.5q71 55 113 132q2 4 4.5 4t3.5 -2.5t-1 -5.5q-51 -87 -111 -136q-67 -53 -120 -47q-19 2 -31 10q-33 -11 -65 -11q-43 0 -60.5 22t-11 57t31.5 82q41 71 98 115.5t120 44.5q64 0 73 -46.5t-31 -113.5z
M105 0q16 0 40 18q-10 24 10.5 46t57.5 24q54 73 75 139t-20 66q-24 0 -63.5 -42t-73.5 -103q-55 -101 -42 -137q5 -11 16 -11zM386 448q8 14 15 9q3 -3 1 -9q-17 -48 -47.5 -72.5t-66.5 -19.5q-25 3 -39.5 26.5t-3.5 65.5q1 6 6 8.5t8 -1t2 -10.5q-5 -47 37 -47
q39 -1 73 32q10 9 15 18z" />
    <glyph glyph-name="Ohungarumlaut" unicode="&#x150;" horiz-adv-x="793" 
d="M675 571q76 0 126.5 -47.5t50.5 -135.5q2 -103 -81.5 -228t-207.5 -203q-115 -70 -231 -70q-94 0 -163.5 51.5t-77.5 142.5q-10 126 74.5 260.5t212.5 205.5q42 23 89.5 37t99.5 12t88 -26q3 0 10 0.5t10 0.5zM724 431q0 -8 -3 -11t-7 0.5t-4 10.5q-7 85 -59 124
q-106 -15 -190.5 -100t-127.5 -192q-6 -16 -19 -19t-20.5 7.5t-0.5 26.5q42 95 137.5 182.5t199.5 105.5q-45 16 -101 -0.5t-105 -47.5q-120 -81 -194 -199t-76 -239q-2 -85 47 -131.5t132 -46.5q82 0 164.5 49.5t142 123t99.5 157t46 153.5q6 83 -24.5 127.5t-89.5 43.5
q47 -44 53 -125zM693 668l-105 -36q-5 -1 -6 1.5t2 4.5l126 97q14 -10 19.5 -22t-3 -24.5t-33.5 -20.5zM808 668l-106 -36q-6 -2 -6.5 1t3.5 5l126 97q14 -10 19 -22t-3.5 -24.5t-32.5 -20.5z" />
    <glyph glyph-name="ohungarumlaut" unicode="&#x151;" horiz-adv-x="325" 
d="M318 148q-49 -86 -114 -129q3 -3 7 -4q19 -7 46.5 2.5t47.5 25.5q71 55 113 132q2 4 4.5 4t3.5 -2.5t-1 -5.5q-51 -87 -111 -136q-67 -53 -120 -47q-19 2 -31 10q-33 -11 -65 -11q-43 0 -60.5 22t-11 57t31.5 82q41 71 98 115.5t120 44.5q64 0 73 -46.5t-31 -113.5z
M105 0q16 0 40 18q-10 24 10.5 46t57.5 24q54 73 75 139t-20 66q-24 0 -63.5 -42t-73.5 -103q-55 -101 -42 -137q5 -11 16 -11zM290 391l-105 -35q-5 -1 -6 1t2 5l125 96q15 -9 20.5 -21t-3 -25t-33.5 -21zM405 391l-106 -35q-6 -2 -6.5 0.5t2.5 5.5l127 96q14 -10 19 -22
t-3.5 -24.5t-32.5 -20.5z" />
    <glyph glyph-name="OE" unicode="&#x152;" horiz-adv-x="1131" 
d="M820 388q-3 -41 -18 -86q66 34 153 42q-60 24 -74 64t10 77.5t70 61.5q114 59 220 39q38 -7 62.5 -28.5t22.5 -54.5q0 -25 -22 -49t-51 -24q-21 0 -33 10.5t-9 27.5q2 16 19 27t37 11q11 0 18 -3q13 28 1 44.5t-40 23.5q-43 10 -96.5 -4.5t-94.5 -49.5q-51 -43 -53.5 -97
t52.5 -71q132 0 171 5q-7 -16 -16.5 -27t-23.5 -15t-24 -6t-30 2l-27.5 5.5t-29.5 8t-25 7.5q-119 -14 -208 -106.5t-89 -178.5q0 -70 44.5 -105.5t122 -26t169.5 64.5q102 63 195 196q5 8 9 2q2 -2 -1 -6q-87 -131 -192 -201q-58 -39 -121 -60.5t-114 -19.5
q-76 4 -124.5 41t-59.5 102l-1 4q-44 -41 -100 -78q-107 -68 -225 -70q-89 0 -146 41.5t-70 119.5q-2 7 -2 36q0 124 96 261t217 202q61 33 131 39.5t114 -18.5q84 10 138 -35t48 -145zM749 389q14 92 -11 132.5t-89 34.5q-99 -9 -186 -95t-138 -199q-8 -15 -20.5 -17.5
t-17.5 7t1 26.5q38 86 135.5 176t185.5 109q-34 11 -86.5 -3t-98.5 -42q-113 -75 -199.5 -217t-77.5 -267q6 -67 47.5 -99.5t101.5 -32.5q40 0 94.5 22t95.5 55q95 72 169.5 191t93.5 219z" />
    <glyph glyph-name="oe" unicode="&#x153;" horiz-adv-x="495" 
d="M268 293q-24 0 -63.5 -42t-73.5 -103q-55 -101 -42 -137q5 -11 16 -11q32 0 86 62q69 81 97 165q21 66 -20 66zM463 296q-20 0 -53.5 -33.5t-66.5 -85.5q-11 -17 -26 -47q97 21 143 99q11 19 15.5 34.5t1 24t-13.5 8.5zM301 -5q-45 11 -59 55q-69 -63 -144 -63
q-43 0 -60.5 22t-11 57t31.5 82q41 71 98 115.5t120 44.5q61 0 72 -45q63 45 124 45q44 0 62 -23.5t-6 -67.5q-24 -37 -84.5 -62.5t-131.5 -36.5q-33 -75 7 -100q59 -37 161 34q62 50 108 123q2 4 4.5 4t3.5 -2.5t-1 -5.5q-49 -83 -109 -129q-93 -73 -185 -47z" />
    <glyph glyph-name="Racute" unicode="&#x154;" horiz-adv-x="985" 
d="M394 514q121 57 246.5 72t227.5 -18q20 12 42 21q51 22 100.5 12.5t76.5 -50.5q12 -14 8.5 -34t-30.5 -28q0 51 -36.5 84.5t-90.5 11.5q-20 -8 -43 -26q60 -25 96 -60t39.5 -76.5t-42.5 -82.5q-23 -21 -75.5 -35t-113.5 -14q62 -27 79 -123l17 -109q4 -22 11.5 -31.5
t20 -5t20.5 9.5t24 18q64 56 104 123q7 11 10 4q1 -3 -1 -6q-55 -92 -132 -150q-108 -81 -130 42l-16 105q-10 62 -29 90.5t-54 32.5l-21 -40q-73 -134 -163.5 -211.5t-227.5 -125.5q-83 -28 -166 -29q26 -65 85.5 -103t125 -44t130 13.5t102.5 61.5q9 11 12 7.5t-6 -12.5
q-39 -45 -109.5 -66.5t-144 -15t-143.5 48t-106 113.5q-132 12 -194 88q-14 13 -12 34.5t27 30.5q29 -112 171 -135q-35 77 -24.5 165.5t51.5 170.5t115.5 154.5t168.5 117.5zM436 503q-104 -56 -185 -154t-115 -214.5t4 -233.5q92 -2 163 27q42 17 76 35t63.5 44.5t49 46.5
t47 61.5t42.5 66.5t48 83l43 76q50 84 90 133.5t86 80.5q-93 32 -199.5 18.5t-212.5 -70.5zM781 399l-48 -90q71 -8 125 10t80 46q44 50 28 97.5t-89 79.5q-43 -45 -96 -143zM972 668l-105 -36q-5 -1 -6 1.5t2 4.5l126 97q14 -10 19.5 -22t-3 -24.5t-33.5 -20.5z" />
    <glyph glyph-name="racute" unicode="&#x155;" horiz-adv-x="255" 
d="M350 391l-105 -35q-5 -1 -6.5 0.5t1.5 5.5l126 96q15 -10 20 -22t-3.5 -24.5t-32.5 -20.5zM155 -12q-16 0 -26.5 12t-7 40t25.5 67l39 69q13 20 11.5 39t-24.5 36l-17 12q-56 -104 -112 -170q-5 -6 -8 -3t2 8q57 75 106 175q-20 20 -14 44t28 44t42 20q-19 -66 -38 -106
l45 -34q31 -26 37 -47q11 -33 -14 -77l-40 -68q-26 -47 -1 -38q15 6 45 30q63 49 113 134q2 4 5 4t4 -2.5t-1 -5.5q-35 -61 -79 -106q-75 -77 -121 -77z" />
    <glyph glyph-name="Rcommaaccent" unicode="&#x156;" horiz-adv-x="985" 
d="M406 -265q14 1 14 -2.5t-12 -5.5q-98 -7 -185.5 33t-131.5 128q-132 12 -194 88q-14 13 -12 34.5t27 30.5q29 -112 171 -135q-35 77 -24.5 165.5t51.5 170.5t115.5 154.5t168.5 117.5q121 57 246.5 72t227.5 -18q20 12 42 21q51 22 100.5 12.5t76.5 -50.5q12 -14 8.5 -34
t-30.5 -28q0 51 -36.5 84.5t-90.5 11.5q-20 -8 -43 -26q60 -25 96 -60t39.5 -76.5t-42.5 -82.5q-23 -21 -75.5 -35t-113.5 -14q62 -27 79 -123l17 -109q4 -22 11.5 -31.5t20 -5t20.5 9.5t24 18q64 56 104 123q7 11 10 4q1 -3 -1 -6q-55 -92 -132 -150q-108 -81 -130 42
l-16 105q-10 62 -29 90.5t-54 32.5l-21 -40q-73 -134 -163.5 -211.5t-227.5 -125.5q-83 -28 -166 -29q31 -76 104.5 -115t156.5 -35zM436 503q-104 -56 -185 -154t-115 -214.5t4 -233.5q92 -2 163 27q42 17 76 35t63.5 44.5t49 46.5t47 61.5t42.5 66.5t48 83l43 76
q50 84 90 133.5t86 80.5q-93 32 -199.5 18.5t-212.5 -70.5zM781 399l-48 -90q71 -8 125 10t80 46q44 50 28 97.5t-89 79.5q-43 -45 -96 -143zM716 -111q-6 -37 -49.5 -79t-89.5 -64q-8 -4 -10 2q-2 5 6 9q56 28 94 95q-23 -5 -37 7.5t-11 29.5t20 28.5t36 11.5t31 -11.5
t10 -28.5z" />
    <glyph glyph-name="rcommaaccent" unicode="&#x157;" horiz-adv-x="255" 
d="M91 -112q-6 -37 -49.5 -79t-89.5 -64q-8 -4 -10 2q-2 5 6 9q56 28 94 95q-25 -5 -38 7.5t-10 29.5t20 28.5t36 11.5t31 -11.5t10 -28.5zM155 -12q-16 0 -26.5 12t-7 40t25.5 67l39 69q13 20 11.5 39t-24.5 36l-17 12q-56 -104 -112 -170q-5 -6 -8 -3t2 8q57 75 106 175
q-20 20 -14 44t28 44t42 20q-19 -66 -38 -106l45 -34q31 -26 37 -47q11 -33 -14 -77l-40 -68q-26 -47 -1 -38q15 6 45 30q63 49 113 134q2 4 5 4t4 -2.5t-1 -5.5q-35 -61 -79 -106q-75 -77 -121 -77z" />
    <glyph glyph-name="Rcaron" unicode="&#x158;" horiz-adv-x="985" 
d="M394 514q121 57 246.5 72t227.5 -18q20 12 42 21q51 22 100.5 12.5t76.5 -50.5q12 -14 8.5 -34t-30.5 -28q0 51 -36.5 84.5t-90.5 11.5q-20 -8 -43 -26q60 -25 96 -60t39.5 -76.5t-42.5 -82.5q-23 -21 -75.5 -35t-113.5 -14q62 -27 79 -123l17 -109q4 -22 11.5 -31.5
t20 -5t20.5 9.5t24 18q64 56 104 123q7 11 10 4q1 -3 -1 -6q-55 -92 -132 -150q-108 -81 -130 42l-16 105q-10 62 -29 90.5t-54 32.5l-21 -40q-73 -134 -163.5 -211.5t-227.5 -125.5q-83 -28 -166 -29q26 -65 85.5 -103t125 -44t130 13.5t102.5 61.5q9 11 12 7.5t-6 -12.5
q-39 -45 -109.5 -66.5t-144 -15t-143.5 48t-106 113.5q-132 12 -194 88q-14 13 -12 34.5t27 30.5q29 -112 171 -135q-35 77 -24.5 165.5t51.5 170.5t115.5 154.5t168.5 117.5zM436 503q-104 -56 -185 -154t-115 -214.5t4 -233.5q92 -2 163 27q42 17 76 35t63.5 44.5t49 46.5
t47 61.5t42.5 66.5t48 83l43 76q50 84 90 133.5t86 80.5q-93 32 -199.5 18.5t-212.5 -70.5zM781 399l-48 -90q71 -8 125 10t80 46q44 50 28 97.5t-89 79.5q-43 -45 -96 -143zM1000 735l-77 -75q-14 -14 -25.5 -20t-19.5 -7t-29 -1l-19 103h4h4t4 -0.5t5 -1t5 -2t5 -3.5
t4.5 -5.5t4.5 -7.5l19 -38l65 42q22 16 50 16z" />
    <glyph glyph-name="rcaron" unicode="&#x159;" horiz-adv-x="255" 
d="M407 458l-79 -75q-19 -19 -32.5 -23.5t-40.5 -4.5l-19 103h4h4t4 -0.5t5 -1t5 -2t5 -3.5t4.5 -5.5t4.5 -7.5l19 -37l65 42q10 7 19.5 11t13.5 4.5t11 -0.5h7zM155 -12q-16 0 -26.5 12t-7 40t25.5 67l39 69q13 20 11.5 39t-24.5 36l-17 12q-56 -104 -112 -170q-5 -6 -8 -3
t2 8q57 75 106 175q-20 20 -14 44t28 44t42 20q-19 -66 -38 -106l45 -34q31 -26 37 -47q11 -33 -14 -77l-40 -68q-26 -47 -1 -38q15 6 45 30q63 49 113 134q2 4 5 4t4 -2.5t-1 -5.5q-35 -61 -79 -106q-75 -77 -121 -77z" />
    <glyph glyph-name="Sacute" unicode="&#x15a;" horiz-adv-x="737" 
d="M424 -134q76 27 131 81.5t74 115.5q29 92 -14 251q-15 54 -18.5 97.5t3 72t20 50.5t32 32t38.5 17t41 5.5t38 -2.5q39 -7 65.5 -28t26.5 -55q0 -26 -22 -49.5t-53 -23.5q-21 0 -34 10.5t-11 27.5q2 16 19.5 27t38.5 11q11 0 19 -3q15 26 1 44.5t-44 23.5q-35 5 -66.5 -5
t-43.5 -30q-16 -26 -17 -55t6 -54t28 -89q29 -88 32 -148t-23 -122q-32 -67 -98.5 -129.5t-155.5 -88.5q-74 -19 -143 -17t-129 35t-92 91q-27 53 -27.5 113.5t31.5 124.5t90 111q51 41 117 61t132 0.5t96 -87.5q30 -66 -6 -149.5t-108 -122.5q-20 -14 -41.5 -7t-25.5 36
q101 18 151 90.5t16 151.5q-24 56 -77.5 67.5t-110.5 -13.5t-102 -70q-60 -58 -85 -139.5t4 -159.5q33 -81 120 -108t177 8zM812 668l-104 -36q-5 -1 -6.5 1.5t1.5 4.5l126 97q14 -10 19.5 -22t-3 -24.5t-33.5 -20.5z" />
    <glyph glyph-name="sacute" unicode="&#x15b;" horiz-adv-x="266" 
d="M165 116l-25 63q-20 49 6.5 91t95.5 38q33 -2 52.5 -18t22.5 -39q3 -24 -14 -41.5t-41 -17.5q-16 0 -26 9.5t-8 23.5q3 15 16 24.5t29 9.5q4 0 14 -2q3 31 -30 39q-34 9 -56 -13q-15 -14 -13 -36q2 -21 23.5 -68t26.5 -65q22 -70 -47 -109q-49 -27 -103 -13
q-46 12 -65 55.5t4 89.5q9 19 30.5 32t46.5 9q-33 -55 -76 -104q6 -36 34.5 -55t62.5 -11q32 7 44.5 34.5t-4.5 73.5zM327 391l-105 -35q-5 -1 -6.5 0.5t1.5 5.5l126 96q15 -10 20 -22t-3.5 -24.5t-32.5 -20.5z" />
    <glyph glyph-name="Scircumflex" unicode="&#x15c;" horiz-adv-x="737" 
d="M424 -134q76 27 131 81.5t74 115.5q29 92 -14 251q-15 54 -18.5 97.5t3 72t20 50.5t32 32t38.5 17t41 5.5t38 -2.5q39 -7 65.5 -28t26.5 -55q0 -26 -22 -49.5t-53 -23.5q-21 0 -34 10.5t-11 27.5q2 16 19.5 27t38.5 11q11 0 19 -3q15 26 1 44.5t-44 23.5q-35 5 -66.5 -5
t-43.5 -30q-16 -26 -17 -55t6 -54t28 -89q29 -88 32 -148t-23 -122q-32 -67 -98.5 -129.5t-155.5 -88.5q-74 -19 -143 -17t-129 35t-92 91q-27 53 -27.5 113.5t31.5 124.5t90 111q51 41 117 61t132 0.5t96 -87.5q30 -66 -6 -149.5t-108 -122.5q-20 -14 -41.5 -7t-25.5 36
q101 18 151 90.5t16 151.5q-24 56 -77.5 67.5t-110.5 -13.5t-102 -70q-60 -58 -85 -139.5t4 -159.5q33 -81 120 -108t177 8zM686 630l117 103h7.5h6.5t6 -0.5t5.5 -1t4.5 -2t4.5 -4.5t3.5 -6.5t3 -8.5l24 -80q-26 0 -35 16l-25 41l-69 -41q-26 -16 -53 -16z" />
    <glyph glyph-name="scircumflex" unicode="&#x15d;" horiz-adv-x="266" 
d="M165 116l-25 63q-20 49 6.5 91t95.5 38q33 -2 52.5 -18t22.5 -39q3 -24 -14 -41.5t-41 -17.5q-16 0 -26 9.5t-8 23.5q3 15 16 24.5t29 9.5q4 0 14 -2q3 31 -30 39q-34 9 -56 -13q-15 -14 -13 -36q2 -21 23.5 -68t26.5 -65q22 -70 -47 -109q-49 -27 -103 -13
q-46 12 -65 55.5t4 89.5q9 19 30.5 32t46.5 9q-33 -55 -76 -104q6 -36 34.5 -55t62.5 -11q32 7 44.5 34.5t-4.5 73.5zM177 355l118 103h8h7.5t6 -0.5t6.5 -2t4.5 -4t4.5 -6.5t3 -10l24 -80q-26 0 -35 16l-24 41l-70 -41q-26 -16 -53 -16z" />
    <glyph glyph-name="Scedilla" unicode="&#x15e;" horiz-adv-x="737" 
d="M266 -240q-6 -2 -9.5 1t2.5 8l62 63q-81 -1 -146.5 31t-101.5 96q-27 53 -27.5 113.5t31.5 124.5t90 111q51 41 117 61t132 0.5t96 -87.5q30 -66 -6 -149.5t-108 -122.5q-20 -14 -41.5 -7t-25.5 36q101 18 151 90.5t16 151.5q-24 56 -77.5 67.5t-110.5 -13.5t-102 -70
q-60 -58 -85 -139.5t4 -159.5q33 -81 120 -108t177 8q76 27 131 81.5t74 115.5q29 92 -14 251q-15 54 -18.5 97.5t3 72t20 50.5t32 32t38.5 17t41 5.5t38 -2.5q39 -7 65.5 -28t26.5 -55q0 -26 -22 -49.5t-53 -23.5q-21 0 -34 10.5t-11 27.5q2 16 19.5 27t38.5 11q11 0 19 -3
q15 26 1 44.5t-44 23.5q-35 5 -66.5 -5t-43.5 -30q-16 -26 -17 -55t6 -54t28 -89q29 -88 32 -148t-23 -122q-32 -67 -98.5 -129.5t-155.5 -88.5q-55 -14 -98 -17l-36 -42q50 4 71 -19.5t5.5 -52t-56.5 -38.5q-23 -5 -55.5 -0.5t-54.5 15.5l13 13q20 -14 60 -7t50 34
q6 19 -21.5 27.5t-48.5 -3.5z" />
    <glyph glyph-name="scedilla" unicode="&#x15f;" horiz-adv-x="266" 
d="M25 -81q-6 -2 -9.5 1t1.5 8l65 66q-43 15 -60.5 56.5t5.5 86.5q9 19 30.5 32t46.5 9q-33 -55 -76 -104q6 -36 34.5 -55t62.5 -11q32 7 44.5 34.5t-4.5 73.5l-25 63q-20 49 6.5 91t95.5 38q33 -2 52.5 -18t22.5 -39q3 -24 -14 -41.5t-41 -17.5q-16 0 -26 9.5t-8 23.5
q3 15 16 24.5t29 9.5q4 0 14 -2q3 31 -30 39q-34 9 -56 -13q-15 -14 -13 -36q2 -21 23.5 -68t26.5 -65q22 -70 -47 -109q-43 -23 -95 -15l-34 -40q38 3 59.5 -11t23 -33t-15.5 -38.5t-48 -27.5q-22 -5 -54.5 -0.5t-54.5 15.5l13 13q20 -14 60 -7t50 34q6 19 -21.5 27.5
t-48.5 -3.5z" />
    <glyph glyph-name="Scaron" unicode="&#x160;" horiz-adv-x="737" 
d="M424 -134q76 27 131 81.5t74 115.5q29 92 -14 251q-15 54 -18.5 97.5t3 72t20 50.5t32 32t38.5 17t41 5.5t38 -2.5q39 -7 65.5 -28t26.5 -55q0 -26 -22 -49.5t-53 -23.5q-21 0 -34 10.5t-11 27.5q2 16 19.5 27t38.5 11q11 0 19 -3q15 26 1 44.5t-44 23.5q-35 5 -66.5 -5
t-43.5 -30q-16 -26 -17 -55t6 -54t28 -89q29 -88 32 -148t-23 -122q-32 -67 -98.5 -129.5t-155.5 -88.5q-74 -19 -143 -17t-129 35t-92 91q-27 53 -27.5 113.5t31.5 124.5t90 111q51 41 117 61t132 0.5t96 -87.5q30 -66 -6 -149.5t-108 -122.5q-20 -14 -41.5 -7t-25.5 36
q101 18 151 90.5t16 151.5q-24 56 -77.5 67.5t-110.5 -13.5t-102 -70q-60 -58 -85 -139.5t4 -159.5q33 -81 120 -108t177 8zM906 733l-78 -75q-21 -18 -34.5 -23t-39.5 -5l-18 104q26 0 36 -20l17 -39l66 43q10 7 19.5 11t13.5 4.5t11 0.5z" />
    <glyph glyph-name="scaron" unicode="&#x161;" horiz-adv-x="266" 
d="M165 116l-25 63q-20 49 6.5 91t95.5 38q33 -2 52.5 -18t22.5 -39q3 -24 -14 -41.5t-41 -17.5q-16 0 -26 9.5t-8 23.5q3 15 16 24.5t29 9.5q4 0 14 -2q3 31 -30 39q-34 9 -56 -13q-15 -14 -13 -36q2 -21 23.5 -68t26.5 -65q22 -70 -47 -109q-49 -27 -103 -13
q-46 12 -65 55.5t4 89.5q9 19 30.5 32t46.5 9q-33 -55 -76 -104q6 -36 34.5 -55t62.5 -11q32 7 44.5 34.5t-4.5 73.5zM398 458l-77 -75q-14 -14 -25.5 -20t-19.5 -7t-29 -1l-19 103q27 0 37 -20l18 -37l65 42q8 6 15.5 9.5t13 5t9 1.5t7.5 -0.5t5 -0.5z" />
    <glyph glyph-name="Tcommaaccent" unicode="&#x162;" horiz-adv-x="711" 
d="M720 282l-17 -31q-104 -190 -257 -277q-50 -35 -50 -71q0 -24 27 -27t47 19q7 8 11 3q3 -3 -2 -8q-18 -25 -52.5 -34.5t-62 1.5t-27.5 38q0 18 16 35l-41 -16q-83 -28 -166 -29q36 -85 123.5 -123t178 -22t141.5 73q9 11 12 7.5t-6 -12.5q-39 -45 -109.5 -66.5t-144 -15
t-143.5 48t-106 113.5q-132 12 -194 88q-14 13 -12 34.5t27 30.5q29 -112 171 -135q-66 156 27 334.5t284 273.5q270 130 469 70l150 -45q88 -26 137.5 -26t75.5 27q12 14 13.5 32.5t-7.5 29.5q-3 3 1 5.5t7 -2.5q22 -35 -7 -71q-37 -45 -145 -45q-71 0 -167 24l-59 13
q-24 -26 -72 -113zM445 515q-104 -54 -187.5 -155t-118.5 -221t2 -238q92 -2 163 27q42 17 76 35t63.5 44.5t49 46.5t47 61.5t42.5 66.5t48 83l43 76q79 139 150 194l-75 17q-96 19 -164.5 9.5t-138.5 -46.5z" />
    <glyph glyph-name="tcommaaccent" unicode="&#x163;" horiz-adv-x="224" 
d="M109 302h51q218 382 451 467q235 84 341 -49q14 -13 12.5 -36t-27.5 -30q-14 56 -48 89t-79 40.5t-93 0.5t-99 -27q-46 -18 -93 -56.5t-81.5 -78.5t-77.5 -105t-66 -105t-62 -110h77q10 0 6 -8q-3 -7 -13 -7h-79l-105 -193q-40 -70 -16 -80q18 -8 59 12q85 41 150 149
q4 6 7 3.5t1 -7.5q-64 -105 -151 -157q-70 -43 -109 -18l-40 -46q38 3 60 -11t23.5 -33t-15 -38.5t-48.5 -27.5q-23 -5 -55.5 -0.5t-54.5 15.5l13 13q20 -14 60 -7t50 34q6 19 -21.5 27.5t-48.5 -3.5q-6 -2 -9.5 1t2.5 8l74 75q-40 40 20 145l77 139h-48q-10 0 -7 8
q2 7 12 7z" />
    <glyph glyph-name="Tcaron" unicode="&#x164;" horiz-adv-x="711" 
d="M720 282l-17 -31q-73 -134 -163.5 -211.5t-227.5 -125.5q-83 -28 -166 -29q36 -85 123.5 -123t178 -22t141.5 73q9 11 12 7.5t-6 -12.5q-39 -45 -109.5 -66.5t-144 -15t-143.5 48t-106 113.5q-132 12 -194 88q-14 13 -12 34.5t27 30.5q29 -112 171 -135q-66 156 27 334.5
t284 273.5q270 130 469 70l150 -45q88 -26 137.5 -26t75.5 27q12 14 13.5 32.5t-7.5 29.5q-3 3 1 5.5t7 -2.5q22 -35 -7 -71q-37 -45 -145 -45q-71 0 -167 24l-59 13q-24 -26 -72 -113zM445 515q-104 -54 -187.5 -155t-118.5 -221t2 -238q92 -2 163 27q42 17 76 35
t63.5 44.5t49 46.5t47 61.5t42.5 66.5t48 83l43 76q79 139 150 194l-75 17q-96 19 -164.5 9.5t-138.5 -46.5zM1023 735l-78 -75q-14 -14 -25.5 -20t-19.5 -7t-29 -1l-19 103h4h4t4 -0.5t5 -1t5 -2t5 -3.5t4.5 -5.5t4.5 -7.5l19 -38l65 42q22 16 51 16z" />
    <glyph glyph-name="tcaron" unicode="&#x165;" horiz-adv-x="350" 
d="M505 435q-6 -37 -49.5 -81t-88.5 -63q-4 -2 -7.5 -1t-3.5 5t6 7q58 30 93 94q-24 -4 -37 8.5t-10 30.5q3 16 19.5 27t36.5 11q19 0 31 -11t10 -27zM109 302h51q218 382 451 467q235 84 341 -49q14 -13 12.5 -36t-27.5 -30q-14 56 -48 89t-79 40.5t-93 0.5t-99 -27
q-46 -18 -93 -56.5t-81.5 -78.5t-77.5 -105t-66 -105t-62 -110h77q10 0 6 -8q-3 -7 -13 -7h-79l-105 -193q-40 -70 -16 -80q18 -8 59 12q85 41 150 149q4 6 7 3.5t1 -7.5q-64 -105 -151 -157q-51 -29 -89.5 -24t-44.5 44t35 114l77 139h-48q-10 0 -7 8q2 7 12 7z" />
    <glyph glyph-name="Tbar" unicode="&#x166;" horiz-adv-x="711" 
d="M720 282l-17 -31q-73 -134 -163.5 -211.5t-227.5 -125.5q-83 -28 -166 -29q36 -85 123.5 -123t178 -22t141.5 73q9 11 12 7.5t-6 -12.5q-39 -45 -109.5 -66.5t-144 -15t-143.5 48t-106 113.5q-132 12 -194 88q-14 13 -12 34.5t27 30.5q29 -112 171 -135q-66 156 27 334.5
t284 273.5q270 130 469 70l150 -45q88 -26 137.5 -26t75.5 27q12 14 13.5 32.5t-7.5 29.5q-3 3 1 5.5t7 -2.5q22 -35 -7 -71q-37 -45 -145 -45q-71 0 -167 24l-59 13q-24 -26 -72 -113l-61 -111h79q10 0 6 -8q-3 -7 -13 -7h-80zM576 302h75l22 39q79 139 150 194l-75 17
q-96 19 -164.5 9.5t-138.5 -46.5q-104 -54 -187.5 -155t-118.5 -221t2 -238q92 -2 163 27q42 17 76 35t63.5 44.5t49 46.5t47 61.5t42.5 66.5t48 83l12 22h-71q-9 0 -8 7q1 8 13 8z" />
    <glyph glyph-name="tbar" unicode="&#x167;" horiz-adv-x="224" 
d="M109 302h51l41 70h-51q-10 0 -7 8q2 7 12 7h56q194 308 400 382q235 84 341 -49q14 -13 12.5 -36t-27.5 -30q-14 56 -48 89t-79 40.5t-93 0.5t-99 -27q-64 -25 -128 -87t-109 -127.5t-96 -155.5h77q10 0 5 -8q-3 -7 -13 -7h-77q-15 -24 -39 -70h77q10 0 6 -8
q-3 -7 -13 -7h-79l-105 -193q-40 -70 -16 -80q18 -8 59 12q85 41 150 149q4 6 7 3.5t1 -7.5q-64 -105 -151 -157q-51 -29 -89.5 -24t-44.5 44t35 114l77 139h-48q-10 0 -7 8q2 7 12 7z" />
    <glyph glyph-name="Utilde" unicode="&#x168;" horiz-adv-x="899" 
d="M977 655q-6 3 -19 12.5t-19 11.5q-9 4 -33 -20q-13 -11 -27 -7q12 19 30 37q40 46 77 23q6 -3 19 -13t20 -12q6 -4 33 20q10 12 27 7q-27 -33 -31 -37q-43 -45 -77 -22zM418 489q-94 -52 -172.5 -150t-113.5 -215.5t5 -232.5q32 -89 120.5 -128t181 -23t143.5 73
q9 11 12 7.5t-6 -12.5q-39 -46 -110.5 -67t-146.5 -14t-145.5 51t-104.5 118q-51 121 -14.5 242t125.5 220.5t202 155.5q175 87 392 57q55 23 85.5 8t15.5 -54q-37 15 -88 25q-27 -19 -89 -103.5t-121 -202.5q-44 -86 -63 -149t-16.5 -91t18.5 -34q33 -13 127.5 67
t156.5 187l105 184q18 33 39.5 63.5t51 62.5t65 51t70.5 19q50 0 64 -37q2 -5 -2 -6t-6 4q-7 15 -24 22.5t-36 1.5q-25 -6 -55.5 -39.5t-54.5 -76.5l-236 -425q-23 -41 6 -37q23 3 64 28q70 45 126 133q7 10 9 5q1 -3 -1 -7q-38 -66 -93.5 -116t-113.5 -64q-44 -9 -59 12
q-22 29 5 87q-50 -52 -116.5 -97t-105.5 -40q-70 10 -64.5 104t83.5 232q95 171 227 269q-181 23 -342 -68z" />
    <glyph glyph-name="utilde" unicode="&#x169;" 
d="M307 378q-7 3 -19.5 13t-18.5 12q-10 3 -33 -20q-10 -10 -28 -8q19 26 31 38q39 45 77 22q6 -3 19 -12.5t19 -11.5q7 -4 34 20q11 11 27 7q-27 -33 -31 -37q-43 -45 -77 -23zM196 75q-35 -35 -75 -61t-65 -26q-16 0 -26.5 12t-8.5 40.5t24 67.5l107 194q17 0 29 -7
t16 -24t-13 -46l-97 -175q-21 -38 0 -36t63 37q43 34 74 77l60 109q22 41 46 53t65 12l-140 -253q-23 -40 -1 -37q17 3 56 31q65 50 113 132q2 4 5 4t4 -2.5t-1 -5.5q-47 -80 -107 -131.5t-103 -51.5q-22 0 -30 21t5 66z" />
    <glyph glyph-name="Umacron" unicode="&#x16a;" horiz-adv-x="899" 
d="M1029 661h-113q-16 0 -16 12q-1 13 16 17q4 1 9 1h114q15 0 15 -12q0 -14 -18 -17q-3 -1 -7 -1zM418 489q-94 -52 -172.5 -150t-113.5 -215.5t5 -232.5q32 -89 120.5 -128t181 -23t143.5 73q9 11 12 7.5t-6 -12.5q-39 -46 -110.5 -67t-146.5 -14t-145.5 51t-104.5 118
q-51 121 -14.5 242t125.5 220.5t202 155.5q175 87 392 57q55 23 85.5 8t15.5 -54q-37 15 -88 25q-27 -19 -89 -103.5t-121 -202.5q-44 -86 -63 -149t-16.5 -91t18.5 -34q33 -13 127.5 67t156.5 187l105 184q18 33 39.5 63.5t51 62.5t65 51t70.5 19q50 0 64 -37q2 -5 -2 -6
t-6 4q-7 15 -24 22.5t-36 1.5q-25 -6 -55.5 -39.5t-54.5 -76.5l-236 -425q-23 -41 6 -37q23 3 64 28q70 45 126 133q7 10 9 5q1 -3 -1 -7q-38 -66 -93.5 -116t-113.5 -64q-44 -9 -59 12q-22 29 5 87q-50 -52 -116.5 -97t-105.5 -40q-70 10 -64.5 104t83.5 232
q95 171 227 269q-181 23 -342 -68z" />
    <glyph glyph-name="umacron" unicode="&#x16b;" 
d="M348 385h-114q-17 0 -16 12q6 14 25 17h114q17 0 16 -12q-6 -14 -25 -17zM196 75q-35 -35 -75 -61t-65 -26q-16 0 -26.5 12t-8.5 40.5t24 67.5l107 194q17 0 29 -7t16 -24t-13 -46l-97 -175q-21 -38 0 -36t63 37q43 34 74 77l60 109q22 41 46 53t65 12l-140 -253
q-23 -40 -1 -37q17 3 56 31q65 50 113 132q2 4 5 4t4 -2.5t-1 -5.5q-47 -80 -107 -131.5t-103 -51.5q-22 0 -30 21t5 66z" />
    <glyph glyph-name="Ubreve" unicode="&#x16c;" horiz-adv-x="899" 
d="M955 632q-24 3 -39.5 26.5t-4.5 65.5q3 10 10.5 9.5t6.5 -11.5q-6 -47 36 -48q39 0 73 31q11 9 16 19q9 16 14 8q2 -3 1 -8q-17 -47 -47 -71.5t-66 -20.5zM418 489q-94 -52 -172.5 -150t-113.5 -215.5t5 -232.5q32 -89 120.5 -128t181 -23t143.5 73q9 11 12 7.5t-6 -12.5
q-39 -46 -110.5 -67t-146.5 -14t-145.5 51t-104.5 118q-51 121 -14.5 242t125.5 220.5t202 155.5q175 87 392 57q55 23 85.5 8t15.5 -54q-37 15 -88 25q-27 -19 -89 -103.5t-121 -202.5q-44 -86 -63 -149t-16.5 -91t18.5 -34q33 -13 127.5 67t156.5 187l105 184
q18 33 39.5 63.5t51 62.5t65 51t70.5 19q50 0 64 -37q2 -5 -2 -6t-6 4q-7 15 -24 22.5t-36 1.5q-25 -6 -55.5 -39.5t-54.5 -76.5l-236 -425q-23 -41 6 -37q23 3 64 28q70 45 126 133q7 10 9 5q1 -3 -1 -7q-38 -66 -93.5 -116t-113.5 -64q-44 -9 -59 12q-22 29 5 87
q-50 -52 -116.5 -97t-105.5 -40q-70 10 -64.5 104t83.5 232q95 171 227 269q-181 23 -342 -68z" />
    <glyph glyph-name="ubreve" unicode="&#x16d;" 
d="M376 448q8 15 14 9q2 -3 0 -9q-17 -48 -47 -72.5t-65 -19.5q-25 3 -40 26.5t-4 65.5q1 6 6 8.5t8 -1t2 -10.5q-6 -46 35 -47q39 0 75 31q10 9 16 19zM196 75q-35 -35 -75 -61t-65 -26q-16 0 -26.5 12t-8.5 40.5t24 67.5l107 194q17 0 29 -7t16 -24t-13 -46l-97 -175
q-21 -38 0 -36t63 37q43 34 74 77l60 109q22 41 46 53t65 12l-140 -253q-23 -40 -1 -37q17 3 56 31q65 50 113 132q2 4 5 4t4 -2.5t-1 -5.5q-47 -80 -107 -131.5t-103 -51.5q-22 0 -30 21t5 66z" />
    <glyph glyph-name="Uring" unicode="&#x16e;" horiz-adv-x="899" 
d="M418 489q-94 -52 -172.5 -150t-113.5 -215.5t5 -232.5q32 -89 120.5 -128t181 -23t143.5 73q9 11 12 7.5t-6 -12.5q-39 -46 -110.5 -67t-146.5 -14t-145.5 51t-104.5 118q-51 121 -14.5 242t125.5 220.5t202 155.5q175 87 392 57q55 23 85.5 8t15.5 -54q-37 15 -88 25
q-27 -19 -89 -103.5t-121 -202.5q-44 -86 -63 -149t-16.5 -91t18.5 -34q33 -13 127.5 67t156.5 187l105 184q18 33 39.5 63.5t51 62.5t65 51t70.5 19q50 0 64 -37q2 -5 -2 -6t-6 4q-7 15 -24 22.5t-36 1.5q-25 -6 -55.5 -39.5t-54.5 -76.5l-236 -425q-23 -41 6 -37
q23 3 64 28q70 45 126 133q7 10 9 5q1 -3 -1 -7q-38 -66 -93.5 -116t-113.5 -64q-44 -9 -59 12q-22 29 5 87q-50 -52 -116.5 -97t-105.5 -40q-70 10 -64.5 104t83.5 232q95 171 227 269q-181 23 -342 -68zM921 642q-19 12 -14 33t31 39q27 17 58 20.5t51 -9.5t15 -34.5
t-31 -38.5q-27 -18 -58.5 -20.5t-51.5 10.5zM950 660q3 -12 14.5 -14t26.5 8q35 22 29 52q-3 12 -15.5 13.5t-26.5 -7.5q-35 -28 -28 -52z" />
    <glyph glyph-name="uring" unicode="&#x16f;" 
d="M244 365q-20 13 -15 34t32 38q26 18 58 20.5t51 -9.5t14 -34t-31 -39q-27 -17 -58 -20t-51 10zM272 383q10 -24 41 -5q15 9 24 24t5 27q-2 12 -15 14t-26 -8q-15 -10 -23.5 -24.5t-5.5 -27.5zM196 75q-35 -35 -75 -61t-65 -26q-16 0 -26.5 12t-8.5 40.5t24 67.5l107 194
q17 0 29 -7t16 -24t-13 -46l-97 -175q-21 -38 0 -36t63 37q43 34 74 77l60 109q22 41 46 53t65 12l-140 -253q-23 -40 -1 -37q17 3 56 31q65 50 113 132q2 4 5 4t4 -2.5t-1 -5.5q-47 -80 -107 -131.5t-103 -51.5q-22 0 -30 21t5 66z" />
    <glyph glyph-name="Uhungarumlaut" unicode="&#x170;" horiz-adv-x="899" 
d="M1072 668l-105 -36q-7 -2 -8 1q0 2 3 5l126 97q15 -10 20 -22t-3.5 -24.5t-32.5 -20.5zM957 668l-106 -36q-4 -1 -5.5 1.5t1.5 4.5l126 97q15 -10 20 -22t-3.5 -24.5t-32.5 -20.5zM418 489q-94 -52 -172.5 -150t-113.5 -215.5t5 -232.5q32 -89 120.5 -128t181 -23
t143.5 73q9 11 12 7.5t-6 -12.5q-39 -46 -110.5 -67t-146.5 -14t-145.5 51t-104.5 118q-51 121 -14.5 242t125.5 220.5t202 155.5q175 87 392 57q55 23 85.5 8t15.5 -54q-37 15 -88 25q-27 -19 -89 -103.5t-121 -202.5q-44 -86 -63 -149t-16.5 -91t18.5 -34q33 -13 127.5 67
t156.5 187l105 184q18 33 39.5 63.5t51 62.5t65 51t70.5 19q50 0 64 -37q2 -5 -2 -6t-6 4q-7 15 -24 22.5t-36 1.5q-25 -6 -55.5 -39.5t-54.5 -76.5l-236 -425q-23 -41 6 -37q23 3 64 28q70 45 126 133q7 10 9 5q1 -3 -1 -7q-38 -66 -93.5 -116t-113.5 -64q-44 -9 -59 12
q-22 29 5 87q-50 -52 -116.5 -97t-105.5 -40q-70 10 -64.5 104t83.5 232q95 171 227 269q-181 23 -342 -68z" />
    <glyph glyph-name="uhungarumlaut" unicode="&#x171;" 
d="M290 391l-105 -35q-5 -1 -6 1t2 5l125 96q15 -9 20.5 -21t-3 -25t-33.5 -21zM405 391l-106 -35q-6 -2 -6.5 0.5t2.5 5.5l127 96q14 -10 19 -22t-3.5 -24.5t-32.5 -20.5zM196 75q-35 -35 -75 -61t-65 -26q-16 0 -26.5 12t-8.5 40.5t24 67.5l107 194q17 0 29 -7t16 -24
t-13 -46l-97 -175q-21 -38 0 -36t63 37q43 34 74 77l60 109q22 41 46 53t65 12l-140 -253q-23 -40 -1 -37q17 3 56 31q65 50 113 132q2 4 5 4t4 -2.5t-1 -5.5q-47 -80 -107 -131.5t-103 -51.5q-22 0 -30 21t5 66z" />
    <glyph glyph-name="Uogonek" unicode="&#x172;" horiz-adv-x="899" 
d="M786 571q55 23 85.5 8t15.5 -54q-37 15 -88 25q-27 -19 -89 -103.5t-121 -202.5q-44 -86 -63 -149t-16.5 -91t18.5 -34q33 -13 127.5 67t156.5 187l105 184q18 33 39.5 63.5t51 62.5t65 51t70.5 19q50 0 64 -37q2 -5 -2 -6t-6 4q-7 15 -24 22.5t-36 1.5
q-25 -6 -55.5 -39.5t-54.5 -76.5l-236 -425q-23 -41 6 -37q23 3 64 28q70 45 126 133q7 10 9 5q1 -3 -1 -7q-38 -66 -93.5 -116t-113.5 -64l-10 -2q-71 -42 -71 -85q0 -24 27.5 -27t46.5 19q7 8 11 3q3 -3 -2 -8q-18 -25 -52.5 -34.5t-62 1.5t-27.5 38q0 43 106 93
q-17 2 -25 14q-22 29 5 87q-50 -52 -116.5 -97t-105.5 -40q-70 10 -64.5 104t83.5 232q95 171 227 269q-181 23 -342 -68q-94 -52 -172.5 -150t-113.5 -215.5t5 -232.5q32 -89 120.5 -128t181 -23t143.5 73q9 11 12 7.5t-6 -12.5q-39 -46 -110.5 -67t-146.5 -14t-145.5 51
t-104.5 118q-51 121 -14.5 242t125.5 220.5t202 155.5q175 87 392 57z" />
    <glyph glyph-name="uogonek" unicode="&#x173;" 
d="M196 75q-35 -35 -75 -61t-65 -26q-16 0 -26.5 12t-8.5 40.5t24 67.5l107 194q17 0 29 -7t16 -24t-13 -46l-97 -175q-21 -38 0 -36t63 37q43 34 74 77l60 109q22 41 46 53t65 12l-140 -253q-23 -40 -1 -37q17 3 56 31q65 50 113 132q2 4 5 4t4 -2.5t-1 -5.5
q-47 -80 -107 -131.5t-103 -51.5h-4q-73 -43 -73 -85q0 -24 27 -27t47 19q4 4 7 4.5t3.5 -2.5t-1.5 -7q-18 -25 -52.5 -34.5t-62 1.5t-27.5 38q0 11 7 22t15 19t23.5 18t24.5 15t27 13.5t21 10.5q-30 22 -7 82z" />
    <glyph glyph-name="Wcircumflex" unicode="&#x174;" horiz-adv-x="1074" 
d="M928 632l118 103h7h7t5.5 -0.5t5.5 -1.5t4.5 -2.5t4.5 -4t3 -6.5t4 -9l24 -79q-27 0 -36 16l-24 40l-70 -40q-26 -16 -53 -16zM786 571q55 23 85.5 8t15.5 -54q-37 15 -88 25q-27 -19 -89 -103.5t-121 -202.5q-44 -87 -63.5 -149.5t-17 -91t19.5 -33.5q4 -1 9.5 0.5
t12 6.5t13 10.5t14.5 14.5t14 16t14 17.5t13 16.5t12.5 16t9.5 13q50 69 149.5 213.5t138.5 196.5q57 78 89 30q10 -15 12.5 -34.5t-4 -46.5t-12.5 -46t-23 -54.5t-25 -50.5t-29 -55q-74 -134 -97.5 -188.5t-3.5 -56.5q33 -4 94.5 62.5t112.5 141t84 133.5q80 140 111 255
q7 26 29 26q18 0 20 -18q1 -7 -1 -14q-21 -66 -134 -250q-28 -46 -64.5 -99t-83.5 -113.5t-93 -100t-76 -39.5q-25 0 -37.5 14.5t-10.5 39.5t8.5 53t21 62t26.5 58t25 48q39 71 51.5 94.5t34 66.5t29 63.5t8.5 34.5q1 25 -21 7q-12 -9 -26 -29q-26 -35 -127.5 -184.5
t-159.5 -224.5q-56 -74 -85 -101.5t-57 -22.5q-70 12 -64.5 105t83.5 231q95 171 227 269q-181 23 -342 -68q-94 -52 -172.5 -150t-113.5 -215.5t5 -232.5q32 -89 120.5 -128t181 -23t143.5 73q9 11 12 7.5t-6 -12.5q-39 -46 -110.5 -67t-146.5 -14t-145.5 51t-104.5 118
q-51 121 -14.5 242t125.5 220.5t202 155.5q175 87 392 57z" />
    <glyph glyph-name="wcircumflex" unicode="&#x175;" horiz-adv-x="463" 
d="M197 355l118 103h8h7.5t6 -0.5t6.5 -2t4.5 -4t4.5 -6.5t3 -10l24 -80q-26 0 -35 16l-25 41l-69 -41q-26 -16 -53 -16zM390 54q-70 -58 -137 -66q-21 -2 -34 11t-12.5 30.5t5.5 32.5q-42 -44 -91.5 -64t-77.5 -1q-45 31 9 125l100 180q17 0 29 -7t16 -24t-13 -46l-97 -175
q-3 -4 -5.5 -10.5t-4.5 -14.5t0.5 -13.5t10.5 -5.5q25 0 67 46.5t70 95.5l82 148q17 0 28.5 -6.5t16.5 -23.5t-12 -47l-95 -171q-2 -4 -5 -11t-5.5 -16t0 -15t10.5 -6q36 0 84 50.5t79 116.5q27 58 31.5 114t-16.5 90q-4 7 -1 7q5 1 10 -4q70 -76 56 -162t-98 -158z" />
    <glyph glyph-name="Ycircumflex" unicode="&#x176;" horiz-adv-x="879" 
d="M152 -134q-47 31 -71 79.5t-22.5 102t17.5 112.5q33 107 117 202.5t200 151.5q75 37 180 53t212 4q55 23 85.5 8t15.5 -54q-37 15 -88 25q-27 -19 -89 -103.5t-121 -202.5q-44 -86 -63 -149t-16.5 -91t18.5 -34q33 -13 129 67t155 187l88 158q120 216 254 222
q78 5 135 -44q56 -48 61 -112q0 -8 -4 -4q-2 1 -3 4q-12 65 -65.5 107t-115.5 28q-23 -5 -47 -22t-40.5 -34.5t-38 -49.5t-29.5 -46.5t-26 -45.5l-185 -333q-90 -161 -213.5 -291t-258.5 -177q-72 -25 -139 -32t-131 12.5t-103 68.5q-15 14 -13 35.5t28 30.5q14 -56 53 -89
t90 -40.5t104 -0.5t104 27q80 31 163.5 116.5t144.5 179t111 197.5q-50 -52 -116.5 -97t-105.5 -40q-70 10 -64.5 104t83.5 232q95 171 227 269q-133 16 -261.5 -31.5t-220.5 -146.5q-95 -101 -135 -222q-64 -194 33 -274q37 -31 90.5 -31.5t104.5 28.5q9 6 9 0q1 -4 -4 -7
q-50 -31 -110.5 -34.5t-112.5 27.5zM863 632l119 103h5q11 0 16 -0.5t10.5 -6t8.5 -17.5l23 -79q-25 0 -35 16l-24 40l-70 -40q-26 -16 -53 -16z" />
    <glyph glyph-name="ycircumflex" unicode="&#x177;" horiz-adv-x="308" 
d="M194 355l118 103h8h7.5t6 -0.5t6.5 -2t4.5 -4t4.5 -6.5t3 -10l24 -80q-26 0 -35 16l-24 41l-70 -41q-26 -16 -53 -16zM167 26l28 49q-35 -35 -74.5 -61t-64.5 -26q-16 0 -26.5 12t-8.5 40.5t24 67.5l107 194q17 0 29 -7t16 -24t-13 -46l-97 -175q-21 -38 0 -36t63 37
q43 34 74 77l60 109q22 41 46 53t65 12l-169 -307q-215 -387 -450 -468q-235 -84 -341 49q-15 14 -13 35.5t28 30.5q14 -56 48 -89t79 -40.5t93 -0.5t99 27q28 11 55 27.5t53.5 42t47.5 46.5t47.5 58t42.5 58.5t43 66t37.5 62.5t38 66.5t33.5 59.5z" />
    <glyph glyph-name="Ydieresis" unicode="&#x178;" horiz-adv-x="898" 
d="M152 -134q-47 31 -71 79.5t-22.5 102t17.5 112.5q33 107 117 202.5t200 151.5q75 37 180 53t212 4q55 23 85.5 8t15.5 -54q-37 15 -88 25q-27 -19 -89 -103.5t-121 -202.5q-44 -86 -63 -149t-16.5 -91t18.5 -34q33 -13 129 67t155 187l88 158q120 216 254 222
q78 5 135 -44q56 -48 61 -112q0 -8 -4 -4q-2 1 -3 4q-12 65 -65.5 107t-115.5 28q-23 -5 -47 -22t-40.5 -34.5t-38 -49.5t-29.5 -46.5t-26 -45.5l-185 -333q-90 -161 -213.5 -291t-258.5 -177q-72 -25 -139 -32t-131 12.5t-103 68.5q-15 14 -13 35.5t28 30.5q14 -56 53 -89
t90 -40.5t104 -0.5t104 27q80 31 163.5 116.5t144.5 179t111 197.5q-50 -52 -116.5 -97t-105.5 -40q-70 10 -64.5 104t83.5 232q95 171 227 269q-133 16 -261.5 -31.5t-220.5 -146.5q-95 -101 -135 -222q-64 -194 33 -274q37 -31 90.5 -31.5t104.5 28.5q9 6 9 0q1 -4 -4 -7
q-50 -31 -110.5 -34.5t-112.5 27.5zM905 682q2 14 14.5 23t27.5 9t24 -9t6 -23q-2 -14 -13.5 -23t-26.5 -9t-24.5 9t-7.5 23zM1007 682q2 14 14 23t27 9t24 -9t7 -23q-3 -14 -15 -23t-27 -9t-23.5 9t-6.5 23z" />
    <glyph glyph-name="Zacute" unicode="&#x179;" horiz-adv-x="696" 
d="M419 302h60q129 140 234 179q-9 2 -44 11l-168 52q-95 26 -135 23q-41 -2 -63.5 -27t-21.5 -56.5t14 -63.5q31 -63 85 -74q-12 -20 -26 -32.5t-32.5 -15t-36.5 16.5q-51 56 -43 127q9 69 61 115q88 82 255 28l172 -59q116 -42 154 0q12 14 13.5 32.5t-7.5 29.5q-3 4 2 6
q3 1 5 -3q10 -14 9 -34t-15 -37q-42 -51 -121 -46q-45 -9 -123 -92l-77 -80h55q10 0 6 -8q-3 -7 -13 -7h-62l-137 -143q-47 -49 -109.5 -87.5t-108.5 -51.5q105 -17 209 -14t173 22q126 33 205 161q7 9 9 3q1 -2 -1 -6q-29 -50 -68 -95q-67 -76 -119 -94.5t-147 -18.5
q-155 0 -287 33q-39 -9 -73 -8q-50 4 -76 25t-26 69q101 -49 156 -65q28 6 73 37t91 79l145 154h-51q-10 0 -7 8q2 7 12 7zM681 668l-105 -36q-5 -1 -6.5 1.5t1.5 4.5l126 97q14 -10 20 -22t-2.5 -24.5t-33.5 -20.5z" />
    <glyph glyph-name="zacute" unicode="&#x17a;" horiz-adv-x="284" 
d="M350 391l-105 -35q-5 -1 -6.5 0.5t1.5 5.5l126 96q14 -10 20 -22t-2.5 -24.5t-33.5 -20.5zM23 -2q29 46 88.5 91.5t112 81.5t66.5 60q-11 -7 -28.5 -7.5t-47.5 3.5t-38 5q-17 1 -26 -0.5t-12.5 -5t-10.5 -12.5l-29 -47q-5 -9 -9 -3q-2 3 1 7q2 3 9.5 19.5t14.5 31t8 18.5
q19 44 25 49q7 7 34 7q9 0 51.5 -6.5t77 -6.5t46.5 13q6 8 9 6t0 -10q-28 -47 -86.5 -93t-112 -82.5t-67.5 -58.5q6 4 13 6t12 2.5t15.5 -1.5t14.5 -3t18 -5t18 -5q27 -8 53 -6.5t47 22.5q51 46 86 107q2 4 5 4t4 -2.5t-1 -5.5q-62 -104 -138 -161q-25 -17 -42 -20t-47 4
q-6 1 -20.5 3.5t-22 4t-19.5 3t-20 1.5t-16.5 -1t-14.5 -3.5t-10 -7.5t-7.5 -6t-4.5 2t1 8z" />
    <glyph glyph-name="Zdotaccent" unicode="&#x17b;" horiz-adv-x="696" 
d="M419 302h60q129 140 234 179q-9 2 -44 11l-168 52q-95 26 -135 23q-41 -2 -63.5 -27t-21.5 -56.5t14 -63.5q31 -63 85 -74q-12 -20 -26 -32.5t-32.5 -15t-36.5 16.5q-51 56 -43 127q9 69 61 115q88 82 255 28l172 -59q116 -42 154 0q12 14 13.5 32.5t-7.5 29.5q-3 4 2 6
q3 1 5 -3q10 -14 9 -34t-15 -37q-42 -51 -121 -46q-45 -9 -123 -92l-77 -80h55q10 0 6 -8q-3 -7 -13 -7h-62l-137 -143q-47 -49 -109.5 -87.5t-108.5 -51.5q105 -17 209 -14t173 22q126 33 205 161q7 9 9 3q1 -2 -1 -6q-29 -50 -68 -95q-67 -76 -119 -94.5t-147 -18.5
q-155 0 -287 33q-39 -9 -73 -8q-50 4 -76 25t-26 69q101 -49 156 -65q28 6 73 37t91 79l145 154h-51q-10 0 -7 8q2 7 12 7zM598 677q3 16 20 27.5t36 11.5q20 0 32.5 -11.5t8.5 -27.5q-3 -17 -19.5 -28t-35.5 -11q-21 0 -33 11t-9 28z" />
    <glyph glyph-name="zdotaccent" unicode="&#x17c;" horiz-adv-x="284" 
d="M249 401q3 16 19.5 27.5t36.5 11.5q19 0 31 -11.5t10 -27.5q-4 -17 -20 -28t-36 -11t-32 11t-9 28zM23 -2q29 46 88.5 91.5t112 81.5t66.5 60q-11 -7 -28.5 -7.5t-47.5 3.5t-38 5q-17 1 -26 -0.5t-12.5 -5t-10.5 -12.5l-29 -47q-5 -9 -9 -3q-2 3 1 7q2 3 9.5 19.5
t14.5 31t8 18.5q19 44 25 49q7 7 34 7q9 0 51.5 -6.5t77 -6.5t46.5 13q6 8 9 6t0 -10q-28 -47 -86.5 -93t-112 -82.5t-67.5 -58.5q6 4 13 6t12 2.5t15.5 -1.5t14.5 -3t18 -5t18 -5q27 -8 53 -6.5t47 22.5q51 46 86 107q2 4 5 4t4 -2.5t-1 -5.5q-62 -104 -138 -161
q-25 -17 -42 -20t-47 4q-6 1 -20.5 3.5t-22 4t-19.5 3t-20 1.5t-16.5 -1t-14.5 -3.5t-10 -7.5t-7.5 -6t-4.5 2t1 8z" />
    <glyph glyph-name="Zcaron" unicode="&#x17d;" horiz-adv-x="696" 
d="M419 302h60q129 140 234 179q-9 2 -44 11l-168 52q-95 26 -135 23q-41 -2 -63.5 -27t-21.5 -56.5t14 -63.5q31 -63 85 -74q-12 -20 -26 -32.5t-32.5 -15t-36.5 16.5q-51 56 -43 127q9 69 61 115q88 82 255 28l172 -59q116 -42 154 0q12 14 13.5 32.5t-7.5 29.5q-3 4 2 6
q3 1 5 -3q10 -14 9 -34t-15 -37q-42 -51 -121 -46q-45 -9 -123 -92l-77 -80h55q10 0 6 -8q-3 -7 -13 -7h-62l-137 -143q-47 -49 -109.5 -87.5t-108.5 -51.5q105 -17 209 -14t173 22q126 33 205 161q7 9 9 3q1 -2 -1 -6q-29 -50 -68 -95q-67 -76 -119 -94.5t-147 -18.5
q-155 0 -287 33q-39 -9 -73 -8q-50 4 -76 25t-26 69q101 -49 156 -65q28 6 73 37t91 79l145 154h-51q-10 0 -7 8q2 7 12 7zM718 733l-78 -75q-21 -19 -33.5 -23.5t-40.5 -4.5l-19 104q27 0 37 -20l18 -39l65 43q8 6 15.5 9.5t13 5t9 1.5t8 -0.5t5.5 -0.5z" />
    <glyph glyph-name="zcaron" unicode="&#x17e;" horiz-adv-x="284" 
d="M408 458l-79 -75q-19 -19 -32.5 -23.5t-40.5 -4.5l-19 103h4h4t4 -0.5t5 -1t5 -2t5 -3.5t4.5 -5.5t4.5 -7.5l19 -37l65 42q10 7 19.5 11t13.5 4.5t11 -0.5h7zM23 -2q29 46 88.5 91.5t112 81.5t66.5 60q-11 -7 -28.5 -7.5t-47.5 3.5t-38 5q-17 1 -26 -0.5t-12.5 -5
t-10.5 -12.5l-29 -47q-5 -9 -9 -3q-2 3 1 7q2 3 9.5 19.5t14.5 31t8 18.5q19 44 25 49q7 7 34 7q9 0 51.5 -6.5t77 -6.5t46.5 13q6 8 9 6t0 -10q-28 -47 -86.5 -93t-112 -82.5t-67.5 -58.5q6 4 13 6t12 2.5t15.5 -1.5t14.5 -3t18 -5t18 -5q27 -8 53 -6.5t47 22.5
q51 46 86 107q2 4 5 4t4 -2.5t-1 -5.5q-62 -104 -138 -161q-25 -17 -42 -20t-47 4q-6 1 -20.5 3.5t-22 4t-19.5 3t-20 1.5t-16.5 -1t-14.5 -3.5t-10 -7.5t-7.5 -6t-4.5 2t1 8z" />
    <glyph glyph-name="longs" unicode="&#x17f;" horiz-adv-x="215" 
d="M8 26l144 261h-48q-10 0 -7 8q2 7 12 7h51q218 382 451 467q235 84 341 -49q14 -13 12.5 -36t-27.5 -30q-14 56 -48 89t-79 40.5t-93 0.5t-99 -27q-46 -18 -93 -56.5t-82 -78.5t-77.5 -104.5t-66.5 -105.5t-62 -110h75q9 0 9 -7q-1 -8 -13 -8h-79l-61 -109l-101 -183
q-215 -387 -450 -468q-235 -84 -341 49q-15 14 -13 35.5t28 30.5q14 -56 48 -89t79 -40.5t93 -0.5t99 27q57 22 109.5 67t107.5 124t80.5 121t80.5 140q14 24 20 35z" />
    <glyph glyph-name="florin" unicode="&#x192;" horiz-adv-x="215" 
d="M8 26l144 261h-48q-10 0 -7 8q2 7 12 7h51q218 382 451 467q235 84 341 -49q14 -13 12.5 -36t-27.5 -30q-14 56 -48 89t-79 40.5t-93 0.5t-99 -27q-46 -18 -93 -56.5t-82 -78.5t-77.5 -104.5t-66.5 -105.5t-62 -110h75q9 0 9 -7q-1 -8 -13 -8h-79l-61 -109l-101 -183
q-215 -387 -450 -468q-235 -84 -341 49q-15 14 -13 35.5t28 30.5q14 -56 48 -89t79 -40.5t93 -0.5t99 27q57 22 109.5 67t107.5 124t80.5 121t80.5 140q14 24 20 35z" />
    <glyph glyph-name="Ohorn" unicode="&#x1a0;" horiz-adv-x="793" 
d="M675 571q54 0 98 -26q1 0 6 -0.5t8.5 0t10 1.5t11.5 3.5t11.5 7.5t12.5 12q-20 -1 -27 10t-3 27q4 13 15.5 20.5t26.5 5.5q34 -4 27 -36q-14 -60 -84 -62q63 -50 64 -146q2 -103 -81.5 -228t-207.5 -203q-115 -70 -231 -70q-94 0 -163.5 51.5t-77.5 142.5
q-10 126 74.5 260.5t212.5 205.5q42 23 89.5 37t99.5 12t88 -26q3 0 10 0.5t10 0.5zM724 431q0 -8 -3 -11t-7 0.5t-4 10.5q-7 85 -59 124q-106 -15 -190.5 -100t-127.5 -192q-6 -16 -19 -19t-20.5 7.5t-0.5 26.5q42 95 137.5 182.5t199.5 105.5q-45 16 -101 -0.5t-105 -47.5
q-120 -81 -194 -199t-76 -239q-2 -85 47 -131.5t132 -46.5q82 0 164.5 49.5t142 123t99.5 157t46 153.5q6 83 -24.5 127.5t-89.5 43.5q47 -44 53 -125z" />
    <glyph glyph-name="ohorn" unicode="&#x1a1;" horiz-adv-x="325" 
d="M318 148q-49 -86 -114 -129q3 -3 7 -4q19 -7 46.5 2.5t47.5 25.5q71 55 113 132q2 4 4.5 4t3.5 -2.5t-1 -5.5q-51 -87 -111 -136q-67 -53 -120 -47q-19 2 -31 10q-33 -11 -65 -11q-43 0 -60.5 22t-11 57t31.5 82q41 71 98 115.5t120 44.5q50 0 67 -30q31 0 49 25
q-20 -1 -27 10t-3 27q4 13 15.5 20.5t26.5 5.5q34 -4 27 -36q-14 -60 -84 -62q14 -44 -29 -120zM105 0q16 0 40 18q-10 24 10.5 46t57.5 24q54 73 75 139t-20 66q-24 0 -63.5 -42t-73.5 -103q-55 -101 -42 -137q5 -11 16 -11z" />
    <glyph glyph-name="Uhorn" unicode="&#x1af;" horiz-adv-x="899" 
d="M418 489q-94 -52 -172.5 -150t-113.5 -215.5t5 -232.5q32 -89 120.5 -128t181 -23t143.5 73q9 11 12 7.5t-6 -12.5q-39 -46 -110.5 -67t-146.5 -14t-145.5 51t-104.5 118q-51 121 -14.5 242t125.5 220.5t202 155.5q175 87 392 57q55 23 85.5 8t15.5 -54q-37 15 -88 25
q-27 -19 -89 -103.5t-121 -202.5q-44 -86 -63 -149t-16.5 -91t18.5 -34q33 -13 127.5 67t156.5 187l105 184q18 33 39.5 63.5t51 62.5t65 51t70.5 19q9 0 11 -1q25 6 38 24q-20 -1 -27 10t-3 27q4 13 15.5 20.5t26.5 5.5q34 -4 27 -36q-10 -45 -55 -57q22 -10 31 -30
q2 -5 -2 -6t-6 4q-7 15 -24 22.5t-36 1.5q-25 -6 -55.5 -39.5t-54.5 -76.5l-236 -425q-23 -41 6 -37q23 3 64 28q70 45 126 133q7 10 9 5q1 -3 -1 -7q-38 -66 -93.5 -116t-113.5 -64q-44 -9 -59 12q-22 29 5 87q-50 -52 -116.5 -97t-105.5 -40q-70 10 -64.5 104t83.5 232
q95 171 227 269q-181 23 -342 -68z" />
    <glyph glyph-name="uhorn" unicode="&#x1b0;" 
d="M477 330q-7 -36 -37 -50t-64 -11l-121 -220q-23 -40 -1 -37q17 3 56 31q65 50 113 132q2 4 5 4t4 -2.5t-1 -5.5q-47 -80 -107 -131.5t-103 -51.5q-22 0 -30 21t5 66q-35 -35 -75 -61t-65 -26q-16 0 -26.5 12t-8.5 40.5t24 67.5l107 194q17 0 29 -7t16 -24t-13 -46
l-97 -175q-21 -38 0 -36t63 37q43 34 74 77l60 109q22 41 46 53t65 12l-14 -24q35 -3 57 25q-20 -1 -27 10t-3 27q4 13 15.5 20.5t26.5 5.5q34 -4 27 -36z" />
    <glyph glyph-name="AEacute" unicode="&#x1fc;" horiz-adv-x="1371" 
d="M902 200h-204q-79 -104 -172 -173t-215 -113q-83 -28 -166 -29q26 -65 85.5 -103t125 -44t130 13.5t102.5 61.5q9 11 12 7.5t-6 -12.5q-39 -45 -109.5 -66.5t-144 -15t-143.5 48t-106 113.5q-132 12 -194 88q-14 13 -12 34.5t27 30.5q29 -112 171 -135q-34 78 -24 166
t51.5 169.5t116 154t167.5 118.5q253 124 532 46q64 41 109 27q33 -11 43.5 -60.5t1.5 -105.5t-30 -96l-13 -25q85 40 159 44q-60 24 -74 64t10 77.5t70 61.5q114 59 220 39q38 -7 62.5 -28.5t22.5 -54.5q0 -25 -22 -49t-51 -24q-21 0 -33 10.5t-9 27.5q2 16 19 27t37 11
q10 0 18 -3q13 28 1 44.5t-40 23.5q-43 10 -96.5 -4.5t-94.5 -49.5q-51 -43 -53.5 -97t52.5 -71q132 0 171 5q-7 -16 -16.5 -27t-23.5 -15t-24 -6t-30 2l-27.5 5.5t-29.5 8t-25 7.5q-119 -14 -208 -106.5t-89 -178.5q0 -70 44.5 -105.5t122 -26t169.5 64.5q102 63 195 196
q5 8 9 2q2 -2 -1 -6q-87 -131 -192 -201q-58 -39 -121 -60.5t-114 -19.5q-76 4 -124.5 41t-59.5 102q-13 70 41 169zM709 215h201l91 157q35 59 47 107.5t4.5 72.5t-24.5 26q-48 3 -174 -168zM654 255l115 147q89 107 139 145q-250 77 -472 -44q-104 -58 -184.5 -154.5
t-115.5 -213.5t4 -234q92 -2 163 27q29 11 57 27t48.5 29t47.5 38.5t40 38t41.5 46.5t37 44.5t40.5 52.5t39 51zM1216 668l-105 -36q-5 -1 -6.5 1.5t1.5 4.5l126 97q15 -10 20 -22t-3.5 -24.5t-32.5 -20.5z" />
    <glyph glyph-name="aeacute" unicode="&#x1fd;" horiz-adv-x="494" 
d="M429 391l-105 -35q-4 -1 -5.5 1t1.5 5l126 96q14 -10 19.5 -22t-3 -24.5t-33.5 -20.5zM300 -5q-31 9 -49.5 35.5t-15.5 65.5q-92 -108 -153 -108q-34 0 -46 25t-5 61t27 74q21 38 51 74.5t73 64t80 21.5q53 -12 68 -53q66 53 141 53q44 0 62 -23.5t-6 -67.5
q-24 -37 -85 -62.5t-131 -36.5q-33 -75 7 -100q36 -18 78 -7t83 41q61 50 108 123q4 6 7 3.5t1 -7.5q-55 -87 -110 -129q-93 -73 -185 -47zM208 97q4 5 43 62t69 87q-10 41 -54 39q-20 0 -59 -39t-71 -97q-63 -114 -37 -136q5 -4 13 -4q30 0 96 88zM462 296
q-20 0 -53.5 -33.5t-66.5 -85.5q-9 -13 -27 -47q98 20 144 99q11 19 15.5 34.5t1 24t-13.5 8.5z" />
    <glyph glyph-name="Oslashacute" unicode="&#x1fe;" horiz-adv-x="793" 
d="M732 666l-106 -34q-5 -2 -6 0.5t2 4.5l126 97q14 -10 19.5 -22t-3 -25t-32.5 -21zM136 -201l84 110q-119 49 -129 172q-10 126 74.5 260.5t212.5 205.5q42 23 89.5 37t99.5 12t88 -26q3 0 10 0.5t10 0.5q30 0 54 -7l86 111h23l-91 -117q104 -41 105 -170
q2 -103 -81.5 -228t-207.5 -203q-115 -70 -231 -70q-50 0 -93 15l-79 -103h-24zM671 556q-74 -4 -139 -45q-66 -39 -117.5 -106.5t-81.5 -141.5q-6 -16 -19 -19t-20.5 7.5t-0.5 26.5q42 95 137.5 182.5t199.5 105.5q-45 16 -101 -0.5t-105 -47.5q-120 -81 -194 -199
t-76 -239q-4 -109 79 -155l484 624q-18 7 -46 7zM785 385q8 117 -52 155l-482 -623q36 -15 82 -15q82 0 164.5 49.5t142 123t99.5 157t46 153.5z" />
    <glyph glyph-name="oslashacute" unicode="&#x1ff;" horiz-adv-x="312" 
d="M98 -13q-9 0 -23 2l-83 -107h-19l86 111q-24 9 -31 32t1 54t29 69q41 71 98 115.5t120 44.5q9 0 25 -2l84 108h20l-88 -113q34 -18 33 -57t-32 -96q-59 -101 -135 -140q25 -4 62 7t60 30q64 47 113 130q2 4 4.5 4t3.5 -2.5t-1 -5.5q-54 -90 -113 -136
q-26 -20 -72.5 -34.5t-75.5 -0.5q-37 -13 -66 -13zM268 293q-24 0 -68 -42t-78 -105q-53 -93 -43 -127l208 268q-8 6 -19 6zM294 229q7 26 2 44l-209 -268q7 -5 18 -5q19 0 42 18l-2 10q-2 16 6.5 31.5t23.5 22.5q21 8 38 -4q64 78 81 151zM296 391l-105 -35q-5 -1 -6 1t2 5
l126 96q14 -10 19.5 -22t-3 -24.5t-33.5 -20.5z" />
    <glyph glyph-name="Scommaaccent" unicode="&#x218;" horiz-adv-x="737" 
d="M424 -134q76 27 131 81.5t74 115.5q29 92 -14 251q-15 54 -18.5 97.5t3 72t20 50.5t32 32t38.5 17t41 5.5t38 -2.5q39 -7 65.5 -28t26.5 -55q0 -26 -22 -49.5t-53 -23.5q-21 0 -34 10.5t-11 27.5q2 16 19.5 27t38.5 11q11 0 19 -3q15 26 1 44.5t-44 23.5q-35 5 -66.5 -5
t-43.5 -30q-16 -26 -17 -55t6 -54t28 -89q29 -88 32 -148t-23 -122q-32 -67 -98.5 -129.5t-155.5 -88.5q-74 -19 -143 -17t-129 35t-92 91q-27 53 -27.5 113.5t31.5 124.5t90 111q51 41 117 61t132 0.5t96 -87.5q30 -66 -6 -149.5t-108 -122.5q-20 -14 -41.5 -7t-25.5 36
q101 18 151 90.5t16 151.5q-24 56 -77.5 67.5t-110.5 -13.5t-102 -70q-60 -58 -85 -139.5t4 -159.5q33 -81 120 -108t177 8zM327 -248q-6 -37 -49.5 -79t-89.5 -64q-8 -4 -10 2q-2 5 6 9q56 28 94 95q-23 -5 -37 7.5t-11 29.5t20 28.5t36 11.5t31 -11.5t10 -28.5z" />
    <glyph glyph-name="scommaaccent" unicode="&#x219;" horiz-adv-x="266" 
d="M165 116l-25 63q-20 49 6.5 91t95.5 38q33 -2 52.5 -18t22.5 -39q3 -24 -14 -41.5t-41 -17.5q-16 0 -26 9.5t-8 23.5q3 15 16 24.5t29 9.5q4 0 14 -2q3 31 -30 39q-34 9 -56 -13q-15 -14 -13 -36q2 -21 23.5 -68t26.5 -65q22 -70 -47 -109q-49 -27 -103 -13
q-46 12 -65 55.5t4 89.5q9 19 30.5 32t46.5 9q-33 -55 -76 -104q6 -36 34.5 -55t62.5 -11q32 7 44.5 34.5t-4.5 73.5zM88 -112q-6 -37 -48.5 -79t-89.5 -64q-4 -2 -7.5 -0.5t-3 5t5.5 6.5q58 30 94 95q-23 -5 -36.5 7.5t-11.5 29.5q3 17 19.5 28.5t37.5 11.5
q19 0 30.5 -11.5t9.5 -28.5z" />
    <glyph glyph-name="uni021A" unicode="&#x21a;" horiz-adv-x="711" 
d="M720 282l-17 -31q-73 -134 -163.5 -211.5t-227.5 -125.5q-83 -28 -166 -29q36 -85 123.5 -123t178 -22t141.5 73q9 11 12 7.5t-6 -12.5q-39 -45 -109.5 -66.5t-144 -15t-143.5 48t-106 113.5q-132 12 -194 88q-14 13 -12 34.5t27 30.5q29 -112 171 -135q-66 156 27 334.5
t284 273.5q270 130 469 70l150 -45q88 -26 137.5 -26t75.5 27q12 14 13.5 32.5t-7.5 29.5q-3 3 1 5.5t7 -2.5q22 -35 -7 -71q-37 -45 -145 -45q-71 0 -167 24l-59 13q-24 -26 -72 -113zM445 515q-104 -54 -187.5 -155t-118.5 -221t2 -238q92 -2 163 27q42 17 76 35
t63.5 44.5t49 46.5t47 61.5t42.5 66.5t48 83l43 76q79 139 150 194l-75 17q-96 19 -164.5 9.5t-138.5 -46.5zM68 -248q-6 -37 -49.5 -79t-89.5 -64q-8 -4 -10 2q-2 5 6 9q56 28 94 95q-23 -5 -37 7.5t-11 29.5t20 28.5t36 11.5t31 -11.5t10 -28.5z" />
    <glyph glyph-name="uni021B" unicode="&#x21b;" horiz-adv-x="224" 
d="M38 -112q-6 -37 -48.5 -79t-89.5 -64q-7 -3 -10.5 1.5t5.5 9.5q56 28 94 95q-25 -5 -38 7.5t-10 29.5t20 28.5t36 11.5t31 -11.5t10 -28.5zM109 302h51q218 382 451 467q235 84 341 -49q14 -13 12.5 -36t-27.5 -30q-14 56 -48 89t-79 40.5t-93 0.5t-99 -27
q-46 -18 -93 -56.5t-81.5 -78.5t-77.5 -105t-66 -105t-62 -110h77q10 0 6 -8q-3 -7 -13 -7h-79l-105 -193q-40 -70 -16 -80q18 -8 59 12q85 41 150 149q4 6 7 3.5t1 -7.5q-64 -105 -151 -157q-51 -29 -89.5 -24t-44.5 44t35 114l77 139h-48q-10 0 -7 8q2 7 12 7z" />
    <glyph glyph-name="circumflex" unicode="&#x2c6;" horiz-adv-x="193" 
d="M141 355l117 103h7.5h6.5t6 -0.5t5.5 -1t4.5 -2t4.5 -4.5t3.5 -6.5t3 -8.5l24 -80q-26 0 -35 16l-25 41l-69 -41q-26 -16 -53 -16z" />
    <glyph glyph-name="caron" unicode="&#x2c7;" horiz-adv-x="193" 
d="M372 458l-78 -75q-19 -19 -32.5 -23.5t-42.5 -4.5l-17 103q25 0 35 -20l18 -37l66 42q10 7 19.5 11t13.5 4.5t11 -0.5h7z" />
    <glyph glyph-name="breve" unicode="&#x2d8;" horiz-adv-x="193" 
d="M335 448q8 15 13 9q3 -3 1 -9q-17 -48 -47 -72.5t-65 -19.5q-25 3 -40 26.5t-4 65.5q1 6 6 8.5t8 -1t2 -10.5q-6 -46 35 -47q40 -1 75 30q10 10 16 20z" />
    <glyph glyph-name="dotaccent" unicode="&#x2d9;" horiz-adv-x="212" 
d="M222 401q3 16 19.5 27.5t36.5 11.5t32 -11.5t9 -27.5q-3 -17 -19.5 -28t-35.5 -11q-21 0 -33 11t-9 28z" />
    <glyph glyph-name="ring" unicode="&#x2da;" horiz-adv-x="212" 
d="M199 365q-19 13 -14 34t31 38q27 17 58 20.5t51 -9.5q19 -12 14 -34t-31 -39q-27 -17 -58 -20t-51 10zM228 383q7 -26 40 -5q15 9 24 24t6 27t-16 14t-27 -8q-35 -24 -27 -52z" />
    <glyph glyph-name="ogonek" unicode="&#x2db;" horiz-adv-x="193" 
d="M68 -105q7 8 11 3q3 -3 -2 -8q-18 -25 -52.5 -34.5t-62 1.5t-27.5 38q0 18 18.5 37t38 30t47 24t29.5 14h20q-30 -14 -62 -41.5t-32 -55.5q0 -24 27 -27t47 19z" />
    <glyph glyph-name="tilde" unicode="&#x2dc;" horiz-adv-x="193" 
d="M252 378q-7 3 -19.5 13t-18.5 12q-7 3 -33 -20q-8 -10 -27 -8q19 26 31 38q39 45 77 22q5 -3 12.5 -9t14 -10t11.5 -5q9 -4 33 20q11 11 27 7q-16 -22 -31 -37q-40 -46 -77 -23z" />
    <glyph glyph-name="hungarumlaut" unicode="&#x2dd;" horiz-adv-x="193" 
d="M237 391l-105 -35q-5 -1 -6.5 0.5t1.5 5.5l126 96q15 -10 20 -22t-3.5 -24.5t-32.5 -20.5zM352 391l-106 -35q-6 -2 -7 0.5t3 5.5l126 96q15 -10 20 -22t-3.5 -24.5t-32.5 -20.5z" />
    <glyph glyph-name="uni0394" unicode="&#x394;" horiz-adv-x="473" 
d="M463 572h30l-70 -572h-491zM-19 21h376l57 465z" />
    <glyph glyph-name="uni03A9" unicode="&#x3a9;" horiz-adv-x="473" 
d="M144 66l21 38q-27 15 -45.5 48.5t-18 88.5t29.5 114q28 56 74 105t119.5 83t153.5 30q99 -6 132.5 -82.5t-15.5 -173.5q-39 -76 -119.5 -140.5t-181.5 -84.5l-16 -26h120q18 0 38 30q6 9 12 8q4 -2 -3 -12l-30 -55q-14 -25 -23.5 -31t-30.5 -6h-144l58 104
q63 15 136.5 78.5t113.5 146.5q45 92 31.5 155t-74.5 71q-65 8 -155.5 -61.5t-135.5 -165.5q-32 -72 -30 -134.5t33 -89.5l-57 -104h-144q-22 0 -24.5 5.5t10.5 31.5l31 55q9 17 14 11q3 -2 1 -7q-15 -30 3 -30h116z" />
    <glyph glyph-name="uni03BC" unicode="&#x3bc;" 
d="M221 -12q-22 0 -30.5 22.5t6.5 70.5q-87 -93 -141 -93q-33 0 -37 37l-10 -23q-63 -158 -74 -267q-3 -27 -23 -30q-19 -4 -23 15q-2 6 -1 14q19 123 157 374l107 194q17 0 29 -7t16 -24t-13 -46l-97 -175q-21 -38 0 -36t63 37q55 43 101 127l33 59q22 41 46 53t65 12
l-140 -253q-23 -40 -1 -37q17 3 56 31q65 50 113 132q2 4 5 4t4 -2.5t-1 -5.5q-47 -80 -107 -131.5t-103 -51.5z" />
    <glyph glyph-name="pi" unicode="&#x3c0;" 
d="M388 287l-133 -238q-23 -40 -1 -37q17 3 56 31q65 50 113 132q2 4 5 4t4 -2.5t-1 -5.5q-47 -80 -107 -131.5t-103 -51.5q-17 0 -27.5 12t-8 40.5t24.5 67.5l99 179h-88l-163 -293q-17 0 -29 7t-16.5 24.5t12.5 46.5l119 215h-39q-11 0 -11 8q4 11 18 13h314q10 0 11 -8
q-4 -11 -18 -13h-31z" />
    <glyph glyph-name="Wgrave" unicode="&#x1e80;" horiz-adv-x="1074" 
d="M1109 634l-76 34q-35 17 -34 36.5t27 30.5l88 -97q3 -3 0 -5q-2 -1 -5 1zM786 571q55 23 85.5 8t15.5 -54q-37 15 -88 25q-27 -19 -89 -103.5t-121 -202.5q-44 -87 -63.5 -149.5t-17 -91t19.5 -33.5q4 -1 9.5 0.5t12 6.5t13 10.5t14.5 14.5t14 16t14 17.5t13 16.5
t12.5 16t9.5 13q50 69 149.5 213.5t138.5 196.5q57 78 89 30q10 -15 12.5 -34.5t-4 -46.5t-12.5 -46t-23 -54.5t-25 -50.5t-29 -55q-74 -134 -97.5 -188.5t-3.5 -56.5q33 -4 94.5 62.5t112.5 141t84 133.5q80 140 111 255q7 26 29 26q18 0 20 -18q1 -7 -1 -14
q-21 -66 -134 -250q-28 -46 -64.5 -99t-83.5 -113.5t-93 -100t-76 -39.5q-25 0 -37.5 14.5t-10.5 39.5t8.5 53t21 62t26.5 58t25 48q39 71 51.5 94.5t34 66.5t29 63.5t8.5 34.5q1 25 -21 7q-12 -9 -26 -29q-26 -35 -127.5 -184.5t-159.5 -224.5q-56 -74 -85 -101.5
t-57 -22.5q-70 12 -64.5 105t83.5 231q95 171 227 269q-181 23 -342 -68q-94 -52 -172.5 -150t-113.5 -215.5t5 -232.5q32 -89 120.5 -128t181 -23t143.5 73q9 11 12 7.5t-6 -12.5q-39 -46 -110.5 -67t-146.5 -14t-145.5 51t-104.5 118q-51 121 -14.5 242t125.5 220.5
t202 155.5q175 87 392 57z" />
    <glyph glyph-name="wgrave" unicode="&#x1e81;" horiz-adv-x="463" 
d="M375 358l-75 33q-35 17 -33.5 36.5t26.5 30.5l89 -96q1 -4 -1 -5t-6 1zM390 54q-70 -58 -137 -66q-21 -2 -34 11t-12.5 30.5t5.5 32.5q-42 -44 -91.5 -64t-77.5 -1q-45 31 9 125l100 180q17 0 29 -7t16 -24t-13 -46l-97 -175q-3 -4 -5.5 -10.5t-4.5 -14.5t0.5 -13.5
t10.5 -5.5q25 0 67 46.5t70 95.5l82 148q17 0 28.5 -6.5t16.5 -23.5t-12 -47l-95 -171q-2 -4 -5 -11t-5.5 -16t0 -15t10.5 -6q36 0 84 50.5t79 116.5q27 58 31.5 114t-16.5 90q-4 7 -1 7q5 1 10 -4q70 -76 56 -162t-98 -158z" />
    <glyph glyph-name="Wacute" unicode="&#x1e82;" horiz-adv-x="1074" 
d="M1108 668l-105 -36q-5 -1 -6 1.5t2 4.5l125 97q15 -9 20.5 -21t-3 -25t-33.5 -21zM786 571q55 23 85.5 8t15.5 -54q-37 15 -88 25q-27 -19 -89 -103.5t-121 -202.5q-44 -87 -63.5 -149.5t-17 -91t19.5 -33.5q4 -1 9.5 0.5t12 6.5t13 10.5t14.5 14.5t14 16t14 17.5
t13 16.5t12.5 16t9.5 13q50 69 149.5 213.5t138.5 196.5q57 78 89 30q10 -15 12.5 -34.5t-4 -46.5t-12.5 -46t-23 -54.5t-25 -50.5t-29 -55q-74 -134 -97.5 -188.5t-3.5 -56.5q33 -4 94.5 62.5t112.5 141t84 133.5q80 140 111 255q7 26 29 26q18 0 20 -18q1 -7 -1 -14
q-21 -66 -134 -250q-28 -46 -64.5 -99t-83.5 -113.5t-93 -100t-76 -39.5q-25 0 -37.5 14.5t-10.5 39.5t8.5 53t21 62t26.5 58t25 48q39 71 51.5 94.5t34 66.5t29 63.5t8.5 34.5q1 25 -21 7q-12 -9 -26 -29q-26 -35 -127.5 -184.5t-159.5 -224.5q-56 -74 -85 -101.5
t-57 -22.5q-70 12 -64.5 105t83.5 231q95 171 227 269q-181 23 -342 -68q-94 -52 -172.5 -150t-113.5 -215.5t5 -232.5q32 -89 120.5 -128t181 -23t143.5 73q9 11 12 7.5t-6 -12.5q-39 -46 -110.5 -67t-146.5 -14t-145.5 51t-104.5 118q-51 121 -14.5 242t125.5 220.5
t202 155.5q175 87 392 57z" />
    <glyph glyph-name="wacute" unicode="&#x1e83;" horiz-adv-x="463" 
d="M350 391l-105 -35q-5 -1 -6 1t2 5l126 96q14 -10 19.5 -22t-3 -24.5t-33.5 -20.5zM390 54q-70 -58 -137 -66q-21 -2 -34 11t-12.5 30.5t5.5 32.5q-42 -44 -91.5 -64t-77.5 -1q-45 31 9 125l100 180q17 0 29 -7t16 -24t-13 -46l-97 -175q-3 -4 -5.5 -10.5t-4.5 -14.5
t0.5 -13.5t10.5 -5.5q25 0 67 46.5t70 95.5l82 148q17 0 28.5 -6.5t16.5 -23.5t-12 -47l-95 -171q-2 -4 -5 -11t-5.5 -16t0 -15t10.5 -6q36 0 84 50.5t79 116.5q27 58 31.5 114t-16.5 90q-4 7 -1 7q5 1 10 -4q70 -76 56 -162t-98 -158z" />
    <glyph glyph-name="Wdieresis" unicode="&#x1e84;" horiz-adv-x="1074" 
d="M1080 683q2 14 14.5 23t27.5 9t24 -9t7 -23t-14.5 -23t-27.5 -9t-24 9t-7 23zM980 683q2 14 14 23t27 9t24 -9t7 -23t-14 -23t-27 -9t-24.5 9t-6.5 23zM786 571q55 23 85.5 8t15.5 -54q-37 15 -88 25q-27 -19 -89 -103.5t-121 -202.5q-44 -87 -63.5 -149.5t-17 -91
t19.5 -33.5q4 -1 9.5 0.5t12 6.5t13 10.5t14.5 14.5t14 16t14 17.5t13 16.5t12.5 16t9.5 13q50 69 149.5 213.5t138.5 196.5q57 78 89 30q10 -15 12.5 -34.5t-4 -46.5t-12.5 -46t-23 -54.5t-25 -50.5t-29 -55q-74 -134 -97.5 -188.5t-3.5 -56.5q33 -4 94.5 62.5t112.5 141
t84 133.5q80 140 111 255q7 26 29 26q18 0 20 -18q1 -7 -1 -14q-21 -66 -134 -250q-28 -46 -64.5 -99t-83.5 -113.5t-93 -100t-76 -39.5q-25 0 -37.5 14.5t-10.5 39.5t8.5 53t21 62t26.5 58t25 48q39 71 51.5 94.5t34 66.5t29 63.5t8.5 34.5q1 25 -21 7q-12 -9 -26 -29
q-26 -35 -127.5 -184.5t-159.5 -224.5q-56 -74 -85 -101.5t-57 -22.5q-70 12 -64.5 105t83.5 231q95 171 227 269q-181 23 -342 -68q-94 -52 -172.5 -150t-113.5 -215.5t5 -232.5q32 -89 120.5 -128t181 -23t143.5 73q9 11 12 7.5t-6 -12.5q-39 -46 -110.5 -67t-146.5 -14
t-145.5 51t-104.5 118q-51 121 -14.5 242t125.5 220.5t202 155.5q175 87 392 57z" />
    <glyph glyph-name="wdieresis" unicode="&#x1e85;" horiz-adv-x="463" 
d="M232 406q2 14 14 23.5t27 9.5t24 -9.5t7 -23.5t-14 -22.5t-27 -8.5q-16 0 -25 8.5t-6 22.5zM332 406q2 14 14.5 23.5t27.5 9.5t24 -9.5t7 -23.5t-14.5 -22.5t-27.5 -8.5t-24 8.5t-7 22.5zM390 54q-70 -58 -137 -66q-21 -2 -34 11t-12.5 30.5t5.5 32.5q-42 -44 -91.5 -64
t-77.5 -1q-45 31 9 125l100 180q17 0 29 -7t16 -24t-13 -46l-97 -175q-3 -4 -5.5 -10.5t-4.5 -14.5t0.5 -13.5t10.5 -5.5q25 0 67 46.5t70 95.5l82 148q17 0 28.5 -6.5t16.5 -23.5t-12 -47l-95 -171q-2 -4 -5 -11t-5.5 -16t0 -15t10.5 -6q36 0 84 50.5t79 116.5
q27 58 31.5 114t-16.5 90q-4 7 -1 7q5 1 10 -4q70 -76 56 -162t-98 -158z" />
    <glyph glyph-name="uni1EA0" unicode="&#x1ea0;" horiz-adv-x="1002" 
d="M577 -157q-16 28 14 57q13 12 27.5 11.5t21.5 -14.5q8 -12 3.5 -28.5t-17.5 -26.5q-31 -24 -49 1zM849 108l53 92h-204q-79 -104 -172 -173t-215 -113q-83 -28 -166 -29q26 -65 85.5 -103t125 -44t130 13.5t102.5 61.5q9 11 12 7.5t-6 -12.5q-39 -45 -109.5 -66.5
t-144 -15t-143.5 48t-106 113.5q-132 12 -194 88q-14 13 -12 34.5t27 30.5q29 -112 171 -135q-34 78 -24 166t51.5 169.5t116 154t167.5 118.5q253 124 532 46q64 41 109 27q50 -19 37 -103q37 54 96 54l-271 -489q-23 -42 7 -38q24 3 64 28q72 47 126 134q5 9 9 3
q2 -2 -1 -6q-39 -66 -95 -117t-113 -62q-44 -11 -59 11q-26 34 14 106zM654 255l115 147q89 107 139 145q-250 77 -472 -44q-104 -58 -184.5 -154.5t-115.5 -213.5t4 -234q92 -2 163 27q29 11 57 27t48.5 29t47.5 38.5t40 38t41.5 46.5t37 44.5t40.5 52.5t39 51zM854 410
l-143 -193l-2 -2h201l91 157q35 59 47 107.5t4.5 72.5t-24.5 26q-48 3 -174 -168z" />
    <glyph glyph-name="uni1EA1" unicode="&#x1ea1;" horiz-adv-x="337" 
d="M56 -145q-16 28 14 57q13 12 27.5 11.5t21.5 -14.5q8 -12 3.5 -28.5t-17.5 -26.5q-31 -24 -49 1zM262 308q38 -7 32 -61q20 34 43.5 44.5t63.5 10.5l-140 -253q-23 -40 -1 -37q17 3 56 31q64 48 113 132q2 4 5 4t4 -2.5t-1 -5.5q-47 -80 -107 -131.5t-103 -51.5
q-19 0 -29.5 18t-2.5 51q-58 -69 -113 -69q-34 1 -46.5 26t-5.5 60.5t28 73.5t51 74.5t73 64t80 21.5zM266 285q-20 0 -59 -39t-71 -97q-63 -114 -37 -136q5 -4 13 -4q20 0 56.5 39.5t70.5 100.5q57 102 39 130q-4 6 -12 6z" />
    </font>
</defs>
</svg>
