<!-- Generator: Adobe Illustrator 21.1.0, SVG Export Plug-In  -->
<svg version="1.1"
	 xmlns="http://www.w3.org/2000/svg" xmlns:xlink="http://www.w3.org/1999/xlink" xmlns:a="http://ns.adobe.com/AdobeSVGViewerExtensions/3.0/"
	 x="0px" y="0px" width="11.128px" height="9.54px" viewBox="0 0 11.128 9.54" style="enable-background:new 0 0 11.128 9.54;"
	 xml:space="preserve">
<style type="text/css">
	.st0{fill:#6B0B0C;}
</style>
<defs>
</defs>
<path class="st0" d="M5.564,7.949c-0.304,0-0.609-0.019-0.9-0.05c-0.813,0.72-1.782,1.23-2.857,1.503
	C1.584,9.464,1.341,9.508,1.099,9.539C0.963,9.551,0.832,9.452,0.801,9.303c0-0.006,0-0.006,0-0.006
	C0.77,9.141,0.876,9.048,0.969,8.936c0.391-0.44,0.838-0.813,1.13-1.851C0.82,6.359,0,5.235,0,3.974C0,1.782,2.49,0,5.564,0
	s5.564,1.776,5.564,3.974S8.638,7.949,5.564,7.949z"/>
</svg>