<!-- Generator: Adobe Illustrator 21.1.0, SVG Export Plug-In  -->
<svg version="1.1"
	 xmlns="http://www.w3.org/2000/svg" xmlns:xlink="http://www.w3.org/1999/xlink" xmlns:a="http://ns.adobe.com/AdobeSVGViewerExtensions/3.0/"
	 x="0px" y="0px" width="194.632px" height="42.182px" viewBox="0 0 194.632 42.182"
	 style="overflow:scroll;enable-background:new 0 0 194.632 42.182;" xml:space="preserve">
<style type="text/css">
	.st0{fill:#6B0B0C;}
</style>
<defs>
</defs>
<g>
	<path class="st0" d="M85.067,28.103c0.896,2.077,3.323,3.944,5.582,2.398c1.266-0.867,2.894-2.717,2.019-4.403
		c-2.13-4.106-5.45,1.095-1.932,1.84c0.279,0.059,0.487-0.082,0.596-0.277c0.177,0.82-0.231,1.454-1.235,1.896
		c-3.283,0.254-4.54-0.995-3.772-3.745c1.311-1.776,3.464-2.342,5.462-1.699c2.027,0.652,3.946,1.885,5.343,3.534
		c-2.311,3.105-3.026,7.272-0.078,10.35c0.158,0.165,0.421,0.2,0.624,0.1c0.203,0.1,0.466,0.065,0.624-0.1
		c2.948-3.078,2.234-7.245-0.078-10.35c1.397-1.649,3.316-2.881,5.343-3.534c1.997-0.643,4.151-0.077,5.462,1.699
		c0.768,2.751-0.489,3.999-3.772,3.745c-1.004-0.442-1.412-1.076-1.235-1.896c0.11,0.195,0.318,0.336,0.596,0.277
		c3.518-0.745,0.198-5.945-1.932-1.84c-0.874,1.685,0.754,3.536,2.019,4.403c2.259,1.546,4.686-0.321,5.582-2.398
		c0.801-1.855-0.791-4.097-2.497-4.761c-2.879-1.121-5.926-0.248-8.292,1.654c-0.63,0.506-1.247,1.104-1.82,1.757
		c-0.573-0.653-1.19-1.251-1.82-1.757c-2.366-1.902-5.413-2.775-8.292-1.654C85.858,24.006,84.266,26.248,85.067,28.103z
		 M98.876,33.248c0.043,1.307-0.332,3.161-1.2,3.233c-0.868-0.072-1.243-1.926-1.2-3.233c0.052-1.553,0.468-3.155,1.2-4.563
		C98.408,30.093,98.824,31.695,98.876,33.248z"/>
	<g>
		<g>
			<path class="st0" d="M135.341,23.874c-4.595,6.558-15.799,3.135-21.388-0.25c-5.037-3.051-9.683-7.634-15.95-7.451
				c-0.703,0.021-0.705,1.113,0,1.093c8.422-0.246,14.536,8.266,22.475,10.316c5.408,1.397,12.227,1.953,15.806-3.155
				C136.69,23.847,135.742,23.302,135.341,23.874L135.341,23.874z"/>
		</g>
		<g>
			<path class="st0" d="M130.438,22.257c-0.821-2.366-3.373-4.252-5.128-1.337c-2.142,3.557,0.807,5.745,4.296,5.744
				c5.419-0.001,6.703-8.851,9.474-12.011c2.139-2.438,5.835-5.962,9.281-2.939c2.649,2.325,1.986,6.57-0.005,8.951
				c-3.318,3.968-10.078-4.29-3.875-5.386c0.693-0.122,0.399-1.175-0.29-1.054c-4.199,0.742-4.024,4.662-1.361,7.238
				c3.475,3.361,8.386-0.381,8.373-4.603c-0.009-2.979-1.076-5.584-3.715-7.106c-2.568-1.48-5.692,0.894-7.535,2.463
				c-3.056,2.6-4.286,5.762-5.892,9.305c-1.332,2.939-4.633,5.696-7.85,3.176c-1.891-1.48,1.491-7.001,3.174-2.151
				C129.614,23.208,130.67,22.924,130.438,22.257L130.438,22.257z"/>
		</g>
		<g>
			<path class="st0" d="M173.897,6.884c-1.026-3.641,3.56-3.462,3.858-0.417c0.371,3.785-5.365,3.604-7.443,2.667
				c-1.135-0.511-2.193-1.286-3.239-1.952c-3.417-2.18-7.3-3.204-11.361-2.855c-6.542,0.563-5.35,8.704-1.441,11.697
				c8.725,6.68,10.942-11.454,2.61-7.537c-0.637,0.3-0.082,1.241,0.552,0.943c3.783-1.778,4.532,2.663,3.212,5.203
				c-2.989,5.75-14.353-5.436-5.86-8.991c8.201-3.432,14.658,9.005,22.055,4.167c7.08-4.631-6.304-10.824-3.996-2.634
				C173.035,7.853,174.089,7.564,173.897,6.884L173.897,6.884z"/>
		</g>
		<g>
			<path class="st0" d="M123.355,30.16c-3.608-0.032-6.865-1.682-10.127-3.04c-0.359-0.149-0.659,0.216-0.692,0.527
				c-0.429,4.109-6.414,5.877-9.339,3.33c-0.384-0.335-1.099-0.024-0.913,0.531c1.377,4.12,0.462,8.355-4.208,9.6
				c-0.68,0.182-0.391,1.235,0.29,1.054c5.166-1.377,6.561-6.187,4.971-10.944c-0.304,0.178-0.609,0.354-0.913,0.532
				c2.452,2.135,6.755,1.925,9.19-0.248c0.698-0.623,1.156-1.181,1.606-1.985c0.754-1.349,0.444-1.036,2.149-0.31
				c2.568,1.093,5.173,2.022,7.985,2.046C124.06,31.259,124.059,30.166,123.355,30.16L123.355,30.16z"/>
		</g>
		<g>
			<path class="st0" d="M141.932,23.167c-0.705,0-0.705,1.093,0,1.093C142.637,24.259,142.637,23.167,141.932,23.167L141.932,23.167
				z"/>
		</g>
		<g>
			<path class="st0" d="M140.184,25.134c-0.705,0-0.705,1.093,0,1.093C140.888,26.226,140.888,25.134,140.184,25.134L140.184,25.134
				z"/>
		</g>
		<g>
			<path class="st0" d="M138.217,27.319c-0.705,0-0.705,1.093,0,1.093C138.921,28.412,138.921,27.319,138.217,27.319L138.217,27.319
				z"/>
		</g>
		<g>
			<path class="st0" d="M135.813,28.63c-0.705,0-0.705,1.093,0,1.093C136.517,29.723,136.517,28.63,135.813,28.63L135.813,28.63z"/>
		</g>
		<g>
			<path class="st0" d="M132.753,29.723c-0.705,0-0.705,1.093,0,1.093C133.458,30.816,133.458,29.723,132.753,29.723L132.753,29.723
				z"/>
		</g>
		<g>
			<path class="st0" d="M129.475,30.379c-0.705,0-0.705,1.093,0,1.093C130.179,31.472,130.179,30.379,129.475,30.379L129.475,30.379
				z"/>
		</g>
		<g>
			<path class="st0" d="M126.415,30.379c-0.705,0-0.705,1.093,0,1.093C127.12,31.472,127.12,30.379,126.415,30.379L126.415,30.379z"
				/>
		</g>
		<g>
			<path class="st0" d="M186.568,3.774c1.687,1.617,5.451,3.238,4.067,6.113c0.205-0.084,0.411-0.167,0.616-0.251
				c-2.335-0.982-2.947-4.279-3.77-6.394c-0.253-0.649-1.31-0.367-1.054,0.29c1.007,2.585,1.708,5.968,4.534,7.157
				c0.209,0.089,0.522-0.053,0.616-0.251c1.747-3.624-2.05-5.342-4.237-7.437C186.831,2.514,186.058,3.286,186.568,3.774
				L186.568,3.774z"/>
		</g>
		<g>
			<path class="st0" d="M184.262,4.614c0.682,1.886,2.771,4.334,0.684,5.991c0.258,0,0.516,0,0.773,0
				c-1.337-1.607-0.566-4.258-0.383-6.136c0.068-0.701-1.025-0.695-1.093,0c-0.222,2.29-0.913,4.964,0.703,6.908
				c0.206,0.248,0.557,0.171,0.773,0c2.56-2.031,0.438-4.728-0.403-7.053C185.077,3.667,184.022,3.95,184.262,4.614L184.262,4.614z"
				/>
		</g>
		<g>
			<path class="st0" d="M187.877,1.971c1.907,0.12,5.035-0.848,5.684,1.661c0.127-0.224,0.254-0.448,0.382-0.672
				c-2.044,0.603-4.095-1.08-5.789-2.008c-0.618-0.339-1.17,0.605-0.551,0.943c1.989,1.09,4.232,2.826,6.63,2.118
				c0.289-0.085,0.457-0.38,0.382-0.672c-0.837-3.239-4.231-2.306-6.737-2.464C187.174,0.834,187.178,1.927,187.877,1.971
				L187.877,1.971z"/>
		</g>
		<g>
			<path class="st0" d="M159.591,17.769c-2.172,0.377-4.088,0.715-6.219-0.032c-0.283-0.099-0.594,0.11-0.672,0.382
				c-0.603,2.098-2.426,3.023-4.207,4.001c-0.503,0.276-0.241,0.985,0.276,1.018c3.093,0.197,5.723,1.153,7.618,3.721
				c0.292,0.395,1.055,0.32,1.018-0.276c-0.178-2.871,0.546-5.898,2.718-7.9c0.519-0.479-0.256-1.25-0.773-0.773
				c-2.37,2.185-3.233,5.527-3.038,8.673c0.339-0.092,0.679-0.184,1.018-0.276c-2.142-2.904-5.028-4.038-8.561-4.263
				c0.092,0.34,0.184,0.679,0.276,1.019c2.068-1.135,4.022-2.261,4.709-4.654c-0.224,0.127-0.448,0.254-0.672,0.382
				c2.314,0.81,4.443,0.441,6.8,0.032C160.575,18.702,160.28,17.649,159.591,17.769L159.591,17.769z"/>
		</g>
		<g>
			<path class="st0" d="M150.053,7.701c-5.492-7.917-15.016-5.775-22.6-2.302c-3.901,1.786-7.409,4.318-11.166,6.375
				c-3.655,2-11.849,6.651-15.494,2.593c-0.472-0.526-1.242,0.25-0.773,0.773c4.654,5.181,14.646-1.134,19.12-3.716
				c8.353-4.819,22.4-14.08,29.969-3.17C149.508,8.828,150.456,8.282,150.053,7.701L150.053,7.701z"/>
		</g>
		<g>
			<path class="st0" d="M181.927,4.371c-0.705,0-0.705,1.093,0,1.093C182.632,5.464,182.632,4.371,181.927,4.371L181.927,4.371z"/>
		</g>
		<g>
			<path class="st0" d="M181.709,7.868c-0.705,0-0.705,1.093,0,1.093C182.413,8.961,182.413,7.868,181.709,7.868L181.709,7.868z"/>
		</g>
		<g>
			<path class="st0" d="M180.397,10.491c-0.705,0-0.705,1.093,0,1.093C181.102,11.583,181.102,10.491,180.397,10.491L180.397,10.491
				z"/>
		</g>
		<g>
			<path class="st0" d="M177.556,12.239c-0.705,0-0.705,1.093,0,1.093C178.261,13.332,178.261,12.239,177.556,12.239L177.556,12.239
				z"/>
		</g>
		<g>
			<path class="st0" d="M174.715,13.113c-0.705,0-0.705,1.093,0,1.093C175.42,14.206,175.42,13.113,174.715,13.113L174.715,13.113z"
				/>
		</g>
		<g>
			<path class="st0" d="M171.874,12.895c-0.705,0-0.705,1.093,0,1.093C172.578,13.987,172.578,12.895,171.874,12.895L171.874,12.895
				z"/>
		</g>
		<g>
			<path class="st0" d="M169.033,12.02c-0.705,0-0.705,1.093,0,1.093C169.737,13.113,169.737,12.02,169.033,12.02L169.033,12.02z"/>
		</g>
		<g>
			<path class="st0" d="M165.754,11.146c-0.705,0-0.705,1.093,0,1.093C166.459,12.239,166.459,11.146,165.754,11.146L165.754,11.146
				z"/>
		</g>
		<g>
			<path class="st0" d="M163.569,10.491c-0.705,0-0.705,1.093,0,1.093C164.273,11.583,164.273,10.491,163.569,10.491L163.569,10.491
				z"/>
		</g>
		<g>
			<path class="st0" d="M146.74,1.967c-0.705,0-0.705,1.093,0,1.093C147.445,3.06,147.445,1.967,146.74,1.967L146.74,1.967z"/>
		</g>
		<g>
			<path class="st0" d="M144.773,0.656c-0.705,0-0.705,1.093,0,1.093C145.478,1.748,145.478,0.656,144.773,0.656L144.773,0.656z"/>
		</g>
		<g>
			<path class="st0" d="M142.151,0c-0.705,0-0.705,1.093,0,1.093C142.855,1.093,142.855,0,142.151,0L142.151,0z"/>
		</g>
		<g>
			<path class="st0" d="M139.091,0c-0.705,0-0.705,1.093,0,1.093C139.796,1.093,139.796,0,139.091,0L139.091,0z"/>
		</g>
		<g>
			<path class="st0" d="M136.25,0.219c-0.705,0-0.705,1.093,0,1.093C136.954,1.311,136.954,0.219,136.25,0.219L136.25,0.219z"/>
		</g>
		<g>
			<path class="st0" d="M133.409,1.093c-0.705,0-0.705,1.093,0,1.093C134.113,2.186,134.113,1.093,133.409,1.093L133.409,1.093z"/>
		</g>
		<g>
			<path class="st0" d="M130.786,1.53c-0.705,0-0.705,1.093,0,1.093C131.491,2.623,131.491,1.53,130.786,1.53L130.786,1.53z"/>
		</g>
		<g>
			<path class="st0" d="M128.382,2.404c-0.705,0-0.705,1.093,0,1.093C129.087,3.497,129.087,2.404,128.382,2.404L128.382,2.404z"/>
		</g>
		<g>
			<path class="st0" d="M125.978,3.497c-0.705,0-0.705,1.093,0,1.093C126.682,4.59,126.682,3.497,125.978,3.497L125.978,3.497z"/>
		</g>
		<g>
			<path class="st0" d="M122.918,5.245c-0.705,0-0.705,1.093,0,1.093C123.623,6.338,123.623,5.245,122.918,5.245L122.918,5.245z"/>
		</g>
		<g>
			<path class="st0" d="M120.077,6.775c-0.705,0-0.705,1.093,0,1.093C120.782,7.868,120.782,6.775,120.077,6.775L120.077,6.775z"/>
		</g>
		<g>
			<path class="st0" d="M117.017,8.524c-0.705,0-0.705,1.093,0,1.093C117.722,9.616,117.722,8.524,117.017,8.524L117.017,8.524z"/>
		</g>
		<g>
			<path class="st0" d="M113.52,10.709c-0.705,0-0.705,1.093,0,1.093C114.225,11.802,114.225,10.709,113.52,10.709L113.52,10.709z"
				/>
		</g>
		<g>
			<path class="st0" d="M110.46,12.239c-0.705,0-0.705,1.093,0,1.093C111.165,13.332,111.165,12.239,110.46,12.239L110.46,12.239z"
				/>
		</g>
		<g>
			<path class="st0" d="M107.182,13.332c-0.705,0-0.705,1.093,0,1.093C107.887,14.424,107.887,13.332,107.182,13.332L107.182,13.332
				z"/>
		</g>
		<g>
			<path class="st0" d="M103.685,13.113c-0.705,0-0.705,1.093,0,1.093C104.39,14.206,104.39,13.113,103.685,13.113L103.685,13.113z"
				/>
		</g>
		<g>
			<path class="st0" d="M100.407,11.802c-0.705,0-0.705,1.093,0,1.093C101.112,12.895,101.112,11.802,100.407,11.802L100.407,11.802
				z"/>
		</g>
	</g>
	<g>
		<g>
			<path class="st0" d="M59.292,23.874c4.595,6.558,15.799,3.135,21.388-0.25c5.037-3.051,9.683-7.634,15.95-7.451
				c0.703,0.021,0.705,1.113,0,1.093c-8.422-0.246-14.536,8.266-22.475,10.316c-5.408,1.397-12.227,1.953-15.806-3.155
				C57.943,23.847,58.891,23.302,59.292,23.874L59.292,23.874z"/>
		</g>
		<g>
			<path class="st0" d="M64.195,22.257c0.821-2.366,3.373-4.252,5.128-1.337c2.142,3.557-0.807,5.745-4.295,5.744
				c-5.419-0.001-6.703-8.851-9.474-12.011c-2.139-2.438-5.835-5.962-9.281-2.939c-2.649,2.325-1.986,6.57,0.005,8.951
				c3.318,3.968,10.078-4.29,3.875-5.386c-0.693-0.122-0.399-1.175,0.29-1.054c4.199,0.742,4.024,4.662,1.361,7.238
				c-3.475,3.361-8.386-0.381-8.373-4.603c0.009-2.979,1.076-5.584,3.715-7.106c2.568-1.48,5.692,0.894,7.535,2.463
				c3.056,2.6,4.286,5.762,5.892,9.305c1.332,2.939,4.633,5.696,7.85,3.176c1.891-1.48-1.491-7.001-3.174-2.151
				C65.019,23.208,63.963,22.924,64.195,22.257L64.195,22.257z"/>
		</g>
		<g>
			<path class="st0" d="M20.736,6.884c1.026-3.641-3.56-3.462-3.858-0.417c-0.371,3.785,5.365,3.604,7.443,2.667
				c1.135-0.511,2.193-1.286,3.239-1.952c3.417-2.18,7.3-3.204,11.361-2.855c6.542,0.563,5.35,8.704,1.441,11.697
				c-8.725,6.68-10.942-11.454-2.61-7.537c0.637,0.3,0.082,1.241-0.552,0.943c-3.783-1.778-4.532,2.663-3.212,5.203
				c2.989,5.75,14.353-5.436,5.86-8.991c-8.201-3.432-14.658,9.005-22.055,4.167c-7.08-4.631,6.304-10.824,3.996-2.634
				C21.598,7.853,20.544,7.564,20.736,6.884L20.736,6.884z"/>
		</g>
		<g>
			<path class="st0" d="M71.278,30.16c3.608-0.032,6.865-1.682,10.127-3.04c0.359-0.149,0.659,0.216,0.692,0.527
				c0.429,4.109,6.414,5.877,9.339,3.33c0.384-0.335,1.099-0.024,0.913,0.531c-1.377,4.12-0.462,8.355,4.208,9.6
				c0.68,0.182,0.391,1.235-0.29,1.054c-5.166-1.377-6.561-6.187-4.971-10.944c0.304,0.178,0.609,0.354,0.913,0.532
				c-2.452,2.135-6.755,1.925-9.19-0.248c-0.698-0.623-1.156-1.181-1.606-1.985c-0.754-1.349-0.444-1.036-2.149-0.31
				c-2.568,1.093-5.173,2.022-7.985,2.046C70.573,31.259,70.574,30.166,71.278,30.16L71.278,30.16z"/>
		</g>
		<g>
			<path class="st0" d="M52.701,23.167c0.705,0,0.705,1.093,0,1.093C51.996,24.259,51.996,23.167,52.701,23.167L52.701,23.167z"/>
		</g>
		<g>
			<path class="st0" d="M54.449,25.134c0.705,0,0.705,1.093,0,1.093C53.745,26.226,53.745,25.134,54.449,25.134L54.449,25.134z"/>
		</g>
		<g>
			<path class="st0" d="M56.416,27.319c0.705,0,0.705,1.093,0,1.093C55.712,28.412,55.712,27.319,56.416,27.319L56.416,27.319z"/>
		</g>
		<g>
			<path class="st0" d="M58.821,28.63c0.705,0,0.705,1.093,0,1.093C58.116,29.723,58.116,28.63,58.821,28.63L58.821,28.63z"/>
		</g>
		<g>
			<path class="st0" d="M61.88,29.723c0.705,0,0.705,1.093,0,1.093C61.176,30.816,61.176,29.723,61.88,29.723L61.88,29.723z"/>
		</g>
		<g>
			<path class="st0" d="M65.159,30.379c0.705,0,0.705,1.093,0,1.093C64.454,31.472,64.454,30.379,65.159,30.379L65.159,30.379z"/>
		</g>
		<g>
			<path class="st0" d="M68.218,30.379c0.705,0,0.705,1.093,0,1.093C67.514,31.472,67.514,30.379,68.218,30.379L68.218,30.379z"/>
		</g>
		<g>
			<path class="st0" d="M8.066,3.774C6.378,5.391,2.614,7.012,3.998,9.887C3.793,9.803,3.587,9.72,3.382,9.636
				c2.336-0.982,2.947-4.279,3.771-6.394c0.253-0.649,1.31-0.367,1.054,0.29c-1.007,2.585-1.707,5.968-4.534,7.157
				c-0.209,0.089-0.522-0.053-0.616-0.251C1.309,6.814,5.106,5.097,7.293,3.002C7.801,2.514,8.575,3.286,8.066,3.774L8.066,3.774z"
				/>
		</g>
		<g>
			<path class="st0" d="M10.371,4.614C9.689,6.5,7.6,8.949,9.687,10.605c-0.257,0-0.515,0-0.773,0
				c1.337-1.607,0.566-4.258,0.383-6.136c-0.068-0.701,1.025-0.695,1.093,0c0.222,2.29,0.913,4.964-0.703,6.908
				c-0.206,0.248-0.557,0.171-0.773,0C6.354,9.347,8.476,6.65,9.318,4.324C9.555,3.667,10.611,3.95,10.371,4.614L10.371,4.614z"/>
		</g>
		<g>
			<path class="st0" d="M6.755,1.971C4.848,2.091,1.72,1.124,1.071,3.633C0.944,3.408,0.817,3.184,0.69,2.961
				c2.044,0.603,4.095-1.08,5.789-2.008c0.618-0.339,1.17,0.605,0.552,0.943C5.041,2.986,2.798,4.722,0.4,4.014
				C0.11,3.929-0.057,3.634,0.018,3.342C0.855,0.103,4.25,1.036,6.755,0.878C7.459,0.834,7.455,1.927,6.755,1.971L6.755,1.971z"/>
		</g>
		<g>
			<path class="st0" d="M35.042,17.769c2.172,0.377,4.088,0.715,6.219-0.032c0.283-0.099,0.594,0.11,0.672,0.382
				c0.603,2.098,2.426,3.023,4.207,4.001c0.503,0.276,0.241,0.985-0.276,1.018c-3.093,0.197-5.723,1.153-7.618,3.721
				c-0.292,0.395-1.055,0.32-1.018-0.276c0.178-2.871-0.546-5.898-2.718-7.9c-0.519-0.479,0.256-1.25,0.773-0.773
				c2.37,2.185,3.233,5.527,3.038,8.673c-0.339-0.092-0.679-0.184-1.018-0.276c2.142-2.904,5.028-4.038,8.561-4.263
				c-0.092,0.34-0.184,0.679-0.276,1.019c-2.068-1.135-4.022-2.261-4.709-4.654c0.224,0.127,0.448,0.254,0.672,0.382
				c-2.314,0.81-4.443,0.441-6.8,0.032C34.058,18.702,34.353,17.649,35.042,17.769L35.042,17.769z"/>
		</g>
		<g>
			<path class="st0" d="M44.58,7.701c5.492-7.917,15.016-5.775,22.6-2.302c3.901,1.786,7.409,4.318,11.166,6.375
				c3.655,2,11.849,6.651,15.494,2.593c0.472-0.526,1.242,0.25,0.773,0.773c-4.654,5.181-14.646-1.134-19.12-3.716
				c-8.353-4.819-22.4-14.08-29.969-3.17C45.125,8.828,44.177,8.282,44.58,7.701L44.58,7.701z"/>
		</g>
		<g>
			<path class="st0" d="M12.706,4.371c0.705,0,0.705,1.093,0,1.093C12.001,5.464,12.001,4.371,12.706,4.371L12.706,4.371z"/>
		</g>
		<g>
			<path class="st0" d="M12.924,7.868c0.705,0,0.705,1.093,0,1.093C12.22,8.961,12.22,7.868,12.924,7.868L12.924,7.868z"/>
		</g>
		<g>
			<path class="st0" d="M14.236,10.491c0.705,0,0.705,1.093,0,1.093C13.531,11.583,13.531,10.491,14.236,10.491L14.236,10.491z"/>
		</g>
		<g>
			<path class="st0" d="M17.077,12.239c0.705,0,0.705,1.093,0,1.093C16.372,13.332,16.372,12.239,17.077,12.239L17.077,12.239z"/>
		</g>
		<g>
			<path class="st0" d="M19.918,13.113c0.705,0,0.705,1.093,0,1.093C19.213,14.206,19.213,13.113,19.918,13.113L19.918,13.113z"/>
		</g>
		<g>
			<path class="st0" d="M22.759,12.895c0.705,0,0.705,1.093,0,1.093C22.055,13.987,22.055,12.895,22.759,12.895L22.759,12.895z"/>
		</g>
		<g>
			<path class="st0" d="M25.601,12.02c0.705,0,0.705,1.093,0,1.093C24.896,13.113,24.896,12.02,25.601,12.02L25.601,12.02z"/>
		</g>
		<g>
			<path class="st0" d="M28.879,11.146c0.705,0,0.705,1.093,0,1.093C28.174,12.239,28.174,11.146,28.879,11.146L28.879,11.146z"/>
		</g>
		<g>
			<path class="st0" d="M31.064,10.491c0.705,0,0.705,1.093,0,1.093C30.36,11.583,30.36,10.491,31.064,10.491L31.064,10.491z"/>
		</g>
		<g>
			<path class="st0" d="M47.893,1.967c0.705,0,0.705,1.093,0,1.093C47.188,3.06,47.188,1.967,47.893,1.967L47.893,1.967z"/>
		</g>
		<g>
			<path class="st0" d="M49.86,0.656c0.705,0,0.705,1.093,0,1.093C49.155,1.748,49.155,0.656,49.86,0.656L49.86,0.656z"/>
		</g>
		<g>
			<path class="st0" d="M52.482,0c0.705,0,0.705,1.093,0,1.093C51.778,1.093,51.778,0,52.482,0L52.482,0z"/>
		</g>
		<g>
			<path class="st0" d="M55.542,0c0.705,0,0.705,1.093,0,1.093C54.838,1.093,54.838,0,55.542,0L55.542,0z"/>
		</g>
		<g>
			<path class="st0" d="M58.383,0.219c0.705,0,0.705,1.093,0,1.093C57.679,1.311,57.679,0.219,58.383,0.219L58.383,0.219z"/>
		</g>
		<g>
			<path class="st0" d="M61.225,1.093c0.705,0,0.705,1.093,0,1.093C60.52,2.186,60.52,1.093,61.225,1.093L61.225,1.093z"/>
		</g>
		<g>
			<path class="st0" d="M63.847,1.53c0.705,0,0.705,1.093,0,1.093C63.143,2.623,63.143,1.53,63.847,1.53L63.847,1.53z"/>
		</g>
		<g>
			<path class="st0" d="M66.251,2.404c0.705,0,0.705,1.093,0,1.093C65.547,3.497,65.547,2.404,66.251,2.404L66.251,2.404z"/>
		</g>
		<g>
			<path class="st0" d="M68.655,3.497c0.705,0,0.705,1.093,0,1.093C67.951,4.59,67.951,3.497,68.655,3.497L68.655,3.497z"/>
		</g>
		<g>
			<path class="st0" d="M71.715,5.245c0.705,0,0.705,1.093,0,1.093C71.01,6.338,71.01,5.245,71.715,5.245L71.715,5.245z"/>
		</g>
		<g>
			<path class="st0" d="M74.556,6.775c0.705,0,0.705,1.093,0,1.093C73.852,7.868,73.852,6.775,74.556,6.775L74.556,6.775z"/>
		</g>
		<g>
			<path class="st0" d="M77.616,8.524c0.705,0,0.705,1.093,0,1.093C76.911,9.616,76.911,8.524,77.616,8.524L77.616,8.524z"/>
		</g>
		<g>
			<path class="st0" d="M81.113,10.709c0.705,0,0.705,1.093,0,1.093C80.408,11.802,80.408,10.709,81.113,10.709L81.113,10.709z"/>
		</g>
		<g>
			<path class="st0" d="M84.173,12.239c0.705,0,0.705,1.093,0,1.093C83.468,13.332,83.468,12.239,84.173,12.239L84.173,12.239z"/>
		</g>
		<g>
			<path class="st0" d="M87.451,13.332c0.705,0,0.705,1.093,0,1.093C86.746,14.424,86.746,13.332,87.451,13.332L87.451,13.332z"/>
		</g>
		<g>
			<path class="st0" d="M90.948,13.113c0.705,0,0.705,1.093,0,1.093C90.243,14.206,90.243,13.113,90.948,13.113L90.948,13.113z"/>
		</g>
		<g>
			<path class="st0" d="M94.226,11.802c0.705,0,0.705,1.093,0,1.093C93.521,12.895,93.521,11.802,94.226,11.802L94.226,11.802z"/>
		</g>
	</g>
</g>
</svg>