<!-- Generator: Adobe Illustrator 21.1.0, SVG Export Plug-In  -->
<svg version="1.1"
	 xmlns="http://www.w3.org/2000/svg" xmlns:xlink="http://www.w3.org/1999/xlink" xmlns:a="http://ns.adobe.com/AdobeSVGViewerExtensions/3.0/"
	 x="0px" y="0px" width="199.667px" height="159.333px" viewBox="0 0 199.667 159.333"
	 style="overflow:scroll;enable-background:new 0 0 199.667 159.333;" xml:space="preserve">
<style type="text/css">
	.st0{opacity:0.8;fill:#FFFFFF;}
	.st1{fill:#A7A9AC;}
</style>
<defs>
</defs>
<g>
	<path class="st0" d="M199.667,22.666h-39.116C144.883,8.644,123.461,0,99.833,0s-45.05,8.644-60.718,22.666H0v114h39.115
		c15.668,14.022,37.09,22.667,60.718,22.667s45.051-8.645,60.719-22.667h39.115V22.666z"/>
	<path class="st1" d="M160.551,25.666c-0.738,0-1.451-0.271-2.001-0.765C142.769,10.778,121.916,3,99.833,3
		C77.75,3,56.897,10.778,41.116,24.901c-0.55,0.493-1.262,0.765-2,0.765H3v108h36.115c0.738,0,1.451,0.272,2,0.765
		c15.782,14.124,36.635,21.902,58.718,21.902c22.083,0,42.936-7.778,58.718-21.902c0.55-0.492,1.262-0.765,2.001-0.765h36.115v-108
		H160.551z M195.667,132.666h-35.115c-0.986,0-1.934,0.362-2.668,1.02c-15.598,13.959-36.214,21.646-58.051,21.646
		s-42.452-7.688-58.051-21.647c-0.733-0.657-1.681-1.02-2.667-1.02H4v-106h35.115c0.986,0,1.934-0.362,2.668-1.02
		C57.381,11.688,77.997,4,99.833,4c21.836,0,42.453,7.688,58.05,21.646c0.733,0.657,1.681,1.02,2.668,1.02h35.116V132.666z"/>
</g>
</svg>