<!-- Generator: Adobe Illustrator 21.1.0, SVG Export Plug-In  -->
<svg version="1.1"
	 xmlns="http://www.w3.org/2000/svg" xmlns:xlink="http://www.w3.org/1999/xlink" xmlns:a="http://ns.adobe.com/AdobeSVGViewerExtensions/3.0/"
	 x="0px" y="0px" width="390.004px" height="273.342px" viewBox="0 0 390.004 273.342"
	 style="overflow:scroll;enable-background:new 0 0 390.004 273.342;" xml:space="preserve">
<style type="text/css">
	.st0{opacity:0.8;fill:#FFFFFF;stroke:#FFFFFF;stroke-miterlimit:10;}
	.st1{fill:#6A1010;}
</style>
<defs>
</defs>
<g>
	<path class="st0" d="M195.001,0.5c-44.023,0-85.66,13.411-117.422,37.795H4.32c-2.11,0-3.82,1.493-3.82,3.335v190.084
		c0,1.842,1.71,3.335,3.82,3.335h73.26c31.762,24.383,73.398,37.793,117.421,37.793c44.024,0,85.661-13.411,117.421-37.793h73.262
		c2.11,0,3.82-1.493,3.82-3.335V41.63c0-1.842-1.71-3.335-3.82-3.335h-73.26C280.662,13.911,239.024,0.5,195.001,0.5z"/>
	<path class="st1" d="M379.954,226.712V46.632h-68.98c-1.41,0-2.771-0.454-3.821-1.275c-30.144-23.551-69.973-36.52-112.152-36.52
		c-42.178,0-82.007,12.97-112.151,36.52c-1.05,0.821-2.411,1.275-3.821,1.275H10.05v180.08h68.98c1.41,0,2.771,0.453,3.821,1.275
		c30.143,23.549,69.972,36.518,112.15,36.518c42.179,0,82.008-12.97,112.15-36.518c1.05-0.822,2.411-1.275,3.821-1.275H379.954z
		 M378.044,225.044h-67.072c-1.884,0-3.694,0.604-5.095,1.7c-29.791,23.275-69.169,36.093-110.876,36.093
		c-41.707,0-81.083-12.818-110.875-36.093c-1.402-1.096-3.212-1.7-5.096-1.7H11.96V48.299h67.069c1.884,0,3.694-0.604,5.095-1.7
		c29.794-23.277,69.169-36.095,110.877-36.095s81.085,12.818,110.877,36.093c1.402,1.097,3.212,1.702,5.096,1.702h67.07V225.044z"/>
</g>
</svg>