<!-- Generator: Adobe Illustrator 21.1.0, SVG Export Plug-In  -->
<svg version="1.1"
	 xmlns="http://www.w3.org/2000/svg" xmlns:xlink="http://www.w3.org/1999/xlink" xmlns:a="http://ns.adobe.com/AdobeSVGViewerExtensions/3.0/"
	 x="0px" y="0px" width="323.817px" height="182.01px" viewBox="0 0 323.817 182.01"
	 style="overflow:scroll;enable-background:new 0 0 323.817 182.01;" xml:space="preserve">
<style type="text/css">
	.st0{fill:#6B0B0C;}
</style>
<defs>
</defs>
<g>
	<g>
		<g>
			<g>
				<path class="st0" d="M14.522,167.661c-2.559,2.076-3.596,6.156-2.741,9.322c0.573,2.121,3.403,5.533,5.554,2.863
					c1.352-1.679-1.031-4.269-2.263-2.421c-1.043,1.564,1.62,2.886,1.96,0.855c0.052-0.308-0.411-0.44-0.463-0.13
					c-0.596,3.565-3.303,1.067-3.977-0.819c-0.356-0.996-0.537-2.122-0.534-3.179c0.008-2.481,1.119-4.484,2.569-6.384
					C14.685,167.691,14.597,167.6,14.522,167.661L14.522,167.661z"/>
			</g>
			<g>
				<path class="st0" d="M11.249,171.155c-2.335,2.511-4.268,7.117-2.265,10.41c0.077,0.127,0.293,0.082,0.287-0.079
					c-0.065-1.739-0.456-3.302-0.151-5.058c0.327-1.882,1.069-3.654,2.276-5.124C11.48,171.202,11.342,171.055,11.249,171.155
					L11.249,171.155z"/>
			</g>
			<g>
				<path class="st0" d="M0.292,181.961c1.143-1.746,3.651-0.599,4.947-2.275c0.616-0.797,1.05-1.861,1.561-2.73
					c0.696-1.184,1.43-2.355,1.983-3.618c0.015-0.034-0.028-0.078-0.056-0.044c-0.805,0.988-1.466,2.083-2.149,3.161
					c-0.751,1.186-1.43,2.672-2.674,3.355c-1.267,0.695-3.328,0.308-3.802,2.069C0.07,181.999,0.227,182.059,0.292,181.961
					L0.292,181.961z"/>
			</g>
			<g>
				<path class="st0" d="M20.333,161.729c-4.147,4.164-5.155,11.151-1.283,15.859c3.352,4.075,10.244,4.75,13.488,0.118
					c2.665-3.806,1.236-11.049-4.226-11.1c-2.081-0.019-4.077,1.387-4.334,3.568c-0.207,1.751,1.143,4.372,3.231,3.652
					c1.501-0.518,1.602-2.877-0.193-2.944c-1.824-0.068-1.722,2.28-0.253,2.806c0.339,0.121,0.485-0.427,0.148-0.547
					c-0.978-0.35-2.086-0.666-2.313-1.794c-0.183-0.907,0.051-1.897,0.595-2.616c0.862-1.139,2.247-1.617,3.629-1.417
					c2.226,0.322,3.893,2.293,4.303,4.483c0.81,4.332-2.546,8.129-6.727,8.358c-4.138,0.226-7.518-2.746-8.718-6.643
					c-1.288-4.187,0.332-8.331,2.817-11.654C20.569,161.759,20.415,161.647,20.333,161.729L20.333,161.729z"/>
			</g>
			<g>
				<path class="st0" d="M28.033,178.231c3.295-2.993,7.845-4.75,12.121-2.666c0.685,0.334,2.891,1.54,2.278,2.617
					c-0.849,0.363-1.697,0.726-2.546,1.089c-0.639-0.979-0.732-1.905-0.28-2.779c0.532-1.33,1.754-2.226,3.146-2.413
					c1.427-0.192,2.679,0.322,3.562,1.505c0.373,0.5,0.652,1.054,0.786,1.669c0.39,1.785-0.177,2.008-1.946,2.848
					c-0.284,0.135-0.037,0.559,0.245,0.428c0.84-0.392,0.918-1.695-0.153-1.841c-1.212-0.165-1.528,1.465-0.743,2.144
					c1.283,1.109,2.717-0.399,3.051-1.64c0.451-1.674-0.268-3.577-1.556-4.664c-2.696-2.275-8.276,0.189-6.982,4.115
					c0.389,1.182,1.806,2.074,2.961,1.362c1.724-1.062,0.69-3.345-0.56-4.258c-3.946-2.882-10.711-1.559-13.497,2.394
					C27.872,178.213,27.976,178.283,28.033,178.231L28.033,178.231z"/>
			</g>
		</g>
		<g>
			<g>
				<path class="st0" d="M13.98,166.791c-1.861,1.474-3.834,2.609-6.266,2.617c-0.963,0.003-1.946-0.158-2.861-0.461
					c-1.779-0.587-4.968-3.457-1.064-4.135c0.304-0.053,0.175-0.524-0.128-0.472c-1.989,0.345-0.685,3.079,0.839,1.997
					c1.811-1.286-0.734-3.662-2.376-2.305c-2.637,2.178,0.745,5.081,2.81,5.658c3.109,0.869,7.111-0.184,9.15-2.792
					C14.145,166.821,14.055,166.731,13.98,166.791L13.98,166.791z"/>
			</g>
			<g>
				<path class="st0" d="M10.508,170.082c-1.442,1.23-3.182,1.986-5.029,2.318c-1.724,0.311-3.258-0.088-4.965-0.154
					c-0.158-0.006-0.203,0.214-0.078,0.293c3.233,2.041,7.754,0.071,10.219-2.307C10.753,170.137,10.609,169.996,10.508,170.082
					L10.508,170.082z"/>
			</g>
			<g>
				<path class="st0" d="M0.128,181.588c1.73-0.483,1.347-2.58,2.031-3.874c0.664-1.257,2.139-1.966,3.293-2.724
					c1.058-0.696,2.132-1.368,3.102-2.189c0.033-0.028-0.009-0.072-0.043-0.057c-1.146,0.521-2.208,1.201-3.283,1.857
					c-0.94,0.573-2.091,1.066-2.948,1.754c-1.64,1.317-0.529,3.882-2.233,5.04C-0.047,181.46,0.01,181.621,0.128,181.588
					L0.128,181.588z"/>
			</g>
			<g>
				<path class="st0" d="M19.782,160.811c-3.206,2.488-7.115,4.084-11.172,2.952c-3.927-1.095-7.051-4.68-6.788-8.964
					c0.253-4.119,3.613-7.404,7.758-6.906c2.145,0.258,4.191,1.716,4.771,3.917c0.348,1.32,0.036,2.931-0.927,3.92
					c-0.659,0.677-1.404,0.908-2.297,0.903c-1.629-0.008-1.789-0.53-2.42-2.357c-0.118-0.342-0.657-0.195-0.537,0.151
					c0.393,1.139,2.046,1.751,2.657,0.413c0.689-1.509-1.169-2.683-2.312-1.629c-1.402,1.292-0.081,3.308,1.327,3.857
					c2.047,0.798,4.234-0.449,4.978-2.46c2.045-5.528-4.976-8.706-9.199-6.861c-4.87,2.128-5.844,8.761-2.831,12.872
					c4.183,5.708,12.496,5.135,17.119,0.358C19.987,160.895,19.879,160.736,19.782,160.811L19.782,160.811z"/>
			</g>
			<g>
				<path class="st0" d="M3.795,153.246c3.684-2.695,4.766-8.486,2.974-12.592c-0.66-1.514-2.185-3.334-4.017-2.435
					c-1.157,0.568-1.305,2.008-0.522,2.974c1.145,1.413,3.275,0.946,4.478-0.13c1.392-1.245,1.984-3.34,1.291-5.113
					c-0.604-1.546-2.131-2.631-3.739-2.812c-1.359-0.153-3.476,0.488-3.447,2.217c0.021,1.278,1.89,2.185,2.386,0.701
					c0.42-1.256-1.239-1.744-1.746-0.618c-0.129,0.287,0.287,0.539,0.42,0.25c0.843-1.84,0.761-2.179,2.352-2.032
					c0.61,0.056,1.195,0.249,1.722,0.573c1.185,0.728,1.953,2.035,1.904,3.453c-0.047,1.363-0.814,2.776-1.983,3.468
					c-0.641,0.47-1.322,0.518-2.041,0.142c-1.81,0.017-1.833-0.927-0.069-2.831c1.229,0.159,2.097,1.285,2.568,2.32
					c2,4.389,0.349,8.96-2.617,12.349C3.659,153.19,3.726,153.297,3.795,153.246L3.795,153.246z"/>
			</g>
		</g>
	</g>
	<g>
		<g>
			<g>
				<path class="st0" d="M309.295,14.349c2.559-2.076,3.596-6.156,2.741-9.322c-0.573-2.121-3.403-5.533-5.554-2.863
					c-1.352,1.679,1.031,4.269,2.263,2.421c1.043-1.564-1.62-2.886-1.96-0.855c-0.051,0.308,0.411,0.44,0.463,0.13
					c0.596-3.565,3.303-1.067,3.977,0.819c0.356,0.996,0.537,2.122,0.534,3.179c-0.008,2.481-1.119,4.484-2.569,6.384
					C309.131,14.319,309.219,14.41,309.295,14.349L309.295,14.349z"/>
			</g>
			<g>
				<path class="st0" d="M312.568,10.855c2.335-2.511,4.268-7.117,2.265-10.41c-0.077-0.127-0.293-0.082-0.287,0.079
					c0.065,1.739,0.456,3.302,0.151,5.058c-0.327,1.882-1.069,3.654-2.276,5.124C312.337,10.808,312.475,10.955,312.568,10.855
					L312.568,10.855z"/>
			</g>
			<g>
				<path class="st0" d="M323.525,0.049c-1.143,1.746-3.651,0.599-4.947,2.275c-0.616,0.797-1.05,1.861-1.561,2.73
					c-0.696,1.184-1.43,2.355-1.983,3.618c-0.015,0.034,0.028,0.078,0.056,0.044c0.805-0.988,1.466-2.083,2.149-3.161
					c0.751-1.186,1.43-2.672,2.674-3.355c1.267-0.695,3.328-0.308,3.802-2.069C323.747,0.011,323.589-0.049,323.525,0.049
					L323.525,0.049z"/>
			</g>
			<g>
				<path class="st0" d="M303.483,20.281c4.147-4.164,5.155-11.151,1.283-15.859c-3.352-4.075-10.244-4.75-13.488-0.118
					c-2.665,3.806-1.236,11.049,4.226,11.1c2.081,0.019,4.077-1.387,4.334-3.568c0.207-1.751-1.143-4.372-3.231-3.652
					c-1.501,0.518-1.602,2.877,0.193,2.944c1.824,0.068,1.722-2.28,0.253-2.806c-0.339-0.121-0.485,0.427-0.148,0.547
					c0.978,0.35,2.086,0.666,2.313,1.794c0.183,0.907-0.051,1.897-0.595,2.616c-0.862,1.139-2.247,1.617-3.629,1.417
					c-2.226-0.322-3.893-2.293-4.303-4.483c-0.81-4.332,2.546-8.129,6.727-8.358c4.138-0.226,7.518,2.746,8.718,6.643
					c1.288,4.187-0.332,8.331-2.817,11.654C303.248,20.251,303.402,20.363,303.483,20.281L303.483,20.281z"/>
			</g>
			<g>
				<path class="st0" d="M295.783,3.779c-3.295,2.993-7.845,4.75-12.121,2.666c-0.685-0.334-2.891-1.54-2.278-2.617
					c0.849-0.363,1.697-0.726,2.546-1.089c0.639,0.979,0.732,1.905,0.28,2.779c-0.532,1.33-1.754,2.226-3.146,2.413
					c-1.427,0.192-2.679-0.322-3.562-1.505c-0.373-0.5-0.652-1.054-0.786-1.669c-0.39-1.785,0.177-2.008,1.946-2.848
					c0.284-0.135,0.037-0.559-0.245-0.428c-0.84,0.392-0.918,1.695,0.153,1.841c1.212,0.165,1.528-1.465,0.743-2.144
					c-1.283-1.109-2.717,0.399-3.051,1.64c-0.451,1.674,0.268,3.577,1.556,4.664c2.696,2.275,8.276-0.189,6.982-4.115
					c-0.389-1.182-1.806-2.074-2.961-1.362c-1.724,1.062-0.69,3.345,0.56,4.258c3.946,2.882,10.711,1.559,13.497-2.394
					C295.944,3.797,295.84,3.727,295.783,3.779L295.783,3.779z"/>
			</g>
		</g>
		<g>
			<g>
				<path class="st0" d="M309.837,15.22c1.861-1.474,3.834-2.609,6.266-2.617c0.963-0.003,1.946,0.158,2.861,0.461
					c1.779,0.587,4.968,3.457,1.064,4.135c-0.304,0.053-0.175,0.524,0.128,0.472c1.989-0.345,0.685-3.079-0.839-1.997
					c-1.811,1.286,0.734,3.662,2.376,2.305c2.637-2.178-0.745-5.081-2.81-5.658c-3.109-0.869-7.111,0.184-9.15,2.792
					C309.672,15.19,309.761,15.279,309.837,15.22L309.837,15.22z"/>
			</g>
			<g>
				<path class="st0" d="M313.308,11.928c1.442-1.23,3.182-1.986,5.029-2.318c1.724-0.311,3.258,0.088,4.965,0.154
					c0.158,0.006,0.203-0.214,0.078-0.293c-3.233-2.041-7.754-0.071-10.219,2.307C313.063,11.873,313.208,12.014,313.308,11.928
					L313.308,11.928z"/>
			</g>
			<g>
				<path class="st0" d="M323.689,0.422c-1.73,0.483-1.347,2.58-2.031,3.874c-0.664,1.257-2.139,1.966-3.293,2.724
					c-1.058,0.696-2.132,1.368-3.102,2.189c-0.033,0.028,0.009,0.072,0.043,0.057c1.146-0.521,2.208-1.201,3.283-1.857
					c0.94-0.573,2.091-1.066,2.948-1.754c1.64-1.317,0.529-3.882,2.233-5.04C323.864,0.551,323.807,0.389,323.689,0.422
					L323.689,0.422z"/>
			</g>
			<g>
				<path class="st0" d="M304.035,21.199c3.206-2.488,7.115-4.084,11.172-2.952c3.927,1.095,7.051,4.68,6.788,8.964
					c-0.253,4.119-3.613,7.404-7.758,6.906c-2.145-0.258-4.191-1.716-4.771-3.917c-0.348-1.32-0.036-2.931,0.927-3.92
					c0.659-0.677,1.404-0.908,2.297-0.903c1.629,0.008,1.789,0.53,2.42,2.357c0.118,0.342,0.657,0.195,0.537-0.151
					c-0.393-1.139-2.046-1.751-2.657-0.413c-0.689,1.509,1.169,2.683,2.312,1.629c1.402-1.292,0.081-3.308-1.327-3.857
					c-2.047-0.798-4.234,0.449-4.978,2.46c-2.045,5.528,4.976,8.706,9.199,6.861c4.87-2.128,5.844-8.761,2.831-12.872
					c-4.183-5.708-12.496-5.135-17.119-0.358C303.829,21.115,303.938,21.274,304.035,21.199L304.035,21.199z"/>
			</g>
			<g>
				<path class="st0" d="M320.021,28.764c-3.684,2.695-4.766,8.486-2.974,12.592c0.66,1.514,2.185,3.334,4.018,2.435
					c1.157-0.568,1.305-2.008,0.522-2.974c-1.145-1.413-3.275-0.946-4.478,0.13c-1.392,1.245-1.984,3.34-1.291,5.113
					c0.604,1.546,2.131,2.631,3.739,2.812c1.359,0.153,3.476-0.488,3.447-2.217c-0.021-1.278-1.89-2.185-2.386-0.701
					c-0.42,1.256,1.239,1.744,1.746,0.618c0.129-0.287-0.287-0.539-0.42-0.25c-0.843,1.84-0.761,2.179-2.352,2.032
					c-0.61-0.056-1.195-0.249-1.722-0.573c-1.185-0.728-1.953-2.035-1.904-3.453c0.047-1.363,0.814-2.776,1.983-3.468
					c0.641-0.47,1.322-0.518,2.042-0.142c1.81-0.017,1.833,0.927,0.069,2.831c-1.229-0.159-2.097-1.285-2.568-2.32
					c-2-4.389-0.349-8.96,2.617-12.349C320.158,28.82,320.091,28.713,320.021,28.764L320.021,28.764z"/>
			</g>
		</g>
	</g>
	<g>
		<path class="st0" d="M4.27,131.145V4.604h268.075V4.047H4.293c-0.314,0-0.569,0.259-0.569,0.579v126.519H4.27z"/>
		<path class="st0" d="M321.174,52.914v125.979H49.859v0.557h271.293c0.314,0,0.569-0.259,0.569-0.579V52.914H321.174z"/>
	</g>
</g>
</svg>