<!-- Generator: Adobe Illustrator 21.1.0, SVG Export Plug-In  -->
<svg version="1.1"
	 xmlns="http://www.w3.org/2000/svg" xmlns:xlink="http://www.w3.org/1999/xlink" xmlns:a="http://ns.adobe.com/AdobeSVGViewerExtensions/3.0/"
	 x="0px" y="0px" width="27.705px" height="9.735px" viewBox="0 0 27.705 9.735"
	 style="overflow:scroll;enable-background:new 0 0 27.705 9.735;" xml:space="preserve">
<style type="text/css">
	.st0{opacity:0.4;}
</style>
<defs>
</defs>
<g class="st0">
	<path d="M5.241,8.237c-0.287,0-0.573-0.018-0.848-0.047C3.627,8.868,2.715,9.349,1.702,9.606c-0.21,0.058-0.439,0.099-0.667,0.129
		C0.907,9.745,0.784,9.653,0.754,9.512c0-0.006,0-0.006,0-0.006c-0.029-0.146,0.07-0.235,0.158-0.34
		c0.369-0.415,0.79-0.766,1.065-1.743C0.772,6.739,0,5.681,0,4.493c0-2.065,2.346-3.744,5.241-3.744s5.241,1.673,5.241,3.744
		S8.137,8.237,5.241,8.237z"/>
	<path d="M20.779,7.862c0,0.205-0.17,0.374-0.374,0.374H18.72c-0.205,0-0.374-0.17-0.374-0.374V4.118
		c0-0.205,0.17-0.374,0.374-0.374h1.685c0.205,0,0.374,0.17,0.374,0.374V7.862z M19.469,6.739c-0.211,0-0.374,0.17-0.374,0.374
		c0,0.21,0.164,0.374,0.374,0.374c0.205,0,0.374-0.164,0.374-0.374C19.843,6.909,19.673,6.739,19.469,6.739z M27.384,4.99
		c0.064,0.187,0.088,0.362,0.088,0.445c0.012,0.292-0.076,0.567-0.251,0.801c0.064,0.217,0.064,0.45,0,0.684
		c-0.059,0.217-0.17,0.41-0.316,0.55c0.035,0.439-0.064,0.796-0.287,1.059c-0.251,0.298-0.638,0.45-1.153,0.456
		c-0.023,0-0.105,0-0.21,0H24.81H24.71c-0.837,0-1.626-0.275-2.258-0.492c-0.368-0.129-0.72-0.251-0.924-0.257
		c-0.199-0.006-0.374-0.17-0.374-0.374v-3.75c0-0.193,0.164-0.358,0.357-0.374c0.216-0.018,0.778-0.714,1.035-1.053
		c0.21-0.269,0.409-0.521,0.591-0.703c0.228-0.228,0.292-0.579,0.363-0.918c0.064-0.345,0.135-0.708,0.386-0.954
		C23.956,0.041,24.049,0,24.149,0c1.31,0,1.31,1.047,1.31,1.498c0,0.479-0.17,0.819-0.327,1.123
		c-0.064,0.129-0.123,0.187-0.17,0.374h1.62c0.609,0,1.123,0.515,1.123,1.123C27.705,4.428,27.583,4.762,27.384,4.99z"/>
</g>
</svg>