<!-- Generator: Adobe Illustrator 21.1.0, SVG Export Plug-In  -->
<svg version="1.1"
	 xmlns="http://www.w3.org/2000/svg" xmlns:xlink="http://www.w3.org/1999/xlink" xmlns:a="http://ns.adobe.com/AdobeSVGViewerExtensions/3.0/"
	 x="0px" y="0px" width="787.823px" height="290.109px" viewBox="0 0 787.823 290.109"
	 style="overflow:scroll;enable-background:new 0 0 787.823 290.109;" xml:space="preserve">
<style type="text/css">
	.st0{opacity:0.8;fill:#FFFFFF;stroke:#FFFFFF;stroke-miterlimit:10;}
	.st1{fill:#6A1010;}
</style>
<defs>
</defs>
<g>
	<path class="st0" d="M393.909,289.609c-89.044,0-173.261-14.237-237.505-40.122H8.227c-4.267,0-7.727-1.585-7.727-3.54V44.16
		c0-1.955,3.46-3.54,7.727-3.54h148.18C220.651,14.736,304.865,0.5,393.909,0.5c89.046,0,173.263,14.236,237.503,40.12h148.183
		c4.267,0,7.727,1.585,7.727,3.54v201.787c0,1.955-3.46,3.54-7.727,3.54h-148.18C567.172,275.372,482.953,289.609,393.909,289.609z"
		/>
	<path class="st1" d="M628.479,49.47c-2.852,0-5.604-0.481-7.729-1.354C559.784,23.118,479.222,9.35,393.909,9.35
		c-85.311,0-165.872,13.768-226.841,38.767c-2.124,0.873-4.876,1.354-7.728,1.354H19.816v191.166h139.522
		c2.852,0,5.604,0.482,7.728,1.353c60.971,25,141.532,38.769,226.843,38.769c85.313,0,165.874-13.768,226.845-38.769
		c2.124-0.871,4.876-1.353,7.729-1.353h139.523V49.47H628.479z M764.143,238.867h-135.66c-3.811,0-7.472,0.641-10.307,1.806
		c-60.26,24.708-139.906,38.316-224.267,38.316s-164.004-13.607-224.267-38.317c-2.833-1.163-6.495-1.805-10.305-1.805H23.68V51.24
		h135.66c3.811,0,7.472-0.641,10.307-1.805C229.905,24.728,309.551,11.12,393.909,11.12c84.36,0,164.007,13.607,224.265,38.316
		c2.833,1.163,6.495,1.805,10.305,1.805h135.664V238.867z"/>
</g>
</svg>